%TF.GenerationSoftware,KiCad,Pcbnew,7.0.10*%
%TF.CreationDate,2024-03-23T14:15:09-04:00*%
%TF.ProjectId,MITS 88-2SIO,4d495453-2038-4382-9d32-53494f2e6b69,rev?*%
%TF.SameCoordinates,Original*%
%TF.FileFunction,Plated,1,2,PTH,Drill*%
%TF.FilePolarity,Positive*%
%FSLAX46Y46*%
G04 Gerber Fmt 4.6, Leading zero omitted, Abs format (unit mm)*
G04 Created by KiCad (PCBNEW 7.0.10) date 2024-03-23 14:15:09*
%MOMM*%
%LPD*%
G01*
G04 APERTURE LIST*
%TA.AperFunction,ViaDrill*%
%ADD10C,0.400000*%
%TD*%
%TA.AperFunction,ComponentDrill*%
%ADD11C,0.750000*%
%TD*%
%TA.AperFunction,ViaDrill*%
%ADD12C,0.762000*%
%TD*%
%TA.AperFunction,ComponentDrill*%
%ADD13C,0.800000*%
%TD*%
%TA.AperFunction,ComponentDrill*%
%ADD14C,0.900000*%
%TD*%
%TA.AperFunction,ComponentDrill*%
%ADD15C,1.100000*%
%TD*%
%TA.AperFunction,ComponentDrill*%
%ADD16C,1.200000*%
%TD*%
%TA.AperFunction,ComponentDrill*%
%ADD17C,1.700000*%
%TD*%
G04 APERTURE END LIST*
D10*
X50495200Y-139827000D03*
X63754000Y-141732000D03*
X67056000Y-85852000D03*
X68326000Y-146939000D03*
X69088000Y-87630000D03*
X73533000Y-117475000D03*
X73914000Y-83947000D03*
X75438000Y-104902000D03*
X76708000Y-115951000D03*
X78232000Y-89789000D03*
X78232000Y-108712000D03*
X84709000Y-56261000D03*
X86233000Y-75819000D03*
X86487000Y-88519000D03*
X86995000Y-59309000D03*
X90932000Y-130251200D03*
X91948000Y-144526000D03*
X93726000Y-145542000D03*
X94625160Y-96012000D03*
X95377000Y-146304000D03*
X96647000Y-132842000D03*
X98298000Y-147701000D03*
X98653600Y-104394000D03*
X99441000Y-117602000D03*
X102616000Y-126441200D03*
X107746800Y-66548000D03*
X112903000Y-65151000D03*
X112903000Y-84836000D03*
X114300000Y-87579200D03*
X114300000Y-106553000D03*
X116586000Y-88011000D03*
X117094000Y-99949000D03*
X117602000Y-148590000D03*
X118110000Y-63627000D03*
X118110000Y-89789000D03*
X118618000Y-98552000D03*
X118999000Y-111506000D03*
X119888000Y-56388000D03*
X120015000Y-58928000D03*
X120142000Y-64643000D03*
X120142000Y-92456000D03*
X120142000Y-126492000D03*
X121666000Y-66421000D03*
X121793000Y-88265000D03*
X121793000Y-114554000D03*
X123571000Y-127762000D03*
X123647200Y-134467600D03*
X125603000Y-103124000D03*
X125603000Y-130556000D03*
X127254000Y-123952000D03*
X127381000Y-144907000D03*
X127635000Y-104140000D03*
X129032000Y-105537000D03*
X130302000Y-154305000D03*
X130683000Y-124206000D03*
X131318000Y-129032000D03*
X131318000Y-144653000D03*
X133350000Y-76504800D03*
X133350000Y-116713000D03*
X134493000Y-125984000D03*
X134493000Y-133477000D03*
X135001000Y-78994000D03*
X135001000Y-115316000D03*
X136398000Y-81534000D03*
X136398000Y-127635000D03*
X137668000Y-84124800D03*
X137668000Y-128905000D03*
X138938000Y-86664800D03*
X138938000Y-126085600D03*
X140040000Y-109430000D03*
X140843000Y-122682000D03*
X140843000Y-146812000D03*
X142240000Y-118364000D03*
X144018000Y-110617000D03*
X145034000Y-104140000D03*
X146939000Y-107315000D03*
X147066000Y-71374000D03*
X147066000Y-133477000D03*
X148717000Y-132080000D03*
X150622000Y-132080000D03*
X152019000Y-133350000D03*
X155575000Y-137668000D03*
X155700000Y-149000000D03*
X157276800Y-134492943D03*
X160274000Y-151765000D03*
X165862000Y-151765000D03*
X168275000Y-136652000D03*
X169545000Y-107823000D03*
X169545000Y-131826000D03*
X171958000Y-138811000D03*
X173355000Y-131826000D03*
X173355000Y-145034000D03*
X177165000Y-126111000D03*
X180949600Y-133604000D03*
X181229000Y-138557000D03*
X181229000Y-151765000D03*
X182245000Y-128778000D03*
X184404000Y-137033000D03*
X184404000Y-151765000D03*
X186182000Y-126390400D03*
X187325000Y-135890000D03*
X187452000Y-151765000D03*
X190119000Y-107696000D03*
X192532000Y-151638000D03*
X193167000Y-127889000D03*
X194437000Y-126365000D03*
X195580000Y-151638000D03*
X197485000Y-151638000D03*
X199517000Y-105537000D03*
X201930000Y-151638000D03*
X203708000Y-151638000D03*
X203835000Y-133604000D03*
X203835000Y-142113000D03*
X207137000Y-109423200D03*
X207213200Y-151638000D03*
X212979000Y-131826000D03*
X219290000Y-154540000D03*
X222631000Y-85598000D03*
X233045000Y-50673000D03*
X245740000Y-85600000D03*
X256540000Y-50673000D03*
X268351000Y-85598000D03*
X270611600Y-91338400D03*
D11*
%TO.C,Q1*%
X245262400Y-97790000D03*
%TO.C,Q3*%
X245491000Y-116687600D03*
%TO.C,Q1*%
X246532400Y-96520000D03*
X246532400Y-99060000D03*
%TO.C,Q3*%
X246761000Y-115417600D03*
X246761000Y-117957600D03*
%TO.C,Q2*%
X266750800Y-97739200D03*
%TO.C,Q4*%
X266801600Y-116738400D03*
%TO.C,Q2*%
X268020800Y-96469200D03*
X268020800Y-99009200D03*
%TO.C,Q4*%
X268071600Y-115468400D03*
X268071600Y-118008400D03*
%TD*%
D12*
X63700000Y-152800000D03*
X66675000Y-140716000D03*
X69088000Y-142748000D03*
X196850000Y-60706000D03*
X214503000Y-135509000D03*
X216027000Y-138303000D03*
X224155000Y-91313000D03*
D13*
%TO.C,P2*%
X54229000Y-131572000D03*
%TO.C,P8*%
X54229000Y-134112000D03*
%TO.C,P14*%
X55118000Y-96012000D03*
%TO.C,P18*%
X55118000Y-106045000D03*
%TO.C,C18*%
X55118000Y-117729000D03*
%TO.C,P6*%
X55626000Y-126492000D03*
%TO.C,P12*%
X55626000Y-129032000D03*
%TO.C,U8*%
X58826400Y-96012000D03*
X58826400Y-98552000D03*
X58826400Y-101092000D03*
X58826400Y-103632000D03*
X58826400Y-106172000D03*
X58826400Y-108712000D03*
X58826400Y-111252000D03*
%TO.C,U6*%
X58978800Y-121412000D03*
X58978800Y-123952000D03*
X58978800Y-126492000D03*
X58978800Y-129032000D03*
X58978800Y-131572000D03*
X58978800Y-134112000D03*
X58978800Y-136652000D03*
%TO.C,C18*%
X62738000Y-117729000D03*
%TO.C,U8*%
X66446400Y-96012000D03*
X66446400Y-98552000D03*
X66446400Y-101092000D03*
X66446400Y-103632000D03*
X66446400Y-106172000D03*
X66446400Y-108712000D03*
X66446400Y-111252000D03*
%TO.C,U6*%
X66598800Y-121412000D03*
X66598800Y-123952000D03*
X66598800Y-126492000D03*
X66598800Y-129032000D03*
X66598800Y-131572000D03*
X66598800Y-134112000D03*
X66598800Y-136652000D03*
%TO.C,R28*%
X66802000Y-67564000D03*
X66802000Y-80264000D03*
%TO.C,U20*%
X68326000Y-35814000D03*
X68326000Y-38354000D03*
X68326000Y-40894000D03*
X68326000Y-43434000D03*
X68326000Y-45974000D03*
X68326000Y-48514000D03*
X68326000Y-51054000D03*
X68326000Y-53594000D03*
%TO.C,C9*%
X70358000Y-69883000D03*
X70358000Y-79883000D03*
%TO.C,P17*%
X70612000Y-102362000D03*
%TO.C,C17*%
X70612000Y-105791000D03*
X70612000Y-113411000D03*
%TO.C,P5*%
X70866000Y-123952000D03*
%TO.C,P11*%
X70866000Y-126492000D03*
%TO.C,P15*%
X71755000Y-97282000D03*
%TO.C,P16*%
X71755000Y-99822000D03*
%TO.C,P4*%
X72517000Y-129032000D03*
%TO.C,P10*%
X72517000Y-131572000D03*
%TO.C,W2*%
X73228200Y-150990000D03*
%TO.C,C10*%
X73761600Y-69883000D03*
X73761600Y-79883000D03*
%TO.C,P3*%
X74549000Y-134112000D03*
%TO.C,P9*%
X74549000Y-136652000D03*
%TO.C,U20*%
X75946000Y-35814000D03*
X75946000Y-38354000D03*
X75946000Y-40894000D03*
X75946000Y-43434000D03*
X75946000Y-45974000D03*
X75946000Y-48514000D03*
X75946000Y-51054000D03*
X75946000Y-53594000D03*
%TO.C,W3*%
X76403200Y-150990000D03*
%TO.C,W10*%
X77876400Y-147320000D03*
%TO.C,C21*%
X78867002Y-35813996D03*
X78867002Y-43433996D03*
%TO.C,W4*%
X79578200Y-150990000D03*
%TO.C,U1*%
X80162400Y-121412000D03*
X80162400Y-123952000D03*
X80162400Y-126492000D03*
X80162400Y-129032000D03*
X80162400Y-131572000D03*
X80162400Y-134112000D03*
X80162400Y-136652000D03*
%TO.C,U7*%
X81153000Y-68199000D03*
X81153000Y-70739000D03*
X81153000Y-73279000D03*
X81153000Y-75819000D03*
X81153000Y-78359000D03*
X81153000Y-80899000D03*
X81153000Y-83439000D03*
%TO.C,U22*%
X81915000Y-35814000D03*
X81915000Y-38354000D03*
X81915000Y-40894000D03*
X81915000Y-43434000D03*
X81915000Y-45974000D03*
X81915000Y-48514000D03*
X81915000Y-51054000D03*
X81915000Y-53594000D03*
%TO.C,U3*%
X81915000Y-96012000D03*
X81915000Y-98552000D03*
X81915000Y-101092000D03*
X81915000Y-103632000D03*
X81915000Y-106172000D03*
X81915000Y-108712000D03*
X81915000Y-111252000D03*
%TO.C,W5*%
X82753200Y-150990000D03*
%TO.C,W6*%
X85928200Y-150990000D03*
%TO.C,C16*%
X86766400Y-113436400D03*
%TO.C,U1*%
X87782400Y-121412000D03*
X87782400Y-123952000D03*
X87782400Y-126492000D03*
X87782400Y-129032000D03*
X87782400Y-131572000D03*
X87782400Y-134112000D03*
X87782400Y-136652000D03*
%TO.C,U7*%
X88773000Y-68199000D03*
X88773000Y-70739000D03*
X88773000Y-73279000D03*
X88773000Y-75819000D03*
X88773000Y-78359000D03*
X88773000Y-80899000D03*
X88773000Y-83439000D03*
%TO.C,W7*%
X89103200Y-150977600D03*
%TO.C,U22*%
X89535000Y-35814000D03*
X89535000Y-38354000D03*
X89535000Y-40894000D03*
X89535000Y-43434000D03*
X89535000Y-45974000D03*
X89535000Y-48514000D03*
X89535000Y-51054000D03*
X89535000Y-53594000D03*
%TO.C,U3*%
X89535000Y-96012000D03*
X89535000Y-98552000D03*
X89535000Y-101092000D03*
X89535000Y-103632000D03*
X89535000Y-106172000D03*
X89535000Y-108712000D03*
X89535000Y-111252000D03*
%TO.C,W11*%
X90932000Y-147320000D03*
%TO.C,C16*%
X91137052Y-119678339D03*
%TO.C,W8*%
X92278200Y-150990000D03*
%TO.C,C15*%
X94615000Y-102108000D03*
%TO.C,W9*%
X95450400Y-150990000D03*
%TO.C,U11*%
X97180400Y-68199000D03*
X97180400Y-70739000D03*
X97180400Y-73279000D03*
X97180400Y-75819000D03*
X97180400Y-78359000D03*
X97180400Y-80899000D03*
X97180400Y-83439000D03*
%TO.C,P19*%
X97536000Y-109855000D03*
%TO.C,W1*%
X98958400Y-150990000D03*
%TO.C,C15*%
X99513042Y-107945259D03*
%TO.C,P7*%
X101600000Y-129032000D03*
%TO.C,P13*%
X101600000Y-134112000D03*
%TO.C,U5*%
X103022400Y-95885000D03*
X103022400Y-98425000D03*
X103022400Y-100965000D03*
X103022400Y-103505000D03*
X103022400Y-106045000D03*
X103022400Y-108585000D03*
X103022400Y-111125000D03*
%TO.C,U11*%
X104800400Y-68199000D03*
X104800400Y-70739000D03*
X104800400Y-73279000D03*
X104800400Y-75819000D03*
X104800400Y-78359000D03*
X104800400Y-80899000D03*
X104800400Y-83439000D03*
%TO.C,J1*%
X105003600Y-35763200D03*
X105003600Y-38303200D03*
X105003600Y-40843200D03*
X105003600Y-43383200D03*
X105003600Y-45923200D03*
X105003600Y-48463200D03*
X105003600Y-51003200D03*
X105003600Y-53543200D03*
%TO.C,U2*%
X106680000Y-121412000D03*
X106680000Y-123952000D03*
X106680000Y-126492000D03*
X106680000Y-129032000D03*
X106680000Y-131572000D03*
X106680000Y-134112000D03*
X106680000Y-136652000D03*
%TO.C,C14*%
X108839000Y-68326000D03*
X108839000Y-75946000D03*
%TO.C,U5*%
X110642400Y-95885000D03*
X110642400Y-98425000D03*
X110642400Y-100965000D03*
X110642400Y-103505000D03*
X110642400Y-106045000D03*
X110642400Y-108585000D03*
X110642400Y-111125000D03*
%TO.C,J1*%
X112623600Y-35763200D03*
X112623600Y-38303200D03*
X112623600Y-40843200D03*
X112623600Y-43383200D03*
X112623600Y-45923200D03*
X112623600Y-48463200D03*
X112623600Y-51003200D03*
X112623600Y-53543200D03*
%TO.C,U2*%
X114300000Y-121412000D03*
X114300000Y-123952000D03*
X114300000Y-126492000D03*
X114300000Y-129032000D03*
X114300000Y-131572000D03*
X114300000Y-134112000D03*
X114300000Y-136652000D03*
%TO.C,C19*%
X115773200Y-32410400D03*
X123393200Y-32410400D03*
%TO.C,U14*%
X126365000Y-33401000D03*
X126365000Y-35941000D03*
X126365000Y-38481000D03*
X126365000Y-41021000D03*
X126365000Y-43561000D03*
X126365000Y-46101000D03*
X126365000Y-48641000D03*
X126365000Y-51181000D03*
X126365000Y-53721000D03*
X126365000Y-56261000D03*
X126365000Y-58801000D03*
X126365000Y-61341000D03*
%TO.C,U15*%
X126390400Y-66294000D03*
X126390400Y-68834000D03*
X126390400Y-71374000D03*
X126390400Y-73914000D03*
X126390400Y-76454000D03*
X126390400Y-78994000D03*
X126390400Y-81534000D03*
X126390400Y-84074000D03*
X126390400Y-86614000D03*
X126390400Y-89154000D03*
X126390400Y-91694000D03*
X126390400Y-94234000D03*
%TO.C,U14*%
X141605000Y-33401000D03*
X141605000Y-35941000D03*
X141605000Y-38481000D03*
X141605000Y-41021000D03*
X141605000Y-43561000D03*
X141605000Y-46101000D03*
X141605000Y-48641000D03*
X141605000Y-51181000D03*
X141605000Y-53721000D03*
X141605000Y-56261000D03*
X141605000Y-58801000D03*
X141605000Y-61341000D03*
%TO.C,U15*%
X141630400Y-66294000D03*
X141630400Y-68834000D03*
X141630400Y-71374000D03*
X141630400Y-73914000D03*
X141630400Y-76454000D03*
X141630400Y-78994000D03*
X141630400Y-81534000D03*
X141630400Y-84074000D03*
X141630400Y-86614000D03*
X141630400Y-89154000D03*
X141630400Y-91694000D03*
X141630400Y-94234000D03*
%TO.C,U10*%
X144373601Y-113639601D03*
X144373601Y-121259601D03*
X146913601Y-113639601D03*
X146913601Y-121259601D03*
X149453601Y-113639601D03*
X149453601Y-121259601D03*
%TO.C,U18*%
X150241000Y-85217000D03*
X150241000Y-87757000D03*
X150241000Y-90297000D03*
X150241000Y-92837000D03*
X150241000Y-95377000D03*
X150241000Y-97917000D03*
X150241000Y-100457000D03*
%TO.C,P86*%
X150495000Y-33528000D03*
%TO.C,U10*%
X151993601Y-113639601D03*
X151993601Y-121259601D03*
%TO.C,P87*%
X154305000Y-33528000D03*
%TO.C,U10*%
X154533601Y-113639601D03*
X154533601Y-121259601D03*
X157073601Y-113639601D03*
X157073601Y-121259601D03*
%TO.C,P26*%
X157480000Y-43180000D03*
%TO.C,P64*%
X157480000Y-45720000D03*
%TO.C,P66*%
X157480000Y-48260000D03*
%TO.C,P72*%
X157480000Y-50800000D03*
%TO.C,P37*%
X157480000Y-53340000D03*
%TO.C,P65*%
X157480000Y-55880000D03*
%TO.C,P67*%
X157480000Y-58420000D03*
%TO.C,P73*%
X157480000Y-60960000D03*
%TO.C,P49*%
X157480000Y-63754000D03*
%TO.C,P30*%
X157480000Y-66294000D03*
%TO.C,P48*%
X157505400Y-68834000D03*
%TO.C,P56*%
X157505400Y-73914000D03*
%TO.C,P28*%
X157556200Y-71374000D03*
%TO.C,P39*%
X157556200Y-76454000D03*
%TO.C,P57*%
X157556200Y-78994000D03*
%TO.C,P41*%
X157607000Y-81534000D03*
%TO.C,U18*%
X157861000Y-85217000D03*
X157861000Y-87757000D03*
X157861000Y-90297000D03*
X157861000Y-92837000D03*
X157861000Y-95377000D03*
X157861000Y-97917000D03*
X157861000Y-100457000D03*
%TO.C,P88*%
X158115000Y-33528000D03*
%TO.C,U10*%
X159613601Y-113639601D03*
X159613601Y-121259601D03*
%TO.C,U19*%
X161036000Y-43180000D03*
X161036000Y-45720000D03*
X161036000Y-48260000D03*
X161036000Y-50800000D03*
X161036000Y-53340000D03*
X161036000Y-55880000D03*
X161036000Y-58420000D03*
%TO.C,P89*%
X161925000Y-33528000D03*
%TO.C,U10*%
X162153601Y-113639601D03*
X162153601Y-121259601D03*
%TO.C,C13*%
X164541200Y-113690400D03*
X164541200Y-121310400D03*
%TO.C,P90*%
X165735000Y-33528000D03*
%TO.C,U9*%
X167030400Y-113639600D03*
X167030400Y-121259600D03*
%TO.C,U19*%
X168656000Y-43180000D03*
X168656000Y-45720000D03*
X168656000Y-48260000D03*
X168656000Y-50800000D03*
X168656000Y-53340000D03*
X168656000Y-55880000D03*
X168656000Y-58420000D03*
%TO.C,C20*%
X168808400Y-95250000D03*
X168808400Y-102870000D03*
%TO.C,P91*%
X169545000Y-33528000D03*
%TO.C,U9*%
X169570400Y-113639600D03*
X169570400Y-121259600D03*
X172110400Y-113639600D03*
X172110400Y-121259600D03*
%TO.C,U16*%
X172974000Y-85217000D03*
X172974000Y-87757000D03*
X172974000Y-90297000D03*
X172974000Y-92837000D03*
X172974000Y-95377000D03*
X172974000Y-97917000D03*
X172974000Y-100457000D03*
%TO.C,P36*%
X173024800Y-74218800D03*
%TO.C,P55*%
X173024800Y-76657200D03*
%TO.C,P34*%
X173024800Y-79248000D03*
%TO.C,P53*%
X173024800Y-81661000D03*
%TO.C,P92*%
X173355000Y-33528000D03*
%TO.C,U9*%
X174650400Y-113639600D03*
X174650400Y-121259600D03*
%TO.C,P54*%
X176530000Y-43180000D03*
%TO.C,P35*%
X176530000Y-45720000D03*
%TO.C,P52*%
X176530000Y-48260000D03*
%TO.C,P33*%
X176530000Y-50800000D03*
%TO.C,P50*%
X176530000Y-53340000D03*
%TO.C,P31*%
X176530000Y-55880000D03*
%TO.C,P93*%
X177165000Y-33528000D03*
%TO.C,U9*%
X177190400Y-113639600D03*
X177190400Y-121259600D03*
%TO.C,P42*%
X179171600Y-64135000D03*
%TO.C,P20*%
X179171600Y-66675000D03*
%TO.C,P44*%
X179171600Y-69215000D03*
%TO.C,P46*%
X179197000Y-74295000D03*
%TO.C,P22*%
X179222400Y-71755000D03*
%TO.C,P24*%
X179273200Y-76835000D03*
%TO.C,U9*%
X179730400Y-113639600D03*
X179730400Y-121259600D03*
%TO.C,U21*%
X180086000Y-43180000D03*
X180086000Y-45720000D03*
X180086000Y-48260000D03*
X180086000Y-50800000D03*
X180086000Y-53340000D03*
X180086000Y-55880000D03*
X180086000Y-58420000D03*
%TO.C,U16*%
X180594000Y-85217000D03*
X180594000Y-87757000D03*
X180594000Y-90297000D03*
X180594000Y-92837000D03*
X180594000Y-95377000D03*
X180594000Y-97917000D03*
X180594000Y-100457000D03*
%TO.C,P94*%
X180975000Y-33528000D03*
%TO.C,U9*%
X182270400Y-113639600D03*
X182270400Y-121259600D03*
%TO.C,C23*%
X183896000Y-92608400D03*
X183896000Y-100228400D03*
%TO.C,P95*%
X184785000Y-33528000D03*
%TO.C,U9*%
X184810400Y-113639600D03*
X184810400Y-121259600D03*
%TO.C,U21*%
X187706000Y-43180000D03*
X187706000Y-45720000D03*
X187706000Y-48260000D03*
X187706000Y-50800000D03*
X187706000Y-53340000D03*
X187706000Y-55880000D03*
X187706000Y-58420000D03*
%TO.C,P51*%
X189484000Y-64262000D03*
%TO.C,P32*%
X189484000Y-66675000D03*
%TO.C,P47*%
X189484000Y-69088000D03*
%TO.C,P25*%
X189484000Y-71882000D03*
%TO.C,P23*%
X189484000Y-74295000D03*
%TO.C,P45*%
X189484000Y-76835000D03*
%TO.C,P21*%
X189484000Y-79349600D03*
%TO.C,P43*%
X189484000Y-81788000D03*
%TO.C,C12*%
X191389000Y-53086000D03*
X191389000Y-60706000D03*
%TO.C,U13*%
X191643000Y-85217000D03*
X191643000Y-87757000D03*
X191643000Y-90297000D03*
X191643000Y-92837000D03*
X191643000Y-95377000D03*
X191643000Y-97917000D03*
X191643000Y-100457000D03*
%TO.C,U4*%
X191871600Y-113588800D03*
X191871600Y-121208800D03*
%TO.C,P106*%
X193903600Y-37236400D03*
%TO.C,U4*%
X194411600Y-113588800D03*
X194411600Y-121208800D03*
X196951600Y-113588800D03*
X196951600Y-121208800D03*
%TO.C,P107*%
X197860400Y-37236400D03*
%TO.C,U13*%
X199263000Y-85217000D03*
X199263000Y-87757000D03*
X199263000Y-90297000D03*
X199263000Y-92837000D03*
X199263000Y-95377000D03*
X199263000Y-97917000D03*
X199263000Y-100457000D03*
%TO.C,U4*%
X199491600Y-113588800D03*
X199491600Y-121208800D03*
%TO.C,P108*%
X201823600Y-37236400D03*
%TO.C,U4*%
X202031600Y-113588800D03*
X202031600Y-121208800D03*
X204571600Y-113588800D03*
X204571600Y-121208800D03*
%TO.C,P109*%
X205783600Y-37236400D03*
%TO.C,U4*%
X207111600Y-113588800D03*
X207111600Y-121208800D03*
%TO.C,P61*%
X207670400Y-88747600D03*
%TO.C,P58*%
X209423000Y-60706000D03*
%TO.C,U4*%
X209651600Y-113588800D03*
X209651600Y-121208800D03*
%TO.C,P110*%
X209743600Y-37236400D03*
%TO.C,P27*%
X209753200Y-95148400D03*
%TO.C,P29*%
X209753200Y-97688400D03*
%TO.C,P38*%
X209753200Y-100228400D03*
%TO.C,P40*%
X209753200Y-102819200D03*
%TO.C,R3*%
X210185000Y-43434000D03*
X210185000Y-56134000D03*
%TO.C,R18*%
X210185000Y-65278000D03*
X210185000Y-77978000D03*
%TO.C,P80*%
X211429600Y-88747600D03*
%TO.C,P111*%
X213703600Y-37236400D03*
%TO.C,D3*%
X213995000Y-43434000D03*
X213995000Y-56134000D03*
%TO.C,P74*%
X213995000Y-60706000D03*
%TO.C,D12*%
X213995000Y-65278000D03*
X213995000Y-77978000D03*
%TO.C,C22*%
X214376000Y-113665000D03*
X214376000Y-121285000D03*
%TO.C,P81*%
X215265000Y-88773000D03*
%TO.C,U23*%
X217424000Y-95148400D03*
X217424000Y-97688400D03*
X217424000Y-100228400D03*
X217424000Y-102768400D03*
X217424000Y-105308400D03*
X217424000Y-107848400D03*
X217424000Y-110388400D03*
%TO.C,P112*%
X217663600Y-37236400D03*
%TO.C,R4*%
X218313000Y-43434000D03*
X218313000Y-56134000D03*
%TO.C,R19*%
X218313000Y-65278000D03*
X218313000Y-77978000D03*
%TO.C,P75*%
X218338400Y-60706000D03*
%TO.C,P113*%
X221623600Y-37236400D03*
%TO.C,R5*%
X222631000Y-43434000D03*
X222631000Y-56134000D03*
%TO.C,R20*%
X222631000Y-65278000D03*
X222631000Y-77978000D03*
%TO.C,U23*%
X225044000Y-95148400D03*
X225044000Y-97688400D03*
X225044000Y-100228400D03*
X225044000Y-102768400D03*
X225044000Y-105308400D03*
X225044000Y-107848400D03*
X225044000Y-110388400D03*
%TO.C,P114*%
X225583600Y-37236400D03*
%TO.C,R16*%
X229235000Y-114300000D03*
X229235000Y-127000000D03*
%TO.C,R6*%
X229260400Y-95250000D03*
X229260400Y-107950000D03*
%TO.C,P115*%
X229543600Y-37236400D03*
%TO.C,P62*%
X230479600Y-88747600D03*
%TO.C,R8*%
X233045000Y-43434000D03*
X233045000Y-56134000D03*
%TO.C,P59*%
X233045000Y-60706000D03*
%TO.C,R23*%
X233045000Y-65151000D03*
X233045000Y-77851000D03*
%TO.C,R7*%
X233172000Y-95250000D03*
X233172000Y-107950000D03*
%TO.C,R17*%
X233172000Y-114300000D03*
X233172000Y-127000000D03*
%TO.C,P70*%
X233680000Y-135382000D03*
%TO.C,P96*%
X234011600Y-37178400D03*
%TO.C,P82*%
X234543600Y-88747600D03*
%TO.C,D15*%
X236728000Y-65176400D03*
X236728000Y-77876400D03*
%TO.C,D6*%
X236855000Y-43434000D03*
X236855000Y-56134000D03*
%TO.C,P76*%
X236855000Y-60706000D03*
%TO.C,D10*%
X236855000Y-114300000D03*
X236855000Y-127000000D03*
%TO.C,D4*%
X237032800Y-95250000D03*
X237032800Y-107950000D03*
%TO.C,P97*%
X237971600Y-37178400D03*
%TO.C,P83*%
X238861600Y-88747600D03*
%TO.C,D5*%
X240690400Y-95250000D03*
X240690400Y-107950000D03*
%TO.C,R9*%
X240919000Y-43434000D03*
X240919000Y-56134000D03*
%TO.C,P77*%
X240919000Y-60706000D03*
%TO.C,R24*%
X240919000Y-65151000D03*
X240919000Y-77851000D03*
%TO.C,D11*%
X241046000Y-114300000D03*
X241046000Y-127000000D03*
%TO.C,P68*%
X241300000Y-135382000D03*
%TO.C,P98*%
X241931600Y-37174400D03*
%TO.C,R10*%
X245745000Y-43434000D03*
X245745000Y-56134000D03*
%TO.C,R25*%
X245745000Y-65278000D03*
X245745000Y-77978000D03*
%TO.C,P99*%
X245891600Y-37178400D03*
%TO.C,P71*%
X248920000Y-135382000D03*
%TO.C,P100*%
X249851600Y-37178400D03*
%TO.C,R11*%
X251333000Y-95250000D03*
X251333000Y-107950000D03*
%TO.C,R21*%
X251333000Y-114300000D03*
X251333000Y-127000000D03*
%TO.C,P63*%
X253238000Y-88798400D03*
%TO.C,P101*%
X253811600Y-37178400D03*
%TO.C,R22*%
X255397000Y-114300000D03*
X255397000Y-127000000D03*
%TO.C,R12*%
X255422400Y-95250000D03*
X255422400Y-107950000D03*
%TO.C,R13*%
X256540000Y-43434000D03*
X256540000Y-56134000D03*
%TO.C,P60*%
X256540000Y-60706000D03*
%TO.C,R26*%
X256540000Y-65151000D03*
X256540000Y-77851000D03*
%TO.C,P69*%
X256540000Y-135382000D03*
%TO.C,P84*%
X257606800Y-88798400D03*
%TO.C,P102*%
X257753600Y-37178400D03*
%TO.C,D7*%
X259029200Y-95250000D03*
X259029200Y-107950000D03*
%TO.C,D13*%
X259461000Y-114300000D03*
X259461000Y-127000000D03*
%TO.C,D9*%
X260223000Y-43434000D03*
X260223000Y-56134000D03*
%TO.C,P78*%
X260223000Y-60706000D03*
%TO.C,D18*%
X260223000Y-65151000D03*
X260223000Y-77851000D03*
%TO.C,P85*%
X261620000Y-88798400D03*
%TO.C,P103*%
X261731600Y-37178400D03*
%TO.C,D8*%
X262890000Y-95250000D03*
X262890000Y-107950000D03*
%TO.C,D14*%
X262940800Y-114350800D03*
X262940800Y-127050800D03*
%TO.C,R14*%
X264033000Y-43434000D03*
X264033000Y-56134000D03*
%TO.C,P79*%
X264033000Y-60706000D03*
%TO.C,R27*%
X264033000Y-65151000D03*
X264033000Y-77851000D03*
%TO.C,P104*%
X265678400Y-37178400D03*
%TO.C,R15*%
X268351000Y-43434000D03*
X268351000Y-56134000D03*
%TO.C,R30*%
X268351000Y-65151000D03*
X268351000Y-77851000D03*
%TO.C,P105*%
X269640800Y-37178400D03*
D14*
%TO.C,D2*%
X38989000Y-120904000D03*
X38989000Y-133604000D03*
%TO.C,D1*%
X39497000Y-90297000D03*
X39497000Y-102997000D03*
D15*
%TO.C,U24*%
X37592000Y-61214000D03*
X40132000Y-65151000D03*
X42672000Y-61214000D03*
D16*
%TO.C,C1*%
X32385000Y-90316000D03*
X32385000Y-115316000D03*
%TO.C,C2*%
X32385000Y-120904000D03*
X32385000Y-145904000D03*
%TO.C,C11*%
X32512000Y-64499200D03*
X32512000Y-82499200D03*
%TO.C,R1*%
X44069000Y-90297000D03*
X44069000Y-110617000D03*
%TO.C,R2*%
X44069000Y-120904000D03*
X44069000Y-141224000D03*
%TO.C,C3*%
X204851000Y-43434000D03*
X204851000Y-61434000D03*
%TO.C,C6*%
X204851000Y-65278000D03*
X204851000Y-83278000D03*
%TO.C,C4*%
X227584000Y-43434000D03*
X227584000Y-61434000D03*
%TO.C,C7*%
X227584000Y-65151000D03*
X227584000Y-83151000D03*
%TO.C,C5*%
X251206000Y-43434000D03*
X251206000Y-61434000D03*
%TO.C,C8*%
X251206000Y-65151000D03*
X251206000Y-83151000D03*
D17*
%TO.C,CR1*%
X49022000Y-81483200D03*
X61362000Y-81483200D03*
%TO.C,J2*%
X193907400Y-32227000D03*
X197867400Y-32227000D03*
X201827400Y-32227000D03*
X205787400Y-32227000D03*
X209747400Y-32227000D03*
X213707400Y-32227000D03*
X217667400Y-32227000D03*
X221627400Y-32227000D03*
X225587400Y-32227000D03*
X229547400Y-32227000D03*
%TO.C,J3*%
X234005400Y-32257000D03*
X237965400Y-32257000D03*
X241925400Y-32257000D03*
X245885400Y-32257000D03*
X249845400Y-32257000D03*
X253805400Y-32257000D03*
X257765400Y-32257000D03*
X261725400Y-32257000D03*
X265685400Y-32257000D03*
X269645400Y-32257000D03*
M02*
