%TF.GenerationSoftware,KiCad,Pcbnew,7.0.10*%
%TF.CreationDate,2024-03-23T14:15:06-04:00*%
%TF.ProjectId,MITS 88-2SIO,4d495453-2038-4382-9d32-53494f2e6b69,rev?*%
%TF.SameCoordinates,Original*%
%TF.FileFunction,Copper,L1,Top*%
%TF.FilePolarity,Positive*%
%FSLAX46Y46*%
G04 Gerber Fmt 4.6, Leading zero omitted, Abs format (unit mm)*
G04 Created by KiCad (PCBNEW 7.0.10) date 2024-03-23 14:15:06*
%MOMM*%
%LPD*%
G01*
G04 APERTURE LIST*
%ADD10C,0.150000*%
%TA.AperFunction,NonConductor*%
%ADD11C,0.150000*%
%TD*%
%TA.AperFunction,ComponentPad*%
%ADD12C,1.600000*%
%TD*%
%TA.AperFunction,ComponentPad*%
%ADD13R,1.600000X1.600000*%
%TD*%
%TA.AperFunction,ComponentPad*%
%ADD14O,1.600000X1.600000*%
%TD*%
%TA.AperFunction,ComponentPad*%
%ADD15R,2.400000X2.400000*%
%TD*%
%TA.AperFunction,ComponentPad*%
%ADD16O,2.400000X2.400000*%
%TD*%
%TA.AperFunction,ComponentPad*%
%ADD17C,3.160000*%
%TD*%
%TA.AperFunction,ComponentPad*%
%ADD18C,2.400000*%
%TD*%
%TA.AperFunction,ComponentPad*%
%ADD19R,1.300000X1.300000*%
%TD*%
%TA.AperFunction,ComponentPad*%
%ADD20C,1.300000*%
%TD*%
%TA.AperFunction,ComponentPad*%
%ADD21R,1.800000X1.800000*%
%TD*%
%TA.AperFunction,ComponentPad*%
%ADD22O,1.800000X1.800000*%
%TD*%
%TA.AperFunction,ComponentPad*%
%ADD23R,1.905000X2.000000*%
%TD*%
%TA.AperFunction,ComponentPad*%
%ADD24O,1.905000X2.000000*%
%TD*%
%TA.AperFunction,ConnectorPad*%
%ADD25R,1.778000X5.080000*%
%TD*%
%TA.AperFunction,ComponentPad*%
%ADD26C,2.700000*%
%TD*%
%TA.AperFunction,ViaPad*%
%ADD27C,0.800000*%
%TD*%
%TA.AperFunction,ViaPad*%
%ADD28C,1.524000*%
%TD*%
%TA.AperFunction,Conductor*%
%ADD29C,1.016000*%
%TD*%
%TA.AperFunction,Conductor*%
%ADD30C,0.800000*%
%TD*%
%TA.AperFunction,Conductor*%
%ADD31C,0.250000*%
%TD*%
%TA.AperFunction,Conductor*%
%ADD32C,0.762000*%
%TD*%
%TA.AperFunction,Conductor*%
%ADD33C,1.524000*%
%TD*%
%TA.AperFunction,Conductor*%
%ADD34C,0.500000*%
%TD*%
G04 APERTURE END LIST*
D10*
D11*
G36*
X235577388Y-145163890D02*
G01*
X235600835Y-145164793D01*
X235623948Y-145166298D01*
X235646727Y-145168405D01*
X235669173Y-145171114D01*
X235691286Y-145174424D01*
X235713065Y-145178337D01*
X235734510Y-145182852D01*
X235755623Y-145187968D01*
X235776401Y-145193687D01*
X235796847Y-145200008D01*
X235816958Y-145206930D01*
X235836737Y-145214455D01*
X235856182Y-145222581D01*
X235875293Y-145231310D01*
X235894071Y-145240640D01*
X235903315Y-145245476D01*
X235921430Y-145255478D01*
X235939049Y-145265921D01*
X235964546Y-145282411D01*
X235988927Y-145299892D01*
X236012191Y-145318365D01*
X236034338Y-145337829D01*
X236055369Y-145358284D01*
X236075283Y-145379730D01*
X236094081Y-145402168D01*
X236111761Y-145425597D01*
X236128326Y-145450017D01*
X236138663Y-145466769D01*
X236152918Y-145492430D01*
X236165672Y-145518728D01*
X236176926Y-145545664D01*
X236186680Y-145573238D01*
X236194933Y-145601450D01*
X236201685Y-145630300D01*
X236206937Y-145659787D01*
X236210688Y-145689913D01*
X236212939Y-145720677D01*
X236213689Y-145752079D01*
X236213689Y-145755429D01*
X236213311Y-145777378D01*
X236211327Y-145809649D01*
X236207641Y-145841134D01*
X236202254Y-145871834D01*
X236195165Y-145901748D01*
X236186376Y-145930878D01*
X236175885Y-145959222D01*
X236163693Y-145986782D01*
X236149800Y-146013556D01*
X236134206Y-146039545D01*
X236116911Y-146064749D01*
X236104606Y-146080927D01*
X236085138Y-146104099D01*
X236064458Y-146125956D01*
X236042565Y-146146498D01*
X236019459Y-146165725D01*
X235995141Y-146183637D01*
X235969610Y-146200233D01*
X235951916Y-146210567D01*
X235933682Y-146220316D01*
X235914910Y-146229480D01*
X235895599Y-146238060D01*
X235875749Y-146246056D01*
X235855360Y-146253467D01*
X235855360Y-146260167D01*
X235871113Y-146264411D01*
X235894264Y-146271514D01*
X235916839Y-146279500D01*
X235938838Y-146288369D01*
X235960262Y-146298121D01*
X235981109Y-146308757D01*
X236001381Y-146320276D01*
X236021077Y-146332678D01*
X236040197Y-146345964D01*
X236058742Y-146360133D01*
X236076710Y-146375185D01*
X236088395Y-146385652D01*
X236105303Y-146401867D01*
X236121470Y-146418701D01*
X236136896Y-146436153D01*
X236151580Y-146454223D01*
X236165522Y-146472911D01*
X236178723Y-146492218D01*
X236191183Y-146512143D01*
X236202901Y-146532687D01*
X236213877Y-146553849D01*
X236224112Y-146575629D01*
X236230542Y-146590431D01*
X236239410Y-146612921D01*
X236247345Y-146635755D01*
X236254346Y-146658932D01*
X236260413Y-146682453D01*
X236265548Y-146706317D01*
X236269748Y-146730524D01*
X236273015Y-146755075D01*
X236275349Y-146779970D01*
X236276749Y-146805208D01*
X236277216Y-146830790D01*
X236277216Y-146834140D01*
X236276851Y-146857357D01*
X236275758Y-146880246D01*
X236273936Y-146902809D01*
X236271384Y-146925044D01*
X236266191Y-146957784D01*
X236259357Y-146989788D01*
X236250883Y-147021055D01*
X236240769Y-147051587D01*
X236229015Y-147081382D01*
X236215620Y-147110441D01*
X236200586Y-147138765D01*
X236183911Y-147166352D01*
X236165882Y-147192916D01*
X236146596Y-147218382D01*
X236133040Y-147234748D01*
X236118927Y-147250626D01*
X236104255Y-147266015D01*
X236089025Y-147280916D01*
X236073236Y-147295328D01*
X236056889Y-147309252D01*
X236039984Y-147322687D01*
X236022520Y-147335633D01*
X236004498Y-147348091D01*
X235985918Y-147360060D01*
X235966779Y-147371541D01*
X235947082Y-147382534D01*
X235926827Y-147393037D01*
X235906105Y-147402976D01*
X235885006Y-147412274D01*
X235863531Y-147420930D01*
X235841680Y-147428946D01*
X235819453Y-147436320D01*
X235796850Y-147443052D01*
X235773871Y-147449144D01*
X235750516Y-147454594D01*
X235726785Y-147459403D01*
X235702677Y-147463571D01*
X235678194Y-147467098D01*
X235653334Y-147469983D01*
X235628098Y-147472228D01*
X235602486Y-147473831D01*
X235576498Y-147474793D01*
X235550134Y-147475113D01*
X235523772Y-147474793D01*
X235497790Y-147473831D01*
X235472188Y-147472228D01*
X235446966Y-147469983D01*
X235422123Y-147467098D01*
X235397661Y-147463571D01*
X235373579Y-147459403D01*
X235349877Y-147454594D01*
X235326554Y-147449144D01*
X235303612Y-147443052D01*
X235281050Y-147436320D01*
X235258867Y-147428946D01*
X235237065Y-147420930D01*
X235215643Y-147412274D01*
X235194600Y-147402976D01*
X235173938Y-147393037D01*
X235153799Y-147382534D01*
X235134203Y-147371541D01*
X235115149Y-147360060D01*
X235096639Y-147348091D01*
X235078671Y-147335633D01*
X235061246Y-147322687D01*
X235044364Y-147309252D01*
X235028025Y-147295328D01*
X235012229Y-147280916D01*
X234996975Y-147266015D01*
X234982265Y-147250626D01*
X234968097Y-147234748D01*
X234954472Y-147218382D01*
X234941390Y-147201527D01*
X234928850Y-147184184D01*
X234916854Y-147166352D01*
X234900090Y-147138864D01*
X234884976Y-147110631D01*
X234871510Y-147081652D01*
X234859694Y-147051927D01*
X234849526Y-147021456D01*
X234841007Y-146990239D01*
X234834137Y-146958277D01*
X234828915Y-146925568D01*
X234826350Y-146903348D01*
X234824518Y-146880796D01*
X234823419Y-146857913D01*
X234823053Y-146834698D01*
X234823053Y-146831348D01*
X234823216Y-146817948D01*
X235070211Y-146817948D01*
X235070271Y-146825529D01*
X235071172Y-146847950D01*
X235074057Y-146877097D01*
X235078865Y-146905389D01*
X235085596Y-146932826D01*
X235094250Y-146959408D01*
X235104828Y-146985136D01*
X235117328Y-147010008D01*
X235131752Y-147034025D01*
X235143790Y-147051364D01*
X235161102Y-147073384D01*
X235179857Y-147094147D01*
X235194870Y-147108895D01*
X235210694Y-147122936D01*
X235227329Y-147136271D01*
X235244776Y-147148899D01*
X235263034Y-147160821D01*
X235282103Y-147172035D01*
X235301984Y-147182543D01*
X235315688Y-147189034D01*
X235336688Y-147197985D01*
X235358221Y-147205994D01*
X235380285Y-147213060D01*
X235402882Y-147219184D01*
X235426011Y-147224367D01*
X235449672Y-147228606D01*
X235473865Y-147231904D01*
X235498591Y-147234260D01*
X235523848Y-147235673D01*
X235549638Y-147236144D01*
X235567127Y-147235935D01*
X235592873Y-147234835D01*
X235618035Y-147232794D01*
X235642612Y-147229810D01*
X235666604Y-147225885D01*
X235690012Y-147221017D01*
X235712836Y-147215206D01*
X235735075Y-147208454D01*
X235756730Y-147200759D01*
X235777800Y-147192122D01*
X235798285Y-147182543D01*
X235811627Y-147175617D01*
X235830957Y-147164637D01*
X235849466Y-147152952D01*
X235867156Y-147140559D01*
X235884025Y-147127460D01*
X235900074Y-147113654D01*
X235915304Y-147099142D01*
X235934334Y-147078692D01*
X235951906Y-147056987D01*
X235968020Y-147034025D01*
X235971837Y-147028101D01*
X235985892Y-147003870D01*
X235998009Y-146978784D01*
X236008187Y-146952843D01*
X236016427Y-146926047D01*
X236022727Y-146898396D01*
X236027089Y-146869890D01*
X236029513Y-146840530D01*
X236030058Y-146817948D01*
X236030058Y-146815156D01*
X236029998Y-146807438D01*
X236029096Y-146784622D01*
X236026212Y-146754995D01*
X236021404Y-146726276D01*
X236014672Y-146698463D01*
X236006018Y-146671558D01*
X235995441Y-146645561D01*
X235982940Y-146620470D01*
X235968516Y-146596287D01*
X235956652Y-146578844D01*
X235939529Y-146556685D01*
X235920918Y-146535782D01*
X235905982Y-146520929D01*
X235890209Y-146506783D01*
X235873599Y-146493344D01*
X235856151Y-146480611D01*
X235837865Y-146468585D01*
X235818742Y-146457265D01*
X235798781Y-146446652D01*
X235785129Y-146440027D01*
X235764171Y-146430889D01*
X235742637Y-146422714D01*
X235720528Y-146415500D01*
X235697842Y-146409248D01*
X235674581Y-146403958D01*
X235650744Y-146399630D01*
X235626331Y-146396263D01*
X235601343Y-146393859D01*
X235575778Y-146392416D01*
X235549638Y-146391935D01*
X235532266Y-146392149D01*
X235506665Y-146393271D01*
X235481614Y-146395355D01*
X235457112Y-146398401D01*
X235433160Y-146402408D01*
X235409758Y-146407378D01*
X235386905Y-146413309D01*
X235364602Y-146420202D01*
X235342849Y-146428057D01*
X235321645Y-146436874D01*
X235300991Y-146446652D01*
X235287649Y-146453649D01*
X235268319Y-146464733D01*
X235249810Y-146476524D01*
X235232120Y-146489021D01*
X235215251Y-146502225D01*
X235199202Y-146516135D01*
X235183972Y-146530752D01*
X235164942Y-146551341D01*
X235147370Y-146573186D01*
X235131256Y-146596287D01*
X235123864Y-146608266D01*
X235110510Y-146632902D01*
X235099064Y-146658446D01*
X235089526Y-146684898D01*
X235081895Y-146712256D01*
X235076172Y-146740522D01*
X235072357Y-146769695D01*
X235070747Y-146792171D01*
X235070211Y-146815156D01*
X235070211Y-146817948D01*
X234823216Y-146817948D01*
X234823262Y-146814190D01*
X234824361Y-146788756D01*
X234826403Y-146763684D01*
X234829386Y-146738976D01*
X234833312Y-146714631D01*
X234838180Y-146690649D01*
X234843990Y-146667031D01*
X234850743Y-146643775D01*
X234858437Y-146620883D01*
X234867074Y-146598353D01*
X234876653Y-146576187D01*
X234883582Y-146561598D01*
X234894601Y-146540230D01*
X234906369Y-146519481D01*
X234918888Y-146499350D01*
X234932158Y-146479837D01*
X234946177Y-146460942D01*
X234960947Y-146442666D01*
X234976467Y-146425008D01*
X234992737Y-146407968D01*
X235009758Y-146391546D01*
X235027529Y-146375743D01*
X235039746Y-146365610D01*
X235058523Y-146351147D01*
X235077841Y-146337567D01*
X235097700Y-146324870D01*
X235118100Y-146313057D01*
X235139041Y-146302127D01*
X235160522Y-146292080D01*
X235182545Y-146282916D01*
X235205108Y-146274636D01*
X235228212Y-146267239D01*
X235251857Y-146260726D01*
X235251857Y-146254025D01*
X235241655Y-146250393D01*
X235221644Y-146242690D01*
X235202157Y-146234402D01*
X235183193Y-146225529D01*
X235164752Y-146216073D01*
X235146835Y-146206031D01*
X235120940Y-146189873D01*
X235096223Y-146172400D01*
X235072685Y-146153612D01*
X235050323Y-146133508D01*
X235029140Y-146112090D01*
X235009134Y-146089356D01*
X234990306Y-146065307D01*
X234978587Y-146048589D01*
X234962426Y-146022851D01*
X234947966Y-145996317D01*
X234935207Y-145968988D01*
X234924149Y-145940865D01*
X234914792Y-145911946D01*
X234907137Y-145882233D01*
X234901183Y-145851724D01*
X234896930Y-145820421D01*
X234894378Y-145788322D01*
X234894163Y-145779996D01*
X235140686Y-145779996D01*
X235141500Y-145806839D01*
X235143943Y-145832933D01*
X235148014Y-145858276D01*
X235153714Y-145882870D01*
X235161042Y-145906712D01*
X235169998Y-145929805D01*
X235180584Y-145952147D01*
X235192797Y-145973739D01*
X235206577Y-145994241D01*
X235221614Y-146013591D01*
X235237906Y-146031789D01*
X235255455Y-146048836D01*
X235274260Y-146064731D01*
X235294322Y-146079475D01*
X235315640Y-146093067D01*
X235338214Y-146105507D01*
X235355873Y-146113989D01*
X235380218Y-146124000D01*
X235405479Y-146132527D01*
X235425026Y-146137950D01*
X235445087Y-146142538D01*
X235465662Y-146146292D01*
X235486753Y-146149212D01*
X235508358Y-146151298D01*
X235530478Y-146152549D01*
X235553112Y-146152966D01*
X235575924Y-146152549D01*
X235598204Y-146151298D01*
X235619951Y-146149212D01*
X235641167Y-146146292D01*
X235661850Y-146142538D01*
X235682001Y-146137950D01*
X235701620Y-146132527D01*
X235720707Y-146126271D01*
X235745328Y-146116630D01*
X235769003Y-146105507D01*
X235791569Y-146093067D01*
X235812864Y-146079475D01*
X235832887Y-146064731D01*
X235851637Y-146048836D01*
X235869117Y-146031789D01*
X235885324Y-146013591D01*
X235900259Y-145994241D01*
X235913923Y-145973739D01*
X235926253Y-145952147D01*
X235936939Y-145929805D01*
X235945981Y-145906712D01*
X235953379Y-145882870D01*
X235959133Y-145858276D01*
X235963243Y-145832933D01*
X235965709Y-145806839D01*
X235966531Y-145779996D01*
X235966531Y-145776087D01*
X235965709Y-145749252D01*
X235963243Y-145723185D01*
X235959133Y-145697885D01*
X235953379Y-145673353D01*
X235945981Y-145649588D01*
X235936939Y-145626592D01*
X235926253Y-145604363D01*
X235913923Y-145582902D01*
X235900259Y-145562269D01*
X235885324Y-145542806D01*
X235869117Y-145524512D01*
X235851637Y-145507386D01*
X235832887Y-145491430D01*
X235812864Y-145476643D01*
X235791569Y-145463025D01*
X235769003Y-145450575D01*
X235745328Y-145439321D01*
X235720707Y-145429568D01*
X235701620Y-145423238D01*
X235682001Y-145417751D01*
X235661850Y-145413109D01*
X235641167Y-145409311D01*
X235619951Y-145406357D01*
X235598204Y-145404246D01*
X235575924Y-145402980D01*
X235553112Y-145402558D01*
X235537965Y-145402746D01*
X235515674Y-145403731D01*
X235493897Y-145405559D01*
X235472635Y-145408232D01*
X235451888Y-145411749D01*
X235431655Y-145416110D01*
X235411938Y-145421315D01*
X235386448Y-145429568D01*
X235361873Y-145439321D01*
X235338214Y-145450575D01*
X235315640Y-145463025D01*
X235294322Y-145476643D01*
X235274260Y-145491430D01*
X235255455Y-145507386D01*
X235237906Y-145524512D01*
X235221614Y-145542806D01*
X235206577Y-145562269D01*
X235192797Y-145582902D01*
X235180584Y-145604363D01*
X235169998Y-145626592D01*
X235161042Y-145649588D01*
X235153714Y-145673353D01*
X235148014Y-145697885D01*
X235143943Y-145723185D01*
X235141500Y-145749252D01*
X235140686Y-145776087D01*
X235140686Y-145779996D01*
X234894163Y-145779996D01*
X234893527Y-145755429D01*
X234893527Y-145752079D01*
X234893861Y-145731141D01*
X234895612Y-145700258D01*
X234898863Y-145670003D01*
X234903614Y-145640376D01*
X234909867Y-145611377D01*
X234917619Y-145583007D01*
X234926873Y-145555264D01*
X234937627Y-145528150D01*
X234949881Y-145501663D01*
X234963636Y-145475805D01*
X234978891Y-145450575D01*
X234989812Y-145434183D01*
X235007131Y-145410412D01*
X235025575Y-145387623D01*
X235045144Y-145365815D01*
X235065839Y-145344988D01*
X235087659Y-145325143D01*
X235110605Y-145306280D01*
X235134676Y-145288398D01*
X235159873Y-145271497D01*
X235177296Y-145260775D01*
X235195219Y-145250489D01*
X235213642Y-145240640D01*
X235232534Y-145231310D01*
X235251741Y-145222581D01*
X235271261Y-145214455D01*
X235291096Y-145206930D01*
X235311245Y-145200008D01*
X235331707Y-145193687D01*
X235352484Y-145187968D01*
X235373575Y-145182852D01*
X235394980Y-145178337D01*
X235416699Y-145174424D01*
X235438732Y-145171114D01*
X235461079Y-145168405D01*
X235483740Y-145166298D01*
X235506716Y-145164793D01*
X235530005Y-145163890D01*
X235553608Y-145163589D01*
X235577388Y-145163890D01*
G37*
G36*
X237282680Y-145163890D02*
G01*
X237306126Y-145164793D01*
X237329239Y-145166298D01*
X237352019Y-145168405D01*
X237374465Y-145171114D01*
X237396577Y-145174424D01*
X237418357Y-145178337D01*
X237439802Y-145182852D01*
X237460914Y-145187968D01*
X237481693Y-145193687D01*
X237502138Y-145200008D01*
X237522250Y-145206930D01*
X237542029Y-145214455D01*
X237561474Y-145222581D01*
X237580585Y-145231310D01*
X237599363Y-145240640D01*
X237608607Y-145245476D01*
X237626722Y-145255478D01*
X237644340Y-145265921D01*
X237669838Y-145282411D01*
X237694219Y-145299892D01*
X237717483Y-145318365D01*
X237739630Y-145337829D01*
X237760661Y-145358284D01*
X237780575Y-145379730D01*
X237799373Y-145402168D01*
X237817053Y-145425597D01*
X237833617Y-145450017D01*
X237843954Y-145466769D01*
X237858209Y-145492430D01*
X237870964Y-145518728D01*
X237882218Y-145545664D01*
X237891972Y-145573238D01*
X237900225Y-145601450D01*
X237906977Y-145630300D01*
X237912229Y-145659787D01*
X237915980Y-145689913D01*
X237918231Y-145720677D01*
X237918981Y-145752079D01*
X237918981Y-145755429D01*
X237918603Y-145777378D01*
X237916618Y-145809649D01*
X237912933Y-145841134D01*
X237907545Y-145871834D01*
X237900457Y-145901748D01*
X237891668Y-145930878D01*
X237881177Y-145959222D01*
X237868985Y-145986782D01*
X237855092Y-146013556D01*
X237839498Y-146039545D01*
X237822202Y-146064749D01*
X237809898Y-146080927D01*
X237790430Y-146104099D01*
X237769750Y-146125956D01*
X237747857Y-146146498D01*
X237724751Y-146165725D01*
X237700433Y-146183637D01*
X237674902Y-146200233D01*
X237657207Y-146210567D01*
X237638974Y-146220316D01*
X237620202Y-146229480D01*
X237600891Y-146238060D01*
X237581041Y-146246056D01*
X237560652Y-146253467D01*
X237560652Y-146260167D01*
X237576405Y-146264411D01*
X237599556Y-146271514D01*
X237622131Y-146279500D01*
X237644130Y-146288369D01*
X237665553Y-146298121D01*
X237686401Y-146308757D01*
X237706673Y-146320276D01*
X237726369Y-146332678D01*
X237745489Y-146345964D01*
X237764033Y-146360133D01*
X237782002Y-146375185D01*
X237793686Y-146385652D01*
X237810595Y-146401867D01*
X237826762Y-146418701D01*
X237842188Y-146436153D01*
X237856872Y-146454223D01*
X237870814Y-146472911D01*
X237884015Y-146492218D01*
X237896475Y-146512143D01*
X237908192Y-146532687D01*
X237919169Y-146553849D01*
X237929404Y-146575629D01*
X237935834Y-146590431D01*
X237944702Y-146612921D01*
X237952637Y-146635755D01*
X237959638Y-146658932D01*
X237965705Y-146682453D01*
X237970839Y-146706317D01*
X237975040Y-146730524D01*
X237978307Y-146755075D01*
X237980641Y-146779970D01*
X237982041Y-146805208D01*
X237982508Y-146830790D01*
X237982508Y-146834140D01*
X237982143Y-146857357D01*
X237981050Y-146880246D01*
X237979228Y-146902809D01*
X237976676Y-146925044D01*
X237971483Y-146957784D01*
X237964649Y-146989788D01*
X237956175Y-147021055D01*
X237946061Y-147051587D01*
X237934306Y-147081382D01*
X237920912Y-147110441D01*
X237905878Y-147138765D01*
X237889203Y-147166352D01*
X237871173Y-147192916D01*
X237851887Y-147218382D01*
X237838332Y-147234748D01*
X237824219Y-147250626D01*
X237809547Y-147266015D01*
X237794316Y-147280916D01*
X237778528Y-147295328D01*
X237762181Y-147309252D01*
X237745276Y-147322687D01*
X237727812Y-147335633D01*
X237709790Y-147348091D01*
X237691210Y-147360060D01*
X237672071Y-147371541D01*
X237652374Y-147382534D01*
X237632119Y-147393037D01*
X237611396Y-147402976D01*
X237590298Y-147412274D01*
X237568823Y-147420930D01*
X237546972Y-147428946D01*
X237524745Y-147436320D01*
X237502142Y-147443052D01*
X237479163Y-147449144D01*
X237455808Y-147454594D01*
X237432077Y-147459403D01*
X237407969Y-147463571D01*
X237383486Y-147467098D01*
X237358626Y-147469983D01*
X237333390Y-147472228D01*
X237307778Y-147473831D01*
X237281790Y-147474793D01*
X237255426Y-147475113D01*
X237229064Y-147474793D01*
X237203082Y-147473831D01*
X237177480Y-147472228D01*
X237152257Y-147469983D01*
X237127415Y-147467098D01*
X237102953Y-147463571D01*
X237078871Y-147459403D01*
X237055169Y-147454594D01*
X237031846Y-147449144D01*
X237008904Y-147443052D01*
X236986342Y-147436320D01*
X236964159Y-147428946D01*
X236942357Y-147420930D01*
X236920934Y-147412274D01*
X236899892Y-147402976D01*
X236879230Y-147393037D01*
X236859091Y-147382534D01*
X236839495Y-147371541D01*
X236820441Y-147360060D01*
X236801931Y-147348091D01*
X236783963Y-147335633D01*
X236766538Y-147322687D01*
X236749656Y-147309252D01*
X236733317Y-147295328D01*
X236717521Y-147280916D01*
X236702267Y-147266015D01*
X236687556Y-147250626D01*
X236673389Y-147234748D01*
X236659764Y-147218382D01*
X236646681Y-147201527D01*
X236634142Y-147184184D01*
X236622145Y-147166352D01*
X236605382Y-147138864D01*
X236590268Y-147110631D01*
X236576802Y-147081652D01*
X236564986Y-147051927D01*
X236554818Y-147021456D01*
X236546299Y-146990239D01*
X236539428Y-146958277D01*
X236534207Y-146925568D01*
X236531642Y-146903348D01*
X236529810Y-146880796D01*
X236528711Y-146857913D01*
X236528345Y-146834698D01*
X236528345Y-146831348D01*
X236528508Y-146817948D01*
X236775503Y-146817948D01*
X236775563Y-146825529D01*
X236776464Y-146847950D01*
X236779349Y-146877097D01*
X236784157Y-146905389D01*
X236790888Y-146932826D01*
X236799542Y-146959408D01*
X236810120Y-146985136D01*
X236822620Y-147010008D01*
X236837044Y-147034025D01*
X236849082Y-147051364D01*
X236866394Y-147073384D01*
X236885149Y-147094147D01*
X236900162Y-147108895D01*
X236915986Y-147122936D01*
X236932621Y-147136271D01*
X236950067Y-147148899D01*
X236968325Y-147160821D01*
X236987395Y-147172035D01*
X237007275Y-147182543D01*
X237020980Y-147189034D01*
X237041980Y-147197985D01*
X237063513Y-147205994D01*
X237085577Y-147213060D01*
X237108174Y-147219184D01*
X237131303Y-147224367D01*
X237154964Y-147228606D01*
X237179157Y-147231904D01*
X237203883Y-147234260D01*
X237229140Y-147235673D01*
X237254930Y-147236144D01*
X237272419Y-147235935D01*
X237298165Y-147234835D01*
X237323326Y-147232794D01*
X237347904Y-147229810D01*
X237371896Y-147225885D01*
X237395304Y-147221017D01*
X237418128Y-147215206D01*
X237440367Y-147208454D01*
X237462021Y-147200759D01*
X237483091Y-147192122D01*
X237503577Y-147182543D01*
X237516919Y-147175617D01*
X237536248Y-147164637D01*
X237554758Y-147152952D01*
X237572447Y-147140559D01*
X237589317Y-147127460D01*
X237605366Y-147113654D01*
X237620595Y-147099142D01*
X237639626Y-147078692D01*
X237657198Y-147056987D01*
X237673312Y-147034025D01*
X237677129Y-147028101D01*
X237691184Y-147003870D01*
X237703301Y-146978784D01*
X237713479Y-146952843D01*
X237721718Y-146926047D01*
X237728019Y-146898396D01*
X237732381Y-146869890D01*
X237734804Y-146840530D01*
X237735350Y-146817948D01*
X237735350Y-146815156D01*
X237735290Y-146807438D01*
X237734388Y-146784622D01*
X237731503Y-146754995D01*
X237726695Y-146726276D01*
X237719964Y-146698463D01*
X237711310Y-146671558D01*
X237700733Y-146645561D01*
X237688232Y-146620470D01*
X237673808Y-146596287D01*
X237661944Y-146578844D01*
X237644821Y-146556685D01*
X237626210Y-146535782D01*
X237611274Y-146520929D01*
X237595501Y-146506783D01*
X237578891Y-146493344D01*
X237561443Y-146480611D01*
X237543157Y-146468585D01*
X237524034Y-146457265D01*
X237504073Y-146446652D01*
X237490421Y-146440027D01*
X237469463Y-146430889D01*
X237447929Y-146422714D01*
X237425819Y-146415500D01*
X237403134Y-146409248D01*
X237379873Y-146403958D01*
X237356036Y-146399630D01*
X237331623Y-146396263D01*
X237306634Y-146393859D01*
X237281070Y-146392416D01*
X237254930Y-146391935D01*
X237237557Y-146392149D01*
X237211957Y-146393271D01*
X237186906Y-146395355D01*
X237162404Y-146398401D01*
X237138452Y-146402408D01*
X237115050Y-146407378D01*
X237092197Y-146413309D01*
X237069894Y-146420202D01*
X237048141Y-146428057D01*
X237026937Y-146436874D01*
X237006283Y-146446652D01*
X236992941Y-146453649D01*
X236973611Y-146464733D01*
X236955102Y-146476524D01*
X236937412Y-146489021D01*
X236920543Y-146502225D01*
X236904494Y-146516135D01*
X236889264Y-146530752D01*
X236870234Y-146551341D01*
X236852662Y-146573186D01*
X236836548Y-146596287D01*
X236829156Y-146608266D01*
X236815802Y-146632902D01*
X236804356Y-146658446D01*
X236794818Y-146684898D01*
X236787187Y-146712256D01*
X236781464Y-146740522D01*
X236777649Y-146769695D01*
X236776039Y-146792171D01*
X236775503Y-146815156D01*
X236775503Y-146817948D01*
X236528508Y-146817948D01*
X236528554Y-146814190D01*
X236529653Y-146788756D01*
X236531695Y-146763684D01*
X236534678Y-146738976D01*
X236538604Y-146714631D01*
X236543472Y-146690649D01*
X236549282Y-146667031D01*
X236556035Y-146643775D01*
X236563729Y-146620883D01*
X236572366Y-146598353D01*
X236581945Y-146576187D01*
X236588874Y-146561598D01*
X236599892Y-146540230D01*
X236611661Y-146519481D01*
X236624180Y-146499350D01*
X236637449Y-146479837D01*
X236651469Y-146460942D01*
X236666239Y-146442666D01*
X236681759Y-146425008D01*
X236698029Y-146407968D01*
X236715050Y-146391546D01*
X236732821Y-146375743D01*
X236745038Y-146365610D01*
X236763815Y-146351147D01*
X236783133Y-146337567D01*
X236802992Y-146324870D01*
X236823392Y-146313057D01*
X236844332Y-146302127D01*
X236865814Y-146292080D01*
X236887836Y-146282916D01*
X236910400Y-146274636D01*
X236933504Y-146267239D01*
X236957149Y-146260726D01*
X236957149Y-146254025D01*
X236946947Y-146250393D01*
X236926936Y-146242690D01*
X236907449Y-146234402D01*
X236888484Y-146225529D01*
X236870044Y-146216073D01*
X236852126Y-146206031D01*
X236826232Y-146189873D01*
X236801515Y-146172400D01*
X236777976Y-146153612D01*
X236755615Y-146133508D01*
X236734432Y-146112090D01*
X236714426Y-146089356D01*
X236695598Y-146065307D01*
X236683879Y-146048589D01*
X236667717Y-146022851D01*
X236653257Y-145996317D01*
X236640498Y-145968988D01*
X236629441Y-145940865D01*
X236620084Y-145911946D01*
X236612429Y-145882233D01*
X236606475Y-145851724D01*
X236602222Y-145820421D01*
X236599670Y-145788322D01*
X236599455Y-145779996D01*
X236845977Y-145779996D01*
X236846792Y-145806839D01*
X236849234Y-145832933D01*
X236853306Y-145858276D01*
X236859005Y-145882870D01*
X236866334Y-145906712D01*
X236875290Y-145929805D01*
X236885875Y-145952147D01*
X236898089Y-145973739D01*
X236911869Y-145994241D01*
X236926906Y-146013591D01*
X236943198Y-146031789D01*
X236960747Y-146048836D01*
X236979552Y-146064731D01*
X236999614Y-146079475D01*
X237020931Y-146093067D01*
X237043505Y-146105507D01*
X237061164Y-146113989D01*
X237085510Y-146124000D01*
X237110771Y-146132527D01*
X237130317Y-146137950D01*
X237150378Y-146142538D01*
X237170954Y-146146292D01*
X237192044Y-146149212D01*
X237213650Y-146151298D01*
X237235769Y-146152549D01*
X237258404Y-146152966D01*
X237281216Y-146152549D01*
X237303496Y-146151298D01*
X237325243Y-146149212D01*
X237346459Y-146146292D01*
X237367142Y-146142538D01*
X237387293Y-146137950D01*
X237406912Y-146132527D01*
X237425999Y-146126271D01*
X237450620Y-146116630D01*
X237474295Y-146105507D01*
X237496861Y-146093067D01*
X237518156Y-146079475D01*
X237538178Y-146064731D01*
X237556929Y-146048836D01*
X237574408Y-146031789D01*
X237590616Y-146013591D01*
X237605551Y-145994241D01*
X237619215Y-145973739D01*
X237631545Y-145952147D01*
X237642231Y-145929805D01*
X237651273Y-145906712D01*
X237658671Y-145882870D01*
X237664425Y-145858276D01*
X237668535Y-145832933D01*
X237671001Y-145806839D01*
X237671823Y-145779996D01*
X237671823Y-145776087D01*
X237671001Y-145749252D01*
X237668535Y-145723185D01*
X237664425Y-145697885D01*
X237658671Y-145673353D01*
X237651273Y-145649588D01*
X237642231Y-145626592D01*
X237631545Y-145604363D01*
X237619215Y-145582902D01*
X237605551Y-145562269D01*
X237590616Y-145542806D01*
X237574408Y-145524512D01*
X237556929Y-145507386D01*
X237538178Y-145491430D01*
X237518156Y-145476643D01*
X237496861Y-145463025D01*
X237474295Y-145450575D01*
X237450620Y-145439321D01*
X237425999Y-145429568D01*
X237406912Y-145423238D01*
X237387293Y-145417751D01*
X237367142Y-145413109D01*
X237346459Y-145409311D01*
X237325243Y-145406357D01*
X237303496Y-145404246D01*
X237281216Y-145402980D01*
X237258404Y-145402558D01*
X237243257Y-145402746D01*
X237220966Y-145403731D01*
X237199189Y-145405559D01*
X237177927Y-145408232D01*
X237157180Y-145411749D01*
X237136947Y-145416110D01*
X237117229Y-145421315D01*
X237091740Y-145429568D01*
X237067165Y-145439321D01*
X237043505Y-145450575D01*
X237020931Y-145463025D01*
X236999614Y-145476643D01*
X236979552Y-145491430D01*
X236960747Y-145507386D01*
X236943198Y-145524512D01*
X236926906Y-145542806D01*
X236911869Y-145562269D01*
X236898089Y-145582902D01*
X236885875Y-145604363D01*
X236875290Y-145626592D01*
X236866334Y-145649588D01*
X236859005Y-145673353D01*
X236853306Y-145697885D01*
X236849234Y-145723185D01*
X236846792Y-145749252D01*
X236845977Y-145776087D01*
X236845977Y-145779996D01*
X236599455Y-145779996D01*
X236598819Y-145755429D01*
X236598819Y-145752079D01*
X236599153Y-145731141D01*
X236600903Y-145700258D01*
X236604155Y-145670003D01*
X236608906Y-145640376D01*
X236615158Y-145611377D01*
X236622911Y-145583007D01*
X236632165Y-145555264D01*
X236642918Y-145528150D01*
X236655173Y-145501663D01*
X236668928Y-145475805D01*
X236684183Y-145450575D01*
X236695104Y-145434183D01*
X236712422Y-145410412D01*
X236730867Y-145387623D01*
X236750436Y-145365815D01*
X236771131Y-145344988D01*
X236792951Y-145325143D01*
X236815897Y-145306280D01*
X236839968Y-145288398D01*
X236865165Y-145271497D01*
X236882587Y-145260775D01*
X236900511Y-145250489D01*
X236918934Y-145240640D01*
X236937826Y-145231310D01*
X236957033Y-145222581D01*
X236976553Y-145214455D01*
X236996388Y-145206930D01*
X237016536Y-145200008D01*
X237036999Y-145193687D01*
X237057776Y-145187968D01*
X237078867Y-145182852D01*
X237100272Y-145178337D01*
X237121991Y-145174424D01*
X237144024Y-145171114D01*
X237166371Y-145168405D01*
X237189032Y-145166298D01*
X237212008Y-145164793D01*
X237235297Y-145163890D01*
X237258900Y-145163589D01*
X237282680Y-145163890D01*
G37*
G36*
X238265400Y-146653238D02*
G01*
X239154772Y-146653238D01*
X239154772Y-146414269D01*
X238265400Y-146414269D01*
X238265400Y-146653238D01*
G37*
G36*
X239484316Y-147439380D02*
G01*
X240818374Y-147439380D01*
X240818374Y-147200410D01*
X239767704Y-147200410D01*
X239833712Y-147275228D01*
X239833712Y-147104934D01*
X239767704Y-147275228D01*
X240317606Y-146643188D01*
X240340359Y-146617003D01*
X240362459Y-146591350D01*
X240383909Y-146566229D01*
X240404707Y-146541640D01*
X240424854Y-146517583D01*
X240444349Y-146494059D01*
X240463193Y-146471067D01*
X240481386Y-146448607D01*
X240498927Y-146426679D01*
X240515817Y-146405283D01*
X240532055Y-146384419D01*
X240547642Y-146364088D01*
X240562578Y-146344289D01*
X240576862Y-146325022D01*
X240590494Y-146306287D01*
X240603476Y-146288084D01*
X240615895Y-146270191D01*
X240633637Y-146243777D01*
X240650314Y-146217873D01*
X240665927Y-146192480D01*
X240680476Y-146167596D01*
X240693961Y-146143224D01*
X240706381Y-146119361D01*
X240717737Y-146096009D01*
X240728028Y-146073167D01*
X240737255Y-146050836D01*
X240745418Y-146029015D01*
X240752780Y-146007375D01*
X240759417Y-145985589D01*
X240765331Y-145963655D01*
X240770520Y-145941574D01*
X240774985Y-145919345D01*
X240778726Y-145896970D01*
X240781744Y-145874447D01*
X240784037Y-145851777D01*
X240785605Y-145828960D01*
X240786450Y-145805995D01*
X240786611Y-145790604D01*
X240786611Y-145787812D01*
X240785896Y-145755135D01*
X240783750Y-145723056D01*
X240780173Y-145691576D01*
X240775165Y-145660694D01*
X240768727Y-145630411D01*
X240760858Y-145600727D01*
X240751558Y-145571642D01*
X240740827Y-145543155D01*
X240728666Y-145515267D01*
X240715074Y-145487978D01*
X240705218Y-145470117D01*
X240689424Y-145444051D01*
X240672566Y-145419036D01*
X240654644Y-145395070D01*
X240635658Y-145372155D01*
X240615607Y-145350290D01*
X240594492Y-145329475D01*
X240572313Y-145309710D01*
X240549069Y-145290995D01*
X240524761Y-145273331D01*
X240499388Y-145256716D01*
X240481882Y-145246223D01*
X240464044Y-145236217D01*
X240445892Y-145226856D01*
X240427426Y-145218141D01*
X240408646Y-145210071D01*
X240389552Y-145202647D01*
X240370144Y-145195868D01*
X240350422Y-145189735D01*
X240330386Y-145184248D01*
X240310036Y-145179406D01*
X240289371Y-145175210D01*
X240268393Y-145171659D01*
X240247100Y-145168754D01*
X240225494Y-145166494D01*
X240203573Y-145164880D01*
X240181338Y-145163912D01*
X240158790Y-145163589D01*
X240135592Y-145163934D01*
X240112649Y-145164968D01*
X240089963Y-145166691D01*
X240067532Y-145169103D01*
X240045358Y-145172204D01*
X240023439Y-145175995D01*
X240001776Y-145180475D01*
X239980369Y-145185644D01*
X239959218Y-145191502D01*
X239938323Y-145198049D01*
X239917684Y-145205286D01*
X239897301Y-145213212D01*
X239877174Y-145221827D01*
X239857302Y-145231131D01*
X239837687Y-145241124D01*
X239818327Y-145251807D01*
X239799403Y-145263089D01*
X239780972Y-145274882D01*
X239763034Y-145287185D01*
X239745588Y-145299998D01*
X239728634Y-145313322D01*
X239712173Y-145327156D01*
X239696204Y-145341501D01*
X239680727Y-145356356D01*
X239665743Y-145371721D01*
X239651252Y-145387597D01*
X239637252Y-145403982D01*
X239623746Y-145420879D01*
X239610731Y-145438285D01*
X239598209Y-145456202D01*
X239586180Y-145474630D01*
X239574643Y-145493568D01*
X239563705Y-145512854D01*
X239553473Y-145532468D01*
X239543946Y-145552409D01*
X239535125Y-145572677D01*
X239527010Y-145593273D01*
X239519600Y-145614195D01*
X239512896Y-145635445D01*
X239506898Y-145657021D01*
X239501605Y-145678925D01*
X239497018Y-145701156D01*
X239493137Y-145723715D01*
X239489961Y-145746600D01*
X239487492Y-145769812D01*
X239485727Y-145793352D01*
X239484669Y-145817219D01*
X239484316Y-145841413D01*
X239731474Y-145841413D01*
X239731474Y-145833596D01*
X239731971Y-145811189D01*
X239734182Y-145781955D01*
X239738160Y-145753454D01*
X239743906Y-145725685D01*
X239751420Y-145698649D01*
X239760703Y-145672346D01*
X239771753Y-145646776D01*
X239784572Y-145621939D01*
X239788053Y-145615844D01*
X239802965Y-145592045D01*
X239819164Y-145569502D01*
X239836651Y-145548215D01*
X239855425Y-145528185D01*
X239875487Y-145509410D01*
X239896836Y-145491893D01*
X239913692Y-145479579D01*
X239931272Y-145467971D01*
X239943395Y-145460626D01*
X239962056Y-145450248D01*
X239981187Y-145440892D01*
X240000790Y-145432556D01*
X240020864Y-145425241D01*
X240041410Y-145418946D01*
X240062426Y-145413673D01*
X240083913Y-145409420D01*
X240105872Y-145406187D01*
X240128301Y-145403976D01*
X240151202Y-145402785D01*
X240166731Y-145402558D01*
X240186981Y-145403005D01*
X240213288Y-145404990D01*
X240238805Y-145408562D01*
X240263531Y-145413722D01*
X240287466Y-145420470D01*
X240310610Y-145428806D01*
X240332963Y-145438730D01*
X240354525Y-145450241D01*
X240359792Y-145453367D01*
X240380194Y-145466540D01*
X240399465Y-145480935D01*
X240417603Y-145496551D01*
X240434609Y-145513389D01*
X240450483Y-145531447D01*
X240465225Y-145550728D01*
X240478834Y-145571229D01*
X240491312Y-145592952D01*
X240502595Y-145615573D01*
X240512374Y-145639050D01*
X240520648Y-145663381D01*
X240527418Y-145688568D01*
X240532683Y-145714609D01*
X240536444Y-145741505D01*
X240538701Y-145769256D01*
X240539453Y-145797862D01*
X240539453Y-145800654D01*
X240539019Y-145823930D01*
X240537716Y-145846857D01*
X240535545Y-145869435D01*
X240532505Y-145891663D01*
X240527484Y-145918959D01*
X240521105Y-145945709D01*
X240513370Y-145971914D01*
X240511660Y-145977089D01*
X240504130Y-145998079D01*
X240495189Y-146019732D01*
X240484837Y-146042049D01*
X240473073Y-146065028D01*
X240459897Y-146088670D01*
X240445311Y-146112975D01*
X240433445Y-146131639D01*
X240420785Y-146150676D01*
X240411903Y-146163575D01*
X240397737Y-146183438D01*
X240382410Y-146204292D01*
X240365923Y-146226137D01*
X240348276Y-146248974D01*
X240329468Y-146272802D01*
X240309501Y-146297622D01*
X240295544Y-146314719D01*
X240281072Y-146332256D01*
X240266084Y-146350234D01*
X240250580Y-146368653D01*
X240234561Y-146387512D01*
X240218026Y-146406812D01*
X240200975Y-146426552D01*
X239484316Y-147254011D01*
X239484316Y-147439380D01*
G37*
G36*
X243541084Y-147475113D02*
G01*
X243569251Y-147474801D01*
X243596926Y-147473866D01*
X243624108Y-147472306D01*
X243650798Y-147470123D01*
X243676995Y-147467316D01*
X243702700Y-147463885D01*
X243727913Y-147459831D01*
X243752633Y-147455153D01*
X243776860Y-147449851D01*
X243800596Y-147443925D01*
X243823838Y-147437375D01*
X243846589Y-147430202D01*
X243868847Y-147422405D01*
X243890612Y-147413984D01*
X243911885Y-147404939D01*
X243932666Y-147395271D01*
X243952906Y-147385029D01*
X243972556Y-147374263D01*
X243991617Y-147362974D01*
X244010089Y-147351162D01*
X244027971Y-147338826D01*
X244045264Y-147325967D01*
X244061968Y-147312584D01*
X244078082Y-147298678D01*
X244093607Y-147284248D01*
X244108543Y-147269295D01*
X244122889Y-147253819D01*
X244143303Y-147229623D01*
X244162392Y-147204249D01*
X244180154Y-147177697D01*
X244185780Y-147168585D01*
X244201656Y-147140486D01*
X244215971Y-147111464D01*
X244228724Y-147081520D01*
X244239915Y-147050653D01*
X244246509Y-147029563D01*
X244252408Y-147008063D01*
X244257614Y-146986152D01*
X244262125Y-146963832D01*
X244265942Y-146941101D01*
X244269065Y-146917961D01*
X244271495Y-146894410D01*
X244273230Y-146870449D01*
X244274271Y-146846079D01*
X244274618Y-146821298D01*
X244274618Y-146819623D01*
X244274086Y-146787811D01*
X244272489Y-146756862D01*
X244269828Y-146726777D01*
X244266103Y-146697556D01*
X244261314Y-146669199D01*
X244255460Y-146641705D01*
X244248542Y-146615075D01*
X244240559Y-146589308D01*
X244231512Y-146564405D01*
X244221401Y-146540366D01*
X244214069Y-146524820D01*
X244202212Y-146502142D01*
X244189159Y-146480170D01*
X244174911Y-146458905D01*
X244159468Y-146438347D01*
X244142830Y-146418496D01*
X244124996Y-146399351D01*
X244105968Y-146380912D01*
X244085744Y-146363181D01*
X244064325Y-146346156D01*
X244041711Y-146329837D01*
X244025971Y-146319351D01*
X244001375Y-146304042D01*
X243975418Y-146289312D01*
X243957357Y-146279814D01*
X243938691Y-146270573D01*
X243919421Y-146261589D01*
X243899546Y-146252863D01*
X243879066Y-146244394D01*
X243857980Y-146236183D01*
X243836291Y-146228228D01*
X243813996Y-146220532D01*
X243791096Y-146213092D01*
X243767592Y-146205910D01*
X243743482Y-146198985D01*
X243718768Y-146192318D01*
X243693449Y-146185908D01*
X243472098Y-146131191D01*
X243448208Y-146124972D01*
X243425111Y-146118458D01*
X243402808Y-146111650D01*
X243381298Y-146104548D01*
X243360583Y-146097151D01*
X243340662Y-146089459D01*
X243321534Y-146081474D01*
X243297266Y-146070368D01*
X243274409Y-146058739D01*
X243258192Y-146049673D01*
X243237782Y-146036928D01*
X243218736Y-146023536D01*
X243201056Y-146009499D01*
X243184740Y-145994817D01*
X243169789Y-145979488D01*
X243153019Y-145959420D01*
X243138382Y-145938344D01*
X243133124Y-145929630D01*
X243121400Y-145907114D01*
X243111663Y-145883535D01*
X243103913Y-145858892D01*
X243098151Y-145833186D01*
X243094375Y-145806417D01*
X243092587Y-145778584D01*
X243092428Y-145767154D01*
X243092428Y-145765479D01*
X243093273Y-145738556D01*
X243095809Y-145712506D01*
X243100035Y-145687329D01*
X243105952Y-145663023D01*
X243113559Y-145639591D01*
X243122857Y-145617030D01*
X243133846Y-145595342D01*
X243146525Y-145574527D01*
X243160863Y-145554714D01*
X243176582Y-145536036D01*
X243193681Y-145518492D01*
X243212160Y-145502082D01*
X243232020Y-145486806D01*
X243253260Y-145472665D01*
X243275881Y-145459657D01*
X243299882Y-145447784D01*
X243318781Y-145439701D01*
X243338256Y-145432414D01*
X243358307Y-145425922D01*
X243378933Y-145420224D01*
X243400136Y-145415322D01*
X243421914Y-145411215D01*
X243444268Y-145407902D01*
X243467197Y-145405385D01*
X243490703Y-145403662D01*
X243514784Y-145402735D01*
X243531158Y-145402558D01*
X243554613Y-145402946D01*
X243577518Y-145404109D01*
X243599873Y-145406047D01*
X243621679Y-145408761D01*
X243642935Y-145412250D01*
X243663642Y-145416515D01*
X243683799Y-145421554D01*
X243703406Y-145427369D01*
X243722464Y-145433960D01*
X243747019Y-145443953D01*
X243753005Y-145446667D01*
X243776378Y-145458296D01*
X243798603Y-145471129D01*
X243819680Y-145485166D01*
X243839610Y-145500407D01*
X243858391Y-145516852D01*
X243876026Y-145534501D01*
X243892512Y-145553353D01*
X243907851Y-145573410D01*
X243922050Y-145594479D01*
X243934868Y-145616646D01*
X243946307Y-145639913D01*
X243956364Y-145664280D01*
X243965042Y-145689745D01*
X243972339Y-145716310D01*
X243978256Y-145743974D01*
X243982793Y-145772737D01*
X243985274Y-145795071D01*
X244232928Y-145795071D01*
X244232928Y-145772179D01*
X244232568Y-145749804D01*
X244230675Y-145716871D01*
X244227159Y-145684694D01*
X244222020Y-145653273D01*
X244215259Y-145622607D01*
X244206876Y-145592697D01*
X244196869Y-145563543D01*
X244185240Y-145535145D01*
X244171988Y-145507502D01*
X244157114Y-145480615D01*
X244140616Y-145454484D01*
X244122856Y-145429265D01*
X244104004Y-145405117D01*
X244084063Y-145382038D01*
X244063031Y-145360029D01*
X244040908Y-145339089D01*
X244017695Y-145319220D01*
X243993391Y-145300420D01*
X243976582Y-145288481D01*
X243959289Y-145277018D01*
X243941512Y-145266030D01*
X243923249Y-145255517D01*
X243904502Y-145245480D01*
X243894947Y-145240640D01*
X243875615Y-145231310D01*
X243855956Y-145222581D01*
X243835973Y-145214455D01*
X243815663Y-145206930D01*
X243795028Y-145200008D01*
X243774067Y-145193687D01*
X243752780Y-145187968D01*
X243731168Y-145182852D01*
X243709230Y-145178337D01*
X243686966Y-145174424D01*
X243664376Y-145171114D01*
X243641461Y-145168405D01*
X243618220Y-145166298D01*
X243594654Y-145164793D01*
X243570761Y-145163890D01*
X243546544Y-145163589D01*
X243521162Y-145163903D01*
X243496138Y-145164845D01*
X243471470Y-145166416D01*
X243447159Y-145168614D01*
X243423205Y-145171441D01*
X243399607Y-145174895D01*
X243376366Y-145178978D01*
X243353482Y-145183689D01*
X243330955Y-145189028D01*
X243308784Y-145194996D01*
X243286970Y-145201591D01*
X243265513Y-145208815D01*
X243244412Y-145216666D01*
X243223668Y-145225146D01*
X243203281Y-145234254D01*
X243183251Y-145243990D01*
X243163728Y-145254280D01*
X243144741Y-145265050D01*
X243126289Y-145276299D01*
X243108371Y-145288029D01*
X243090989Y-145300238D01*
X243074142Y-145312927D01*
X243057830Y-145326096D01*
X243042053Y-145339745D01*
X243019391Y-145361118D01*
X242997933Y-145383570D01*
X242977678Y-145407102D01*
X242958628Y-145431714D01*
X242940781Y-145457405D01*
X242935100Y-145466209D01*
X242919046Y-145493188D01*
X242904572Y-145520941D01*
X242891676Y-145549471D01*
X242880360Y-145578775D01*
X242870622Y-145608855D01*
X242862464Y-145639711D01*
X242855884Y-145671341D01*
X242850884Y-145703747D01*
X242847463Y-145736929D01*
X242846059Y-145759480D01*
X242845357Y-145782377D01*
X242845270Y-145793954D01*
X242845270Y-145795629D01*
X242845815Y-145826044D01*
X242847451Y-145855733D01*
X242850177Y-145884696D01*
X242853994Y-145912933D01*
X242858901Y-145940443D01*
X242864899Y-145967227D01*
X242871987Y-145993284D01*
X242880166Y-146018616D01*
X242889435Y-146043221D01*
X242899795Y-146067100D01*
X242907307Y-146082615D01*
X242919591Y-146105303D01*
X242932991Y-146127304D01*
X242947508Y-146148618D01*
X242963141Y-146169245D01*
X242979891Y-146189185D01*
X242997758Y-146208438D01*
X243016742Y-146227004D01*
X243036842Y-146244883D01*
X243058059Y-146262075D01*
X243080392Y-146278579D01*
X243095902Y-146289201D01*
X243120233Y-146304590D01*
X243145768Y-146319351D01*
X243172508Y-146333484D01*
X243191003Y-146342557D01*
X243210033Y-146351351D01*
X243229598Y-146359866D01*
X243249698Y-146368101D01*
X243270333Y-146376057D01*
X243291504Y-146383735D01*
X243313209Y-146391133D01*
X243335450Y-146398251D01*
X243358225Y-146405091D01*
X243381536Y-146411652D01*
X243405382Y-146417933D01*
X243417505Y-146420969D01*
X243638856Y-146475686D01*
X243664153Y-146482323D01*
X243688556Y-146489252D01*
X243712062Y-146496473D01*
X243734673Y-146503987D01*
X243756388Y-146511793D01*
X243777207Y-146519891D01*
X243797131Y-146528281D01*
X243816159Y-146536964D01*
X243843022Y-146550536D01*
X243867870Y-146564765D01*
X243890702Y-146579652D01*
X243911519Y-146595197D01*
X243930321Y-146611399D01*
X243936140Y-146616946D01*
X243952460Y-146634116D01*
X243967175Y-146652337D01*
X243980284Y-146671608D01*
X243991788Y-146691929D01*
X244001687Y-146713300D01*
X244009981Y-146735722D01*
X244016669Y-146759193D01*
X244021752Y-146783715D01*
X244025230Y-146809287D01*
X244027103Y-146835909D01*
X244027460Y-146854240D01*
X244027460Y-146855915D01*
X244026560Y-146884355D01*
X244023861Y-146911889D01*
X244019364Y-146938514D01*
X244013067Y-146964233D01*
X244004971Y-146989044D01*
X243995076Y-147012948D01*
X243983382Y-147035945D01*
X243969889Y-147058034D01*
X243954751Y-147078911D01*
X243938125Y-147098548D01*
X243920010Y-147116947D01*
X243900406Y-147134108D01*
X243879314Y-147150029D01*
X243856732Y-147164712D01*
X243838819Y-147174910D01*
X243820068Y-147184413D01*
X243807102Y-147190360D01*
X243787122Y-147198542D01*
X243766454Y-147205920D01*
X243745096Y-147212492D01*
X243723048Y-147218260D01*
X243700312Y-147223223D01*
X243676887Y-147227381D01*
X243652772Y-147230734D01*
X243627968Y-147233283D01*
X243602475Y-147235026D01*
X243576293Y-147235965D01*
X243558455Y-147236144D01*
X243531765Y-147235747D01*
X243505668Y-147234554D01*
X243480165Y-147232567D01*
X243455255Y-147229784D01*
X243430938Y-147226207D01*
X243407215Y-147221834D01*
X243384084Y-147216667D01*
X243361547Y-147210705D01*
X243339603Y-147203947D01*
X243318253Y-147196395D01*
X243304348Y-147190919D01*
X243284162Y-147182110D01*
X243264735Y-147172644D01*
X243246067Y-147162520D01*
X243228158Y-147151739D01*
X243211008Y-147140300D01*
X243189322Y-147124025D01*
X243168986Y-147106582D01*
X243149998Y-147087969D01*
X243132360Y-147068187D01*
X243128161Y-147063059D01*
X243112450Y-147041781D01*
X243098321Y-147019543D01*
X243085774Y-146996346D01*
X243074809Y-146972189D01*
X243065426Y-146947073D01*
X243057625Y-146920996D01*
X243051405Y-146893961D01*
X243046768Y-146865965D01*
X243044286Y-146843632D01*
X242795143Y-146843632D01*
X242796632Y-146864849D01*
X242798507Y-146888102D01*
X242801029Y-146910964D01*
X242804199Y-146933433D01*
X242808016Y-146955509D01*
X242814956Y-146987887D01*
X242823353Y-147019382D01*
X242833207Y-147049994D01*
X242844517Y-147079722D01*
X242857285Y-147108567D01*
X242871510Y-147136528D01*
X242887191Y-147163607D01*
X242904329Y-147189802D01*
X242922878Y-147214901D01*
X242942605Y-147238901D01*
X242963509Y-147261801D01*
X242985591Y-147283603D01*
X243008851Y-147304305D01*
X243025012Y-147317496D01*
X243041696Y-147330198D01*
X243058904Y-147342412D01*
X243076635Y-147354137D01*
X243094889Y-147365373D01*
X243113667Y-147376121D01*
X243132969Y-147386381D01*
X243152794Y-147396152D01*
X243162903Y-147400854D01*
X243183515Y-147409846D01*
X243204530Y-147418259D01*
X243225948Y-147426091D01*
X243247770Y-147433342D01*
X243269995Y-147440014D01*
X243292623Y-147446106D01*
X243315655Y-147451617D01*
X243339090Y-147456548D01*
X243362928Y-147460900D01*
X243387169Y-147464671D01*
X243411813Y-147467861D01*
X243436861Y-147470472D01*
X243462312Y-147472503D01*
X243488166Y-147473953D01*
X243514424Y-147474823D01*
X243541084Y-147475113D01*
G37*
G36*
X245148108Y-147475113D02*
G01*
X245395266Y-147475113D01*
X245395266Y-145223890D01*
X245148108Y-145223890D01*
X245148108Y-147475113D01*
G37*
G36*
X247262672Y-145164141D02*
G01*
X247297132Y-145165796D01*
X247330991Y-145168555D01*
X247364250Y-145172418D01*
X247396907Y-145177384D01*
X247428963Y-145183454D01*
X247460418Y-145190627D01*
X247491272Y-145198904D01*
X247521525Y-145208285D01*
X247551177Y-145218769D01*
X247580228Y-145230356D01*
X247608678Y-145243048D01*
X247636527Y-145256843D01*
X247663775Y-145271741D01*
X247690422Y-145287743D01*
X247716468Y-145304849D01*
X247741908Y-145322897D01*
X247766610Y-145341865D01*
X247790576Y-145361754D01*
X247813806Y-145382563D01*
X247836298Y-145404292D01*
X247858054Y-145426942D01*
X247879073Y-145450512D01*
X247899356Y-145475003D01*
X247918901Y-145500414D01*
X247937710Y-145526745D01*
X247955783Y-145553997D01*
X247973118Y-145582169D01*
X247989717Y-145611262D01*
X248005580Y-145641274D01*
X248020705Y-145672208D01*
X248035094Y-145704061D01*
X248048736Y-145736685D01*
X248061499Y-145770068D01*
X248073381Y-145804209D01*
X248084383Y-145839110D01*
X248094505Y-145874769D01*
X248103746Y-145911188D01*
X248112108Y-145948365D01*
X248119589Y-145986302D01*
X248126191Y-146024997D01*
X248131912Y-146064452D01*
X248136752Y-146104665D01*
X248140713Y-146145638D01*
X248143794Y-146187369D01*
X248145994Y-146229860D01*
X248147314Y-146273109D01*
X248147754Y-146317118D01*
X248147754Y-146320468D01*
X248147314Y-146364413D01*
X248145994Y-146407612D01*
X248143794Y-146450066D01*
X248140713Y-146491773D01*
X248136752Y-146532735D01*
X248131912Y-146572951D01*
X248126191Y-146612420D01*
X248119589Y-146651144D01*
X248112108Y-146689122D01*
X248103746Y-146726354D01*
X248094505Y-146762840D01*
X248084383Y-146798581D01*
X248073381Y-146833575D01*
X248061499Y-146867823D01*
X248048736Y-146901326D01*
X248035094Y-146934083D01*
X248020709Y-146965938D01*
X248005595Y-146996878D01*
X247989752Y-147026902D01*
X247973180Y-147056010D01*
X247955880Y-147084202D01*
X247937850Y-147111477D01*
X247919091Y-147137837D01*
X247899604Y-147163281D01*
X247879387Y-147187808D01*
X247858442Y-147211420D01*
X247836767Y-147234116D01*
X247814364Y-147255895D01*
X247791232Y-147276759D01*
X247767370Y-147296706D01*
X247742780Y-147315738D01*
X247717461Y-147333853D01*
X247691469Y-147350959D01*
X247664861Y-147366961D01*
X247637636Y-147381860D01*
X247609795Y-147395655D01*
X247581337Y-147408346D01*
X247552262Y-147419934D01*
X247522572Y-147430418D01*
X247492264Y-147439798D01*
X247461340Y-147448075D01*
X247429800Y-147455249D01*
X247397643Y-147461318D01*
X247364870Y-147466284D01*
X247331480Y-147470147D01*
X247297474Y-147472906D01*
X247262851Y-147474561D01*
X247227612Y-147475113D01*
X247192426Y-147474561D01*
X247157842Y-147472906D01*
X247123859Y-147470147D01*
X247090477Y-147466284D01*
X247057696Y-147461318D01*
X247025516Y-147455249D01*
X246993937Y-147448075D01*
X246962959Y-147439798D01*
X246932582Y-147430418D01*
X246902805Y-147419934D01*
X246873630Y-147408346D01*
X246845056Y-147395655D01*
X246817083Y-147381860D01*
X246789711Y-147366961D01*
X246762940Y-147350959D01*
X246736769Y-147333853D01*
X246711328Y-147315738D01*
X246686620Y-147296706D01*
X246662644Y-147276759D01*
X246639401Y-147255895D01*
X246616891Y-147234116D01*
X246595114Y-147211420D01*
X246574070Y-147187808D01*
X246553758Y-147163281D01*
X246534179Y-147137837D01*
X246515334Y-147111477D01*
X246497221Y-147084202D01*
X246479840Y-147056010D01*
X246463193Y-147026902D01*
X246447278Y-146996878D01*
X246432096Y-146965938D01*
X246417648Y-146934083D01*
X246404065Y-146901326D01*
X246391359Y-146867823D01*
X246379529Y-146833575D01*
X246368576Y-146798581D01*
X246358498Y-146762840D01*
X246349297Y-146726354D01*
X246340973Y-146689122D01*
X246333524Y-146651144D01*
X246326952Y-146612420D01*
X246321256Y-146572951D01*
X246316437Y-146532735D01*
X246312494Y-146491773D01*
X246309427Y-146450066D01*
X246307236Y-146407612D01*
X246305922Y-146364413D01*
X246305483Y-146320468D01*
X246552642Y-146320468D01*
X246552963Y-146355078D01*
X246553929Y-146389117D01*
X246555538Y-146422585D01*
X246557791Y-146455481D01*
X246560687Y-146487806D01*
X246564227Y-146519559D01*
X246568411Y-146550741D01*
X246573238Y-146581352D01*
X246578709Y-146611391D01*
X246584824Y-146640859D01*
X246591582Y-146669755D01*
X246598984Y-146698080D01*
X246607029Y-146725833D01*
X246615718Y-146753015D01*
X246625051Y-146779625D01*
X246635028Y-146805665D01*
X246645655Y-146830986D01*
X246656818Y-146855584D01*
X246668516Y-146879457D01*
X246680749Y-146902606D01*
X246693517Y-146925031D01*
X246706821Y-146946732D01*
X246720659Y-146967709D01*
X246735032Y-146987962D01*
X246749941Y-147007491D01*
X246765384Y-147026296D01*
X246781363Y-147044376D01*
X246797876Y-147061733D01*
X246814925Y-147078365D01*
X246832509Y-147094274D01*
X246850628Y-147109458D01*
X246869282Y-147123918D01*
X246888422Y-147137508D01*
X246908001Y-147150221D01*
X246928018Y-147162057D01*
X246948473Y-147173017D01*
X246969366Y-147183100D01*
X246990697Y-147192306D01*
X247012467Y-147200635D01*
X247034674Y-147208088D01*
X247057320Y-147214663D01*
X247080404Y-147220362D01*
X247103926Y-147225184D01*
X247127886Y-147229130D01*
X247152284Y-147232199D01*
X247177121Y-147234391D01*
X247202395Y-147235706D01*
X247228108Y-147236144D01*
X247253937Y-147235703D01*
X247279312Y-147234382D01*
X247304234Y-147232179D01*
X247328702Y-147229095D01*
X247352716Y-147225130D01*
X247376277Y-147220284D01*
X247399384Y-147214556D01*
X247422038Y-147207948D01*
X247444237Y-147200458D01*
X247465984Y-147192088D01*
X247487276Y-147182836D01*
X247508115Y-147172703D01*
X247528500Y-147161689D01*
X247548432Y-147149793D01*
X247567910Y-147137017D01*
X247586934Y-147123360D01*
X247605522Y-147108830D01*
X247623567Y-147093576D01*
X247641069Y-147077598D01*
X247658029Y-147060895D01*
X247674446Y-147043469D01*
X247690320Y-147025319D01*
X247705651Y-147006444D01*
X247720439Y-146986846D01*
X247734684Y-146966523D01*
X247748387Y-146945476D01*
X247761547Y-146923705D01*
X247774163Y-146901210D01*
X247786238Y-146877991D01*
X247797769Y-146854048D01*
X247808757Y-146829381D01*
X247819203Y-146803990D01*
X247829059Y-146777957D01*
X247838279Y-146751366D01*
X247846864Y-146724217D01*
X247854812Y-146696509D01*
X247862125Y-146668243D01*
X247868802Y-146639419D01*
X247874843Y-146610036D01*
X247880248Y-146580096D01*
X247885017Y-146549596D01*
X247889150Y-146518539D01*
X247892648Y-146486923D01*
X247895509Y-146454748D01*
X247897735Y-146422016D01*
X247899325Y-146388725D01*
X247900278Y-146354875D01*
X247900596Y-146320468D01*
X247900596Y-146316559D01*
X247900274Y-146281951D01*
X247899309Y-146247919D01*
X247897700Y-146214462D01*
X247895447Y-146181581D01*
X247892551Y-146149276D01*
X247889011Y-146117546D01*
X247884827Y-146086393D01*
X247880000Y-146055815D01*
X247874529Y-146025813D01*
X247868414Y-145996387D01*
X247861656Y-145967536D01*
X247854254Y-145939262D01*
X247846209Y-145911563D01*
X247837519Y-145884440D01*
X247828187Y-145857893D01*
X247818210Y-145831921D01*
X247807703Y-145806536D01*
X247796652Y-145781889D01*
X247785059Y-145757978D01*
X247772923Y-145734805D01*
X247760244Y-145712369D01*
X247747022Y-145690670D01*
X247733257Y-145669708D01*
X247718950Y-145649484D01*
X247704100Y-145629996D01*
X247688707Y-145611246D01*
X247672771Y-145593233D01*
X247656292Y-145575957D01*
X247639270Y-145559419D01*
X247621706Y-145543617D01*
X247603599Y-145528553D01*
X247584949Y-145514226D01*
X247565874Y-145500704D01*
X247546369Y-145488054D01*
X247526433Y-145476277D01*
X247506068Y-145465371D01*
X247485271Y-145455339D01*
X247464045Y-145446179D01*
X247442388Y-145437891D01*
X247420301Y-145430475D01*
X247397783Y-145423932D01*
X247374835Y-145418262D01*
X247351456Y-145413463D01*
X247327647Y-145409538D01*
X247303408Y-145406484D01*
X247278738Y-145404303D01*
X247253638Y-145402994D01*
X247228108Y-145402558D01*
X247202572Y-145402994D01*
X247177454Y-145404303D01*
X247152755Y-145406484D01*
X247128475Y-145409538D01*
X247104614Y-145413463D01*
X247081172Y-145418262D01*
X247058148Y-145423932D01*
X247035543Y-145430475D01*
X247013357Y-145437891D01*
X246991589Y-145446179D01*
X246970240Y-145455339D01*
X246949310Y-145465371D01*
X246928799Y-145476277D01*
X246908707Y-145488054D01*
X246889033Y-145500704D01*
X246869778Y-145514226D01*
X246851064Y-145528549D01*
X246832889Y-145543600D01*
X246815253Y-145559380D01*
X246798156Y-145575888D01*
X246781597Y-145593124D01*
X246765578Y-145611089D01*
X246750098Y-145629783D01*
X246735156Y-145649205D01*
X246720754Y-145669355D01*
X246706890Y-145690234D01*
X246693566Y-145711841D01*
X246680780Y-145734177D01*
X246668534Y-145757241D01*
X246656826Y-145781034D01*
X246645657Y-145805555D01*
X246635028Y-145830804D01*
X246625051Y-145856649D01*
X246615718Y-145883096D01*
X246607029Y-145910145D01*
X246598984Y-145937796D01*
X246591582Y-145966049D01*
X246584824Y-145994904D01*
X246578709Y-146024361D01*
X246573238Y-146054419D01*
X246568411Y-146085080D01*
X246564227Y-146116343D01*
X246560687Y-146148207D01*
X246557791Y-146180674D01*
X246555538Y-146213742D01*
X246553929Y-146247413D01*
X246552963Y-146281685D01*
X246552642Y-146316559D01*
X246552642Y-146320468D01*
X246305483Y-146320468D01*
X246305483Y-146317118D01*
X246305923Y-146273109D01*
X246307244Y-146229860D01*
X246309444Y-146187369D01*
X246312525Y-146145638D01*
X246316485Y-146104665D01*
X246321326Y-146064452D01*
X246327047Y-146024997D01*
X246333648Y-145986302D01*
X246341130Y-145948365D01*
X246349491Y-145911188D01*
X246358733Y-145874769D01*
X246368855Y-145839110D01*
X246379857Y-145804209D01*
X246391739Y-145770068D01*
X246404501Y-145736685D01*
X246418144Y-145704061D01*
X246432655Y-145672208D01*
X246447899Y-145641274D01*
X246463875Y-145611262D01*
X246480585Y-145582169D01*
X246498027Y-145553997D01*
X246516202Y-145526745D01*
X246535110Y-145500414D01*
X246554751Y-145475003D01*
X246575124Y-145450512D01*
X246596231Y-145426942D01*
X246618070Y-145404292D01*
X246640642Y-145382563D01*
X246663947Y-145361754D01*
X246687984Y-145341865D01*
X246712755Y-145322897D01*
X246738258Y-145304849D01*
X246764423Y-145287743D01*
X246791176Y-145271741D01*
X246818520Y-145256843D01*
X246846452Y-145243048D01*
X246874974Y-145230356D01*
X246904085Y-145218769D01*
X246933786Y-145208285D01*
X246964075Y-145198904D01*
X246994955Y-145190627D01*
X247026423Y-145183454D01*
X247058481Y-145177384D01*
X247091129Y-145172418D01*
X247124365Y-145168555D01*
X247158191Y-145165796D01*
X247192607Y-145164141D01*
X247227612Y-145163589D01*
X247262672Y-145164141D01*
G37*
D10*
D11*
G36*
X259284415Y-145605213D02*
G01*
X259307966Y-145606181D01*
X259331129Y-145607795D01*
X259353905Y-145610054D01*
X259376293Y-145612960D01*
X259398293Y-145616510D01*
X259419905Y-145620706D01*
X259441130Y-145625548D01*
X259461967Y-145631036D01*
X259482416Y-145637169D01*
X259502477Y-145643947D01*
X259522151Y-145651371D01*
X259541437Y-145659441D01*
X259560335Y-145668157D01*
X259578846Y-145677517D01*
X259596968Y-145687524D01*
X259614705Y-145698115D01*
X259640358Y-145714983D01*
X259664869Y-145733029D01*
X259688236Y-145752252D01*
X259710461Y-145772653D01*
X259731542Y-145794232D01*
X259751481Y-145816989D01*
X259770277Y-145840923D01*
X259787930Y-145866035D01*
X259804440Y-145892325D01*
X259819808Y-145919793D01*
X259829424Y-145938630D01*
X259842684Y-145967647D01*
X259854549Y-145997577D01*
X259865018Y-146028419D01*
X259874091Y-146060174D01*
X259879364Y-146081851D01*
X259884017Y-146103934D01*
X259888049Y-146126422D01*
X259891461Y-146149316D01*
X259894253Y-146172616D01*
X259896424Y-146196321D01*
X259897975Y-146220432D01*
X259898906Y-146244949D01*
X259899216Y-146269872D01*
X259899216Y-146272663D01*
X259898805Y-146301451D01*
X259897572Y-146329745D01*
X259895517Y-146357546D01*
X259892640Y-146384855D01*
X259888941Y-146411670D01*
X259884420Y-146437993D01*
X259879077Y-146463823D01*
X259872912Y-146489159D01*
X259865925Y-146514003D01*
X259858116Y-146538354D01*
X259849485Y-146562212D01*
X259840032Y-146585578D01*
X259829757Y-146608450D01*
X259818660Y-146630829D01*
X259806741Y-146652716D01*
X259794000Y-146674109D01*
X259780542Y-146694855D01*
X259766471Y-146714798D01*
X259751787Y-146733939D01*
X259736491Y-146752277D01*
X259720582Y-146769812D01*
X259704061Y-146786545D01*
X259686927Y-146802475D01*
X259669180Y-146817602D01*
X259650821Y-146831927D01*
X259631849Y-146845450D01*
X259612265Y-146858169D01*
X259592067Y-146870086D01*
X259571258Y-146881201D01*
X259549835Y-146891513D01*
X259527800Y-146901022D01*
X259505153Y-146909728D01*
X259960757Y-147827080D01*
X259677369Y-147827080D01*
X259242609Y-146951604D01*
X259235165Y-146951604D01*
X259227224Y-146951604D01*
X258755737Y-146951604D01*
X258755737Y-147827080D01*
X258508579Y-147827080D01*
X258508579Y-145843859D01*
X258755737Y-145843859D01*
X258755737Y-146712635D01*
X259242609Y-146712635D01*
X259254774Y-146712524D01*
X259278581Y-146711643D01*
X259301690Y-146709881D01*
X259324101Y-146707238D01*
X259345815Y-146703713D01*
X259366830Y-146699308D01*
X259387147Y-146694021D01*
X259406767Y-146687853D01*
X259425688Y-146680804D01*
X259452762Y-146668578D01*
X259478265Y-146654370D01*
X259502198Y-146638179D01*
X259524561Y-146620006D01*
X259545353Y-146599850D01*
X259558274Y-146585307D01*
X259576093Y-146562086D01*
X259592036Y-146537177D01*
X259606104Y-146510579D01*
X259618296Y-146482294D01*
X259628612Y-146452320D01*
X259637052Y-146420658D01*
X259641637Y-146398612D01*
X259645389Y-146375817D01*
X259648306Y-146352270D01*
X259650391Y-146327974D01*
X259651641Y-146302927D01*
X259652058Y-146277130D01*
X259652058Y-146274338D01*
X259651948Y-146261758D01*
X259651072Y-146237117D01*
X259649319Y-146213169D01*
X259646691Y-146189915D01*
X259643185Y-146167355D01*
X259638804Y-146145488D01*
X259630589Y-146113988D01*
X259620402Y-146084049D01*
X259608244Y-146055670D01*
X259594114Y-146028852D01*
X259578012Y-146003594D01*
X259559939Y-145979897D01*
X259539894Y-145957760D01*
X259525544Y-145943967D01*
X259502783Y-145924947D01*
X259478538Y-145907928D01*
X259452811Y-145892912D01*
X259425601Y-145879898D01*
X259406637Y-145872334D01*
X259387013Y-145865660D01*
X259366731Y-145859876D01*
X259345789Y-145854982D01*
X259324189Y-145850978D01*
X259301929Y-145847863D01*
X259279010Y-145845639D01*
X259255432Y-145844304D01*
X259231194Y-145843859D01*
X258755737Y-145843859D01*
X258508579Y-145843859D01*
X258508579Y-145604890D01*
X259260476Y-145604890D01*
X259284415Y-145605213D01*
G37*
G36*
X260211886Y-147820380D02*
G01*
X261450654Y-147820380D01*
X261450654Y-147581410D01*
X260459044Y-147581410D01*
X260459044Y-146808669D01*
X261403009Y-146808669D01*
X261403009Y-146569700D01*
X260459044Y-146569700D01*
X260459044Y-145843859D01*
X261450654Y-145843859D01*
X261450654Y-145604890D01*
X260211886Y-145604890D01*
X260211886Y-147820380D01*
G37*
G36*
X262365338Y-147838246D02*
G01*
X262612496Y-147838246D01*
X263351489Y-145604890D01*
X263088945Y-145604890D01*
X262491895Y-147503801D01*
X262485939Y-147503801D01*
X261888889Y-145604890D01*
X261626345Y-145604890D01*
X262365338Y-147838246D01*
G37*
G36*
X265438057Y-145545139D02*
G01*
X265465950Y-145546788D01*
X265493332Y-145549536D01*
X265520202Y-145553383D01*
X265546561Y-145558330D01*
X265572407Y-145564375D01*
X265597742Y-145571520D01*
X265622564Y-145579764D01*
X265646875Y-145589108D01*
X265670675Y-145599551D01*
X265693962Y-145611093D01*
X265716738Y-145623734D01*
X265739001Y-145637474D01*
X265760753Y-145652314D01*
X265781994Y-145668253D01*
X265802722Y-145685291D01*
X265822956Y-145703273D01*
X265842589Y-145722185D01*
X265861621Y-145742025D01*
X265880052Y-145762795D01*
X265897882Y-145784494D01*
X265915111Y-145807122D01*
X265931739Y-145830679D01*
X265947766Y-145855165D01*
X265963192Y-145880581D01*
X265978017Y-145906925D01*
X265992241Y-145934199D01*
X266005864Y-145962401D01*
X266018886Y-145991533D01*
X266031307Y-146021594D01*
X266043128Y-146052584D01*
X266054347Y-146084503D01*
X266064924Y-146117194D01*
X266074819Y-146150640D01*
X266084032Y-146184841D01*
X266092562Y-146219796D01*
X266100410Y-146255505D01*
X266107575Y-146291970D01*
X266114058Y-146329189D01*
X266119859Y-146367162D01*
X266124977Y-146405891D01*
X266129412Y-146445373D01*
X266133166Y-146485611D01*
X266136236Y-146526603D01*
X266138625Y-146568350D01*
X266140331Y-146610851D01*
X266141355Y-146654107D01*
X266141696Y-146698118D01*
X266141696Y-146701468D01*
X266141355Y-146745413D01*
X266140331Y-146788612D01*
X266138625Y-146831066D01*
X266136236Y-146872773D01*
X266133166Y-146913735D01*
X266129412Y-146953951D01*
X266124977Y-146993420D01*
X266119859Y-147032144D01*
X266114058Y-147070122D01*
X266107575Y-147107354D01*
X266100410Y-147143840D01*
X266092562Y-147179581D01*
X266084032Y-147214575D01*
X266074819Y-147248823D01*
X266064924Y-147282326D01*
X266054347Y-147315083D01*
X266043128Y-147346938D01*
X266031307Y-147377878D01*
X266018886Y-147407902D01*
X266005864Y-147437010D01*
X265992241Y-147465202D01*
X265978017Y-147492477D01*
X265963192Y-147518837D01*
X265947766Y-147544281D01*
X265931739Y-147568808D01*
X265915111Y-147592420D01*
X265897882Y-147615116D01*
X265880052Y-147636895D01*
X265861621Y-147657759D01*
X265842589Y-147677706D01*
X265822956Y-147696738D01*
X265802722Y-147714853D01*
X265781994Y-147731959D01*
X265760753Y-147747961D01*
X265739001Y-147762860D01*
X265716738Y-147776655D01*
X265693962Y-147789346D01*
X265670675Y-147800934D01*
X265646875Y-147811418D01*
X265622564Y-147820798D01*
X265597742Y-147829075D01*
X265572407Y-147836249D01*
X265546561Y-147842318D01*
X265520202Y-147847284D01*
X265493332Y-147851147D01*
X265465950Y-147853906D01*
X265438057Y-147855561D01*
X265409651Y-147856113D01*
X265381306Y-147855561D01*
X265353468Y-147853906D01*
X265326139Y-147851147D01*
X265299317Y-147847284D01*
X265273003Y-147842318D01*
X265247198Y-147836249D01*
X265221900Y-147829075D01*
X265197110Y-147820798D01*
X265172828Y-147811418D01*
X265149054Y-147800934D01*
X265125788Y-147789346D01*
X265103030Y-147776655D01*
X265080780Y-147762860D01*
X265059037Y-147747961D01*
X265037803Y-147731959D01*
X265017077Y-147714853D01*
X264996965Y-147696738D01*
X264977450Y-147677706D01*
X264958532Y-147657759D01*
X264940212Y-147636895D01*
X264922489Y-147615116D01*
X264905362Y-147592420D01*
X264888833Y-147568808D01*
X264872901Y-147544281D01*
X264857566Y-147518837D01*
X264842828Y-147492477D01*
X264828688Y-147465202D01*
X264815144Y-147437010D01*
X264802198Y-147407902D01*
X264789848Y-147377878D01*
X264778096Y-147346938D01*
X264766941Y-147315083D01*
X264756484Y-147282326D01*
X264746701Y-147248823D01*
X264737593Y-147214575D01*
X264729160Y-147179581D01*
X264721401Y-147143840D01*
X264714317Y-147107354D01*
X264707908Y-147070122D01*
X264702173Y-147032144D01*
X264697113Y-146993420D01*
X264692728Y-146953951D01*
X264689018Y-146913735D01*
X264685982Y-146872773D01*
X264683620Y-146831066D01*
X264681934Y-146788612D01*
X264680922Y-146745413D01*
X264680584Y-146701468D01*
X264680584Y-146700351D01*
X264927742Y-146700351D01*
X264927963Y-146735300D01*
X264928626Y-146769655D01*
X264929732Y-146803417D01*
X264931279Y-146836586D01*
X264933268Y-146869162D01*
X264935699Y-146901144D01*
X264938572Y-146932533D01*
X264941887Y-146963329D01*
X264945644Y-146993532D01*
X264949843Y-147023141D01*
X264954485Y-147052157D01*
X264959568Y-147080580D01*
X264965093Y-147108410D01*
X264971060Y-147135646D01*
X264977469Y-147162290D01*
X264984321Y-147188340D01*
X264991653Y-147213724D01*
X264999380Y-147238372D01*
X265007503Y-147262282D01*
X265016022Y-147285456D01*
X265024936Y-147307892D01*
X265034246Y-147329591D01*
X265043951Y-147350552D01*
X265054051Y-147370777D01*
X265064547Y-147390264D01*
X265075439Y-147409014D01*
X265092517Y-147435757D01*
X265110486Y-147460842D01*
X265129345Y-147484268D01*
X265149093Y-147506035D01*
X265162790Y-147519489D01*
X265183982Y-147538044D01*
X265205950Y-147554645D01*
X265228695Y-147569293D01*
X265252217Y-147581988D01*
X265276515Y-147592730D01*
X265301589Y-147601519D01*
X265327440Y-147608355D01*
X265354067Y-147613238D01*
X265381471Y-147616168D01*
X265409651Y-147617144D01*
X265428526Y-147616710D01*
X265456199Y-147614431D01*
X265483104Y-147610200D01*
X265509241Y-147604015D01*
X265534611Y-147595877D01*
X265559212Y-147585786D01*
X265583046Y-147573742D01*
X265606113Y-147559745D01*
X265628412Y-147543794D01*
X265649942Y-147525891D01*
X265670706Y-147506035D01*
X265690720Y-147484268D01*
X265709819Y-147460842D01*
X265728001Y-147435757D01*
X265745267Y-147409014D01*
X265756269Y-147390264D01*
X265766864Y-147370777D01*
X265777052Y-147350552D01*
X265786832Y-147329591D01*
X265796206Y-147307892D01*
X265805172Y-147285456D01*
X265813732Y-147262282D01*
X265821884Y-147238372D01*
X265829629Y-147213724D01*
X265836967Y-147188340D01*
X265843938Y-147162290D01*
X265850460Y-147135646D01*
X265856532Y-147108410D01*
X265862154Y-147080580D01*
X265867326Y-147052157D01*
X265872049Y-147023141D01*
X265876322Y-146993532D01*
X265880145Y-146963329D01*
X265883518Y-146932533D01*
X265886442Y-146901144D01*
X265888916Y-146869162D01*
X265890939Y-146836586D01*
X265892514Y-146803417D01*
X265893638Y-146769655D01*
X265894313Y-146735300D01*
X265894538Y-146700351D01*
X265894538Y-146697001D01*
X265894313Y-146661989D01*
X265893638Y-146627584D01*
X265892514Y-146593785D01*
X265890939Y-146560592D01*
X265888916Y-146528005D01*
X265886442Y-146496025D01*
X265883518Y-146464651D01*
X265880145Y-146433884D01*
X265876322Y-146403723D01*
X265872049Y-146374168D01*
X265867326Y-146345219D01*
X265862154Y-146316877D01*
X265856532Y-146289141D01*
X265850460Y-146262011D01*
X265843938Y-146235488D01*
X265836967Y-146209571D01*
X265829629Y-146184326D01*
X265821884Y-146159818D01*
X265813732Y-146136047D01*
X265805172Y-146113013D01*
X265796206Y-146090717D01*
X265786832Y-146069157D01*
X265777052Y-146048335D01*
X265766864Y-146028250D01*
X265756269Y-146008903D01*
X265745267Y-145990292D01*
X265728001Y-145963758D01*
X265709819Y-145938883D01*
X265690720Y-145915667D01*
X265670706Y-145894109D01*
X265656949Y-145880722D01*
X265635674Y-145862261D01*
X265613631Y-145845743D01*
X265590821Y-145831169D01*
X265567242Y-145818537D01*
X265542896Y-145807849D01*
X265517783Y-145799105D01*
X265491901Y-145792303D01*
X265465252Y-145787445D01*
X265437836Y-145784530D01*
X265409651Y-145783558D01*
X265390778Y-145783990D01*
X265363116Y-145786257D01*
X265336230Y-145790468D01*
X265310120Y-145796621D01*
X265284787Y-145804718D01*
X265260230Y-145814759D01*
X265236450Y-145826742D01*
X265213446Y-145840669D01*
X265191218Y-145856539D01*
X265169767Y-145874353D01*
X265149093Y-145894109D01*
X265135828Y-145908297D01*
X265116673Y-145930960D01*
X265098408Y-145955282D01*
X265081033Y-145981263D01*
X265064547Y-146008903D01*
X265054051Y-146028250D01*
X265043951Y-146048335D01*
X265034246Y-146069157D01*
X265024936Y-146090717D01*
X265016022Y-146113013D01*
X265007503Y-146136047D01*
X264999380Y-146159818D01*
X264991653Y-146184326D01*
X264984321Y-146209571D01*
X264977469Y-146235488D01*
X264971060Y-146262011D01*
X264965093Y-146289141D01*
X264959568Y-146316877D01*
X264954485Y-146345219D01*
X264949843Y-146374168D01*
X264945644Y-146403723D01*
X264941887Y-146433884D01*
X264938572Y-146464651D01*
X264935699Y-146496025D01*
X264933268Y-146528005D01*
X264931279Y-146560592D01*
X264929732Y-146593785D01*
X264928626Y-146627584D01*
X264927963Y-146661989D01*
X264927742Y-146697001D01*
X264927742Y-146700351D01*
X264680584Y-146700351D01*
X264680584Y-146698118D01*
X264680922Y-146654107D01*
X264681934Y-146610851D01*
X264683620Y-146568350D01*
X264685982Y-146526603D01*
X264689018Y-146485611D01*
X264692728Y-146445373D01*
X264697113Y-146405891D01*
X264702173Y-146367162D01*
X264707908Y-146329189D01*
X264714317Y-146291970D01*
X264721401Y-146255505D01*
X264729160Y-146219796D01*
X264737593Y-146184841D01*
X264746701Y-146150640D01*
X264756484Y-146117194D01*
X264766941Y-146084503D01*
X264778096Y-146052584D01*
X264789848Y-146021594D01*
X264802198Y-145991533D01*
X264815144Y-145962401D01*
X264828688Y-145934199D01*
X264842828Y-145906925D01*
X264857566Y-145880581D01*
X264872901Y-145855165D01*
X264888833Y-145830679D01*
X264905362Y-145807122D01*
X264922489Y-145784494D01*
X264940212Y-145762795D01*
X264958532Y-145742025D01*
X264977450Y-145722185D01*
X264996965Y-145703273D01*
X265017077Y-145685291D01*
X265037803Y-145668253D01*
X265059037Y-145652314D01*
X265080780Y-145637474D01*
X265103030Y-145623734D01*
X265125788Y-145611093D01*
X265149054Y-145599551D01*
X265172828Y-145589108D01*
X265197110Y-145579764D01*
X265221900Y-145571520D01*
X265247198Y-145564375D01*
X265273003Y-145558330D01*
X265299317Y-145553383D01*
X265326139Y-145549536D01*
X265353468Y-145546788D01*
X265381306Y-145545139D01*
X265409651Y-145544589D01*
X265438057Y-145545139D01*
G37*
D10*
D11*
G36*
X236283579Y-144155246D02*
G01*
X236530737Y-144155246D01*
X236530737Y-142422162D01*
X236643894Y-142422162D01*
X236364476Y-141982749D01*
X237175929Y-144155246D01*
X237385369Y-144155246D01*
X238196821Y-141982749D01*
X237917404Y-142422162D01*
X238030560Y-142422162D01*
X238030560Y-144155246D01*
X238277719Y-144155246D01*
X238277719Y-141921890D01*
X237975471Y-141921890D01*
X237284619Y-143802376D01*
X237276182Y-143802376D01*
X236585827Y-141921890D01*
X236283579Y-141921890D01*
X236283579Y-144155246D01*
G37*
G36*
X239231610Y-144173113D02*
G01*
X239478768Y-144173113D01*
X239478768Y-141921890D01*
X239231610Y-141921890D01*
X239231610Y-144173113D01*
G37*
G36*
X240960724Y-144144080D02*
G01*
X241207882Y-144144080D01*
X241207882Y-142160859D01*
X241850096Y-142160859D01*
X241850096Y-141921890D01*
X240325458Y-141921890D01*
X240325458Y-142160859D01*
X240960724Y-142160859D01*
X240960724Y-144144080D01*
G37*
G36*
X243351905Y-144173113D02*
G01*
X243380072Y-144172801D01*
X243407746Y-144171866D01*
X243434929Y-144170306D01*
X243461618Y-144168123D01*
X243487816Y-144165316D01*
X243513521Y-144161885D01*
X243538733Y-144157831D01*
X243563453Y-144153153D01*
X243587681Y-144147851D01*
X243611416Y-144141925D01*
X243634659Y-144135375D01*
X243657409Y-144128202D01*
X243679667Y-144120405D01*
X243701433Y-144111984D01*
X243722706Y-144102939D01*
X243743487Y-144093271D01*
X243763726Y-144083029D01*
X243783377Y-144072263D01*
X243802438Y-144060974D01*
X243820910Y-144049162D01*
X243838792Y-144036826D01*
X243856085Y-144023967D01*
X243872789Y-144010584D01*
X243888903Y-143996678D01*
X243904428Y-143982248D01*
X243919363Y-143967295D01*
X243933710Y-143951819D01*
X243954124Y-143927623D01*
X243973212Y-143902249D01*
X243990974Y-143875697D01*
X243996600Y-143866585D01*
X244012477Y-143838486D01*
X244026791Y-143809464D01*
X244039544Y-143779520D01*
X244050736Y-143748653D01*
X244057329Y-143727563D01*
X244063229Y-143706063D01*
X244068434Y-143684152D01*
X244072945Y-143661832D01*
X244076763Y-143639101D01*
X244079886Y-143615961D01*
X244082315Y-143592410D01*
X244084050Y-143568449D01*
X244085091Y-143544079D01*
X244085438Y-143519298D01*
X244085438Y-143517623D01*
X244084906Y-143485811D01*
X244083310Y-143454862D01*
X244080649Y-143424777D01*
X244076924Y-143395556D01*
X244072134Y-143367199D01*
X244066280Y-143339705D01*
X244059362Y-143313075D01*
X244051380Y-143287308D01*
X244042333Y-143262405D01*
X244032222Y-143238366D01*
X244024890Y-143222820D01*
X244013032Y-143200142D01*
X243999979Y-143178170D01*
X243985732Y-143156905D01*
X243970289Y-143136347D01*
X243953650Y-143116496D01*
X243935817Y-143097351D01*
X243916788Y-143078912D01*
X243896565Y-143061181D01*
X243875146Y-143044156D01*
X243852531Y-143027837D01*
X243836791Y-143017351D01*
X243812195Y-143002042D01*
X243786238Y-142987312D01*
X243768178Y-142977814D01*
X243749512Y-142968573D01*
X243730242Y-142959589D01*
X243710366Y-142950863D01*
X243689886Y-142942394D01*
X243668801Y-142934183D01*
X243647111Y-142926228D01*
X243624816Y-142918532D01*
X243601917Y-142911092D01*
X243578412Y-142903910D01*
X243554303Y-142896985D01*
X243529588Y-142890318D01*
X243504269Y-142883908D01*
X243282919Y-142829191D01*
X243259028Y-142822972D01*
X243235931Y-142816458D01*
X243213628Y-142809650D01*
X243192119Y-142802548D01*
X243171404Y-142795151D01*
X243151482Y-142787459D01*
X243132355Y-142779474D01*
X243108086Y-142768368D01*
X243085229Y-142756739D01*
X243069013Y-142747673D01*
X243048603Y-142734928D01*
X243029557Y-142721536D01*
X243011876Y-142707499D01*
X242995560Y-142692817D01*
X242980609Y-142677488D01*
X242963840Y-142657420D01*
X242949203Y-142636344D01*
X242943945Y-142627630D01*
X242932221Y-142605114D01*
X242922484Y-142581535D01*
X242914734Y-142556892D01*
X242908971Y-142531186D01*
X242905196Y-142504417D01*
X242903407Y-142476584D01*
X242903248Y-142465154D01*
X242903248Y-142463479D01*
X242904093Y-142436556D01*
X242906629Y-142410506D01*
X242910856Y-142385329D01*
X242916772Y-142361023D01*
X242924380Y-142337591D01*
X242933678Y-142315030D01*
X242944666Y-142293342D01*
X242957345Y-142272527D01*
X242971684Y-142252714D01*
X242987402Y-142234036D01*
X243004501Y-142216492D01*
X243022981Y-142200082D01*
X243042841Y-142184806D01*
X243064081Y-142170665D01*
X243086701Y-142157657D01*
X243110702Y-142145784D01*
X243129601Y-142137701D01*
X243149076Y-142130414D01*
X243169127Y-142123922D01*
X243189754Y-142118224D01*
X243210956Y-142113322D01*
X243232734Y-142109215D01*
X243255088Y-142105902D01*
X243278018Y-142103385D01*
X243301523Y-142101662D01*
X243325605Y-142100735D01*
X243341979Y-142100558D01*
X243365433Y-142100946D01*
X243388338Y-142102109D01*
X243410694Y-142104047D01*
X243432499Y-142106761D01*
X243453756Y-142110250D01*
X243474462Y-142114515D01*
X243494619Y-142119554D01*
X243514226Y-142125369D01*
X243533284Y-142131960D01*
X243557839Y-142141953D01*
X243563825Y-142144667D01*
X243587198Y-142156296D01*
X243609423Y-142169129D01*
X243630500Y-142183166D01*
X243650430Y-142198407D01*
X243669212Y-142214852D01*
X243686846Y-142232501D01*
X243703333Y-142251353D01*
X243718672Y-142271410D01*
X243732870Y-142292479D01*
X243745689Y-142314646D01*
X243757127Y-142337913D01*
X243767185Y-142362280D01*
X243775863Y-142387745D01*
X243783160Y-142414310D01*
X243789077Y-142441974D01*
X243793613Y-142470737D01*
X243796095Y-142493071D01*
X244043749Y-142493071D01*
X244043749Y-142470179D01*
X244043388Y-142447804D01*
X244041495Y-142414871D01*
X244037979Y-142382694D01*
X244032841Y-142351273D01*
X244026080Y-142320607D01*
X244017696Y-142290697D01*
X244007690Y-142261543D01*
X243996060Y-142233145D01*
X243982809Y-142205502D01*
X243967934Y-142178615D01*
X243951437Y-142152484D01*
X243933676Y-142127265D01*
X243914825Y-142103117D01*
X243894883Y-142080038D01*
X243873851Y-142058029D01*
X243851728Y-142037089D01*
X243828515Y-142017220D01*
X243804211Y-141998420D01*
X243787403Y-141986481D01*
X243770110Y-141975018D01*
X243752332Y-141964030D01*
X243734070Y-141953517D01*
X243715323Y-141943480D01*
X243705768Y-141938640D01*
X243686435Y-141929310D01*
X243666777Y-141920581D01*
X243646793Y-141912455D01*
X243626484Y-141904930D01*
X243605848Y-141898008D01*
X243584887Y-141891687D01*
X243563601Y-141885968D01*
X243541988Y-141880852D01*
X243520050Y-141876337D01*
X243497786Y-141872424D01*
X243475197Y-141869114D01*
X243452282Y-141866405D01*
X243429041Y-141864298D01*
X243405474Y-141862793D01*
X243381582Y-141861890D01*
X243357364Y-141861589D01*
X243331983Y-141861903D01*
X243306958Y-141862845D01*
X243282291Y-141864416D01*
X243257980Y-141866614D01*
X243234025Y-141869441D01*
X243210428Y-141872895D01*
X243187187Y-141876978D01*
X243164303Y-141881689D01*
X243141775Y-141887028D01*
X243119605Y-141892996D01*
X243097791Y-141899591D01*
X243076333Y-141906815D01*
X243055233Y-141914666D01*
X243034489Y-141923146D01*
X243014102Y-141932254D01*
X242994071Y-141941990D01*
X242974549Y-141952280D01*
X242955561Y-141963050D01*
X242937109Y-141974299D01*
X242919192Y-141986029D01*
X242901810Y-141998238D01*
X242884963Y-142010927D01*
X242868651Y-142024096D01*
X242852874Y-142037745D01*
X242830211Y-142059118D01*
X242808753Y-142081570D01*
X242788499Y-142105102D01*
X242769448Y-142129714D01*
X242751602Y-142155405D01*
X242745921Y-142164209D01*
X242729867Y-142191188D01*
X242715392Y-142218941D01*
X242702497Y-142247471D01*
X242691180Y-142276775D01*
X242681443Y-142306855D01*
X242673284Y-142337711D01*
X242666705Y-142369341D01*
X242661704Y-142401747D01*
X242658283Y-142434929D01*
X242656880Y-142457480D01*
X242656178Y-142480377D01*
X242656090Y-142491954D01*
X242656090Y-142493629D01*
X242656635Y-142524044D01*
X242658271Y-142553733D01*
X242660997Y-142582696D01*
X242664814Y-142610933D01*
X242669721Y-142638443D01*
X242675719Y-142665227D01*
X242682807Y-142691284D01*
X242690986Y-142716616D01*
X242700256Y-142741221D01*
X242710615Y-142765100D01*
X242718128Y-142780615D01*
X242730411Y-142803303D01*
X242743811Y-142825304D01*
X242758328Y-142846618D01*
X242773962Y-142867245D01*
X242790712Y-142887185D01*
X242808579Y-142906438D01*
X242827562Y-142925004D01*
X242847662Y-142942883D01*
X242868879Y-142960075D01*
X242891213Y-142976579D01*
X242906722Y-142987201D01*
X242931054Y-143002590D01*
X242956589Y-143017351D01*
X242983328Y-143031484D01*
X243001823Y-143040557D01*
X243020853Y-143049351D01*
X243040418Y-143057866D01*
X243060519Y-143066101D01*
X243081154Y-143074057D01*
X243102324Y-143081735D01*
X243124030Y-143089133D01*
X243146270Y-143096251D01*
X243169046Y-143103091D01*
X243192356Y-143109652D01*
X243216202Y-143115933D01*
X243228326Y-143118969D01*
X243449676Y-143173686D01*
X243474974Y-143180323D01*
X243499376Y-143187252D01*
X243522883Y-143194473D01*
X243545493Y-143201987D01*
X243567208Y-143209793D01*
X243588028Y-143217891D01*
X243607952Y-143226281D01*
X243626980Y-143234964D01*
X243653843Y-143248536D01*
X243678690Y-143262765D01*
X243701522Y-143277652D01*
X243722339Y-143293197D01*
X243741141Y-143309399D01*
X243746961Y-143314946D01*
X243763280Y-143332116D01*
X243777995Y-143350337D01*
X243791104Y-143369608D01*
X243802609Y-143389929D01*
X243812507Y-143411300D01*
X243820801Y-143433722D01*
X243827489Y-143457193D01*
X243832573Y-143481715D01*
X243836051Y-143507287D01*
X243837923Y-143533909D01*
X243838280Y-143552240D01*
X243838280Y-143553915D01*
X243837381Y-143582355D01*
X243834682Y-143609889D01*
X243830184Y-143636514D01*
X243823887Y-143662233D01*
X243815792Y-143687044D01*
X243805896Y-143710948D01*
X243794202Y-143733945D01*
X243780709Y-143756034D01*
X243765572Y-143776911D01*
X243748946Y-143796548D01*
X243730831Y-143814947D01*
X243711227Y-143832108D01*
X243690134Y-143848029D01*
X243667552Y-143862712D01*
X243649639Y-143872910D01*
X243630888Y-143882413D01*
X243617922Y-143888360D01*
X243597943Y-143896542D01*
X243577274Y-143903920D01*
X243555916Y-143910492D01*
X243533869Y-143916260D01*
X243511133Y-143921223D01*
X243487707Y-143925381D01*
X243463592Y-143928734D01*
X243438789Y-143931283D01*
X243413295Y-143933026D01*
X243387113Y-143933965D01*
X243369275Y-143934144D01*
X243342586Y-143933747D01*
X243316489Y-143932554D01*
X243290986Y-143930567D01*
X243266076Y-143927784D01*
X243241759Y-143924207D01*
X243218035Y-143919834D01*
X243194905Y-143914667D01*
X243172368Y-143908705D01*
X243150424Y-143901947D01*
X243129073Y-143894395D01*
X243115169Y-143888919D01*
X243094983Y-143880110D01*
X243075556Y-143870644D01*
X243056888Y-143860520D01*
X243038979Y-143849739D01*
X243021829Y-143838300D01*
X243000143Y-143822025D01*
X242979806Y-143804582D01*
X242960819Y-143785969D01*
X242943181Y-143766187D01*
X242938982Y-143761059D01*
X242923271Y-143739781D01*
X242909142Y-143717543D01*
X242896595Y-143694346D01*
X242885630Y-143670189D01*
X242876246Y-143645073D01*
X242868445Y-143618996D01*
X242862226Y-143591961D01*
X242857588Y-143563965D01*
X242855107Y-143541632D01*
X242605964Y-143541632D01*
X242607453Y-143562849D01*
X242609327Y-143586102D01*
X242611849Y-143608964D01*
X242615019Y-143631433D01*
X242618836Y-143653509D01*
X242625776Y-143685887D01*
X242634173Y-143717382D01*
X242644027Y-143747994D01*
X242655338Y-143777722D01*
X242668106Y-143806567D01*
X242682330Y-143834528D01*
X242698012Y-143861607D01*
X242715150Y-143887802D01*
X242733699Y-143912901D01*
X242753425Y-143936901D01*
X242774330Y-143959801D01*
X242796412Y-143981603D01*
X242819671Y-144002305D01*
X242835832Y-144015496D01*
X242852516Y-144028198D01*
X242869724Y-144040412D01*
X242887455Y-144052137D01*
X242905710Y-144063373D01*
X242924488Y-144074121D01*
X242943789Y-144084381D01*
X242963614Y-144094152D01*
X242973723Y-144098854D01*
X242994335Y-144107846D01*
X243015350Y-144116259D01*
X243036769Y-144124091D01*
X243058591Y-144131342D01*
X243080816Y-144138014D01*
X243103444Y-144144106D01*
X243126475Y-144149617D01*
X243149910Y-144154548D01*
X243173748Y-144158900D01*
X243197989Y-144162671D01*
X243222634Y-144165861D01*
X243247681Y-144168472D01*
X243273132Y-144170503D01*
X243298987Y-144171953D01*
X243325244Y-144172823D01*
X243351905Y-144173113D01*
G37*
D12*
%TO.P,W1,1,Pin_1*%
%TO.N,/~{PINT}*%
X98958400Y-150990000D03*
%TD*%
D13*
%TO.P,U4,1*%
%TO.N,/~{DI_ENA}*%
X191871600Y-121208800D03*
D14*
%TO.P,U4,2*%
%TO.N,/D4*%
X194411600Y-121208800D03*
%TO.P,U4,3*%
%TO.N,/DI4*%
X196951600Y-121208800D03*
%TO.P,U4,4*%
%TO.N,/D5*%
X199491600Y-121208800D03*
%TO.P,U4,5*%
%TO.N,/DI5*%
X202031600Y-121208800D03*
%TO.P,U4,6*%
%TO.N,/D6*%
X204571600Y-121208800D03*
%TO.P,U4,7*%
%TO.N,/DI6*%
X207111600Y-121208800D03*
%TO.P,U4,8,GND*%
%TO.N,GND*%
X209651600Y-121208800D03*
%TO.P,U4,9*%
%TO.N,/DI7*%
X209651600Y-113588800D03*
%TO.P,U4,10*%
%TO.N,/D7*%
X207111600Y-113588800D03*
%TO.P,U4,11*%
%TO.N,unconnected-(U4-Pad11)*%
X204571600Y-113588800D03*
%TO.P,U4,12*%
%TO.N,unconnected-(U4-Pad12)*%
X202031600Y-113588800D03*
%TO.P,U4,13*%
%TO.N,/PRDY*%
X199491600Y-113588800D03*
%TO.P,U4,14*%
%TO.N,Net-(U11B-~{Q})*%
X196951600Y-113588800D03*
%TO.P,U4,15*%
X194411600Y-113588800D03*
%TO.P,U4,16,VCC*%
%TO.N,/VCC*%
X191871600Y-113588800D03*
%TD*%
D12*
%TO.P,P30,1,1*%
%TO.N,Net-(P30-Pad1)*%
X157480000Y-66294000D03*
%TD*%
%TO.P,P71,1,1*%
%TO.N,Net-(Q4-C)*%
X248920000Y-135382000D03*
%TD*%
%TO.P,R20,1*%
%TO.N,Net-(P81-Pad1)*%
X222631000Y-65278000D03*
D14*
%TO.P,R20,2*%
%TO.N,/-16_V*%
X222631000Y-77978000D03*
%TD*%
D15*
%TO.P,C1,1*%
%TO.N,/+12_V*%
X32385000Y-115316000D03*
D16*
%TO.P,C1,2*%
%TO.N,GND*%
X32385000Y-90316000D03*
%TD*%
D12*
%TO.P,R21,1*%
%TO.N,Net-(Q4-B)*%
X251333000Y-114300000D03*
D14*
%TO.P,R21,2*%
%TO.N,/VCC*%
X251333000Y-127000000D03*
%TD*%
D12*
%TO.P,P14,1,1*%
%TO.N,Net-(P14-Pad1)*%
X55118000Y-96012000D03*
%TD*%
D13*
%TO.P,D11,1,K*%
%TO.N,GND*%
X241046000Y-127000000D03*
D14*
%TO.P,D11,2,A*%
%TO.N,Net-(D10-K)*%
X241046000Y-114300000D03*
%TD*%
D12*
%TO.P,C17,1*%
%TO.N,/VCC*%
X70612000Y-105791000D03*
%TO.P,C17,2*%
%TO.N,GND*%
X70612000Y-113411000D03*
%TD*%
%TO.P,C12,1*%
%TO.N,/VCC*%
X191389000Y-53086000D03*
%TO.P,C12,2*%
%TO.N,GND*%
X191389000Y-60706000D03*
%TD*%
%TO.P,P109,1,1*%
%TO.N,/S1_4*%
X205783600Y-37236400D03*
%TD*%
%TO.P,P110,1,1*%
%TO.N,/S1_5*%
X209743600Y-37236400D03*
%TD*%
%TO.P,P89,1,1*%
%TO.N,/D_4*%
X161925000Y-33528000D03*
%TD*%
D13*
%TO.P,U10,1*%
%TO.N,/~{DO_ENA}*%
X144373601Y-121259601D03*
D14*
%TO.P,U10,2*%
%TO.N,/DO3*%
X146913601Y-121259601D03*
%TO.P,U10,3*%
%TO.N,/D3*%
X149453601Y-121259601D03*
%TO.P,U10,4*%
%TO.N,/DO2*%
X151993601Y-121259601D03*
%TO.P,U10,5*%
%TO.N,/D2*%
X154533601Y-121259601D03*
%TO.P,U10,6*%
%TO.N,/DO1*%
X157073601Y-121259601D03*
%TO.P,U10,7*%
%TO.N,/D1*%
X159613601Y-121259601D03*
%TO.P,U10,8,GND*%
%TO.N,GND*%
X162153601Y-121259601D03*
%TO.P,U10,9*%
%TO.N,/D0*%
X162153601Y-113639601D03*
%TO.P,U10,10*%
%TO.N,/DO0*%
X159613601Y-113639601D03*
%TO.P,U10,11*%
%TO.N,/DI2*%
X157073601Y-113639601D03*
%TO.P,U10,12*%
%TO.N,/D2*%
X154533601Y-113639601D03*
%TO.P,U10,13*%
%TO.N,/DI3*%
X151993601Y-113639601D03*
%TO.P,U10,14*%
%TO.N,/D3*%
X149453601Y-113639601D03*
%TO.P,U10,15*%
%TO.N,/~{DI_ENA}*%
X146913601Y-113639601D03*
%TO.P,U10,16,VCC*%
%TO.N,/VCC*%
X144373601Y-113639601D03*
%TD*%
D12*
%TO.P,P100,1,1*%
%TO.N,/S2_5*%
X249851600Y-37178400D03*
%TD*%
D13*
%TO.P,D6,1,K*%
%TO.N,Net-(D6-K)*%
X236855000Y-43434000D03*
D14*
%TO.P,D6,2,A*%
%TO.N,Net-(D6-A)*%
X236855000Y-56134000D03*
%TD*%
D12*
%TO.P,P3,1,1*%
%TO.N,Net-(P3-Pad1)*%
X74549000Y-134112000D03*
%TD*%
%TO.P,P25,1,1*%
%TO.N,Net-(P25-Pad1)*%
X189484000Y-71882000D03*
%TD*%
D13*
%TO.P,D5,1,K*%
%TO.N,GND*%
X240690400Y-107950000D03*
D14*
%TO.P,D5,2,A*%
%TO.N,Net-(D4-K)*%
X240690400Y-95250000D03*
%TD*%
D12*
%TO.P,P20,1,1*%
%TO.N,Net-(P20-Pad1)*%
X179171600Y-66675000D03*
%TD*%
%TO.P,R15,1*%
%TO.N,Net-(P79-Pad1)*%
X268351000Y-43434000D03*
D14*
%TO.P,R15,2*%
%TO.N,/-16_V*%
X268351000Y-56134000D03*
%TD*%
D17*
%TO.P,J3,1,Pin_1*%
%TO.N,/S2_1*%
X234005400Y-32257000D03*
%TO.P,J3,2,Pin_2*%
%TO.N,/S2_2*%
X237965400Y-32257000D03*
%TO.P,J3,3,Pin_3*%
%TO.N,/S2_3*%
X241925400Y-32257000D03*
%TO.P,J3,4,Pin_4*%
%TO.N,/S2_4*%
X245885400Y-32257000D03*
%TO.P,J3,5,Pin_5*%
%TO.N,/S2_5*%
X249845400Y-32257000D03*
%TO.P,J3,6,Pin_6*%
%TO.N,/S2_6*%
X253805400Y-32257000D03*
%TO.P,J3,7,Pin_7*%
%TO.N,/S2_7*%
X257765400Y-32257000D03*
%TO.P,J3,8,Pin_8*%
%TO.N,/S2_8*%
X261725400Y-32257000D03*
%TO.P,J3,9,Pin_9*%
%TO.N,/S2_9*%
X265685400Y-32257000D03*
%TO.P,J3,10,Pin_10*%
%TO.N,GND*%
X269645400Y-32257000D03*
%TD*%
D12*
%TO.P,P18,1,1*%
%TO.N,Net-(P18-Pad1)*%
X55118000Y-106045000D03*
%TD*%
D13*
%TO.P,U20,1,Q0*%
%TO.N,Net-(U20-Q0)*%
X68326000Y-35814000D03*
D14*
%TO.P,U20,2,Q1*%
%TO.N,Net-(U20-Q1)*%
X68326000Y-38354000D03*
%TO.P,U20,3,Q2*%
%TO.N,Net-(U20-Q2)*%
X68326000Y-40894000D03*
%TO.P,U20,4,~{E}*%
%TO.N,unconnected-(U20-~{E}-Pad4)*%
X68326000Y-43434000D03*
%TO.P,U20,5,CP*%
%TO.N,GND*%
X68326000Y-45974000D03*
%TO.P,U20,6,OX*%
%TO.N,Net-(U20-OX)*%
X68326000Y-48514000D03*
%TO.P,U20,7,IX*%
%TO.N,Net-(U20-IX)*%
X68326000Y-51054000D03*
%TO.P,U20,8,GND*%
%TO.N,GND*%
X68326000Y-53594000D03*
%TO.P,U20,9,CO*%
%TO.N,Net-(U20-CO)*%
X75946000Y-53594000D03*
%TO.P,U20,10,Z*%
%TO.N,Net-(U20-Z)*%
X75946000Y-51054000D03*
%TO.P,U20,11,S3*%
%TO.N,unconnected-(U20-S3-Pad11)*%
X75946000Y-48514000D03*
%TO.P,U20,12,S2*%
%TO.N,Net-(U20-Q2)*%
X75946000Y-45974000D03*
%TO.P,U20,13,S1*%
%TO.N,Net-(U20-Q1)*%
X75946000Y-43434000D03*
%TO.P,U20,14,S0*%
%TO.N,Net-(U20-Q0)*%
X75946000Y-40894000D03*
%TO.P,U20,15,IM*%
%TO.N,unconnected-(U20-IM-Pad15)*%
X75946000Y-38354000D03*
%TO.P,U20,16,VCC*%
%TO.N,/VCC*%
X75946000Y-35814000D03*
%TD*%
D12*
%TO.P,P7,1,1*%
%TO.N,Net-(P7-Pad1)*%
X101600000Y-129032000D03*
%TD*%
D15*
%TO.P,C2,1*%
%TO.N,GND*%
X32385000Y-120904000D03*
D16*
%TO.P,C2,2*%
%TO.N,/-12_V*%
X32385000Y-145904000D03*
%TD*%
D13*
%TO.P,U5,1*%
%TO.N,Net-(U11B-~{R})*%
X103022400Y-95885000D03*
D14*
%TO.P,U5,2*%
%TO.N,Net-(U3-Pad4)*%
X103022400Y-98425000D03*
%TO.P,U5,3*%
%TO.N,/PWAIT*%
X103022400Y-100965000D03*
%TO.P,U5,4*%
%TO.N,Net-(U3-Pad5)*%
X103022400Y-103505000D03*
%TO.P,U5,5*%
%TO.N,Net-(U3-Pad2)*%
X103022400Y-106045000D03*
%TO.P,U5,6*%
%TO.N,/PDBIN*%
X103022400Y-108585000D03*
%TO.P,U5,7,GND*%
%TO.N,GND*%
X103022400Y-111125000D03*
%TO.P,U5,8*%
%TO.N,unconnected-(U5-Pad8)*%
X110642400Y-111125000D03*
%TO.P,U5,9*%
%TO.N,unconnected-(U5-Pad9)*%
X110642400Y-108585000D03*
%TO.P,U5,10*%
%TO.N,unconnected-(U5-Pad10)*%
X110642400Y-106045000D03*
%TO.P,U5,11*%
%TO.N,unconnected-(U5-Pad11)*%
X110642400Y-103505000D03*
%TO.P,U5,12*%
%TO.N,unconnected-(U5-Pad12)*%
X110642400Y-100965000D03*
%TO.P,U5,13*%
%TO.N,unconnected-(U5-Pad13)*%
X110642400Y-98425000D03*
%TO.P,U5,14,VCC*%
%TO.N,/VCC*%
X110642400Y-95885000D03*
%TD*%
D12*
%TO.P,W6,1,Pin_1*%
%TO.N,/~{VI4}*%
X85928200Y-150990000D03*
%TD*%
%TO.P,P54,1,1*%
%TO.N,Net-(P54-Pad1)*%
X176530000Y-43180000D03*
%TD*%
D13*
%TO.P,U2,1*%
%TO.N,/A6*%
X106680000Y-121412000D03*
D14*
%TO.P,U2,2*%
%TO.N,Net-(P6-Pad1)*%
X106680000Y-123952000D03*
%TO.P,U2,3*%
%TO.N,/A7*%
X106680000Y-126492000D03*
%TO.P,U2,4*%
%TO.N,Net-(P7-Pad1)*%
X106680000Y-129032000D03*
%TO.P,U2,5*%
X106680000Y-131572000D03*
%TO.P,U2,6*%
%TO.N,Net-(P13-Pad1)*%
X106680000Y-134112000D03*
%TO.P,U2,7,GND*%
%TO.N,GND*%
X106680000Y-136652000D03*
%TO.P,U2,8*%
%TO.N,Net-(U2-Pad8)*%
X114300000Y-136652000D03*
%TO.P,U2,9*%
%TO.N,Net-(U2-Pad9)*%
X114300000Y-134112000D03*
%TO.P,U2,10*%
%TO.N,Net-(U2-Pad10)*%
X114300000Y-131572000D03*
%TO.P,U2,11*%
%TO.N,/SINP*%
X114300000Y-129032000D03*
%TO.P,U2,12*%
%TO.N,/R{slash}~{W}*%
X114300000Y-126492000D03*
%TO.P,U2,13*%
%TO.N,/SOUT*%
X114300000Y-123952000D03*
%TO.P,U2,14,VCC*%
%TO.N,/VCC*%
X114300000Y-121412000D03*
%TD*%
D12*
%TO.P,P49,1,1*%
%TO.N,Net-(P49-Pad1)*%
X157480000Y-63754000D03*
%TD*%
%TO.P,P58,1,1*%
%TO.N,Net-(D3-K)*%
X209423000Y-60706000D03*
%TD*%
D18*
%TO.P,R2,1*%
%TO.N,/-16_V*%
X44069000Y-120904000D03*
D16*
%TO.P,R2,2*%
%TO.N,/-12_V*%
X44069000Y-141224000D03*
%TD*%
D13*
%TO.P,U22,1,A0*%
%TO.N,Net-(U20-Q0)*%
X81915000Y-35814000D03*
D14*
%TO.P,U22,2,A1*%
%TO.N,Net-(U20-Q1)*%
X81915000Y-38354000D03*
%TO.P,U22,3,A2*%
%TO.N,Net-(U20-Q2)*%
X81915000Y-40894000D03*
%TO.P,U22,4,Q0*%
%TO.N,/110*%
X81915000Y-43434000D03*
%TO.P,U22,5,Q1*%
%TO.N,/9600*%
X81915000Y-45974000D03*
%TO.P,U22,6,Q2*%
%TO.N,/4800*%
X81915000Y-48514000D03*
%TO.P,U22,7,Q3*%
%TO.N,/1800*%
X81915000Y-51054000D03*
%TO.P,U22,8,GND*%
%TO.N,GND*%
X81915000Y-53594000D03*
%TO.P,U22,9,Q4*%
%TO.N,/1200*%
X89535000Y-53594000D03*
%TO.P,U22,10,Q5*%
%TO.N,/2400*%
X89535000Y-51054000D03*
%TO.P,U22,11,Q6*%
%TO.N,/300*%
X89535000Y-48514000D03*
%TO.P,U22,12,Q7*%
%TO.N,/150*%
X89535000Y-45974000D03*
%TO.P,U22,13,D*%
%TO.N,Net-(U20-Z)*%
X89535000Y-43434000D03*
%TO.P,U22,14,E*%
%TO.N,Net-(U20-CO)*%
X89535000Y-40894000D03*
%TO.P,U22,15,Clr*%
%TO.N,unconnected-(U22-Clr-Pad15)*%
X89535000Y-38354000D03*
%TO.P,U22,16,VCC*%
%TO.N,/VCC*%
X89535000Y-35814000D03*
%TD*%
D12*
%TO.P,R23,1*%
%TO.N,Net-(D15-K)*%
X233045000Y-65151000D03*
D14*
%TO.P,R23,2*%
%TO.N,GND*%
X233045000Y-77851000D03*
%TD*%
D12*
%TO.P,R3,1*%
%TO.N,Net-(D3-K)*%
X210185000Y-43434000D03*
D14*
%TO.P,R3,2*%
%TO.N,GND*%
X210185000Y-56134000D03*
%TD*%
D12*
%TO.P,P60,1,1*%
%TO.N,Net-(D9-K)*%
X256540000Y-60706000D03*
%TD*%
%TO.P,W3,1,Pin_1*%
%TO.N,/~{VI1}*%
X76403200Y-150990000D03*
%TD*%
%TO.P,P88,1,1*%
%TO.N,/D_3*%
X158115000Y-33528000D03*
%TD*%
D15*
%TO.P,C6,1*%
%TO.N,Net-(D12-K)*%
X204851000Y-65278000D03*
D16*
%TO.P,C6,2*%
%TO.N,GND*%
X204851000Y-83278000D03*
%TD*%
D12*
%TO.P,W5,1,Pin_1*%
%TO.N,/~{VI3}*%
X82753200Y-150990000D03*
%TD*%
%TO.P,P21,1,1*%
%TO.N,Net-(P21-Pad1)*%
X189484000Y-79349600D03*
%TD*%
%TO.P,P99,1,1*%
%TO.N,/S2_4*%
X245891600Y-37178400D03*
%TD*%
%TO.P,P68,1,1*%
%TO.N,Net-(Q1-C)*%
X241300000Y-135382000D03*
%TD*%
%TO.P,R19,1*%
%TO.N,Net-(D12-A)*%
X218313000Y-65278000D03*
D14*
%TO.P,R19,2*%
%TO.N,/+16_V*%
X218313000Y-77978000D03*
%TD*%
D12*
%TO.P,P37,1,1*%
%TO.N,Net-(P37-Pad1)*%
X157480000Y-53340000D03*
%TD*%
%TO.P,P114,1,1*%
%TO.N,/S1_9*%
X225583600Y-37236400D03*
%TD*%
D15*
%TO.P,C5,1*%
%TO.N,Net-(D9-K)*%
X251206000Y-43434000D03*
D16*
%TO.P,C5,2*%
%TO.N,GND*%
X251206000Y-61434000D03*
%TD*%
D12*
%TO.P,P40,1,1*%
%TO.N,Net-(P40-Pad1)*%
X209753200Y-102819200D03*
%TD*%
%TO.P,R22,1*%
%TO.N,/VCC*%
X255397000Y-127000000D03*
D14*
%TO.P,R22,2*%
%TO.N,Net-(D13-A)*%
X255397000Y-114300000D03*
%TD*%
D12*
%TO.P,P42,1,1*%
%TO.N,Net-(P42-Pad1)*%
X179171600Y-64135000D03*
%TD*%
D18*
%TO.P,R1,1*%
%TO.N,/+16_V*%
X44069000Y-90297000D03*
D16*
%TO.P,R1,2*%
%TO.N,/+12_V*%
X44069000Y-110617000D03*
%TD*%
D13*
%TO.P,U15,1,VSS*%
%TO.N,GND*%
X126390400Y-66294000D03*
D14*
%TO.P,U15,2,Rx_Data*%
%TO.N,/E_3*%
X126390400Y-68834000D03*
%TO.P,U15,3,Rx_CLK*%
%TO.N,/CK1*%
X126390400Y-71374000D03*
%TO.P,U15,4,Tx_CLK*%
X126390400Y-73914000D03*
%TO.P,U15,5,~{RTS}*%
%TO.N,/E_4*%
X126390400Y-76454000D03*
%TO.P,U15,6,Tx_Data*%
%TO.N,/E_5*%
X126390400Y-78994000D03*
%TO.P,U15,7,~{IRQ}*%
%TO.N,/~{EI}*%
X126390400Y-81534000D03*
%TO.P,U15,8,CS0*%
%TO.N,/VCC*%
X126390400Y-84074000D03*
%TO.P,U15,9,CS2*%
%TO.N,/~{CS2}*%
X126390400Y-86614000D03*
%TO.P,U15,10,CS1*%
%TO.N,/E_CS1*%
X126390400Y-89154000D03*
%TO.P,U15,11,RS*%
%TO.N,/RS*%
X126390400Y-91694000D03*
%TO.P,U15,12,VCC*%
%TO.N,/VCC*%
X126390400Y-94234000D03*
%TO.P,U15,13,R/~{W}*%
%TO.N,/R{slash}~{W}*%
X141630400Y-94234000D03*
%TO.P,U15,14,E*%
%TO.N,/E*%
X141630400Y-91694000D03*
%TO.P,U15,15,D7*%
%TO.N,/D7*%
X141630400Y-89154000D03*
%TO.P,U15,16,D6*%
%TO.N,/D6*%
X141630400Y-86614000D03*
%TO.P,U15,17,D5*%
%TO.N,/D5*%
X141630400Y-84074000D03*
%TO.P,U15,18,D4*%
%TO.N,/D4*%
X141630400Y-81534000D03*
%TO.P,U15,19,D3*%
%TO.N,/D3*%
X141630400Y-78994000D03*
%TO.P,U15,20,D2*%
%TO.N,/D2*%
X141630400Y-76454000D03*
%TO.P,U15,21,D1*%
%TO.N,/D1*%
X141630400Y-73914000D03*
%TO.P,U15,22,D0*%
%TO.N,/D0*%
X141630400Y-71374000D03*
%TO.P,U15,23,~{DCD}*%
%TO.N,/E_1*%
X141630400Y-68834000D03*
%TO.P,U15,24,~{CTS}*%
%TO.N,/E_2*%
X141630400Y-66294000D03*
%TD*%
D12*
%TO.P,P87,1,1*%
%TO.N,/D_2*%
X154305000Y-33528000D03*
%TD*%
%TO.P,P69,1,1*%
%TO.N,Net-(Q2-C)*%
X256540000Y-135382000D03*
%TD*%
%TO.P,P94,1,1*%
%TO.N,/E_4*%
X180975000Y-33528000D03*
%TD*%
%TO.P,P96,1,1*%
%TO.N,/S2_1*%
X234011600Y-37178400D03*
%TD*%
%TO.P,P39,1,1*%
%TO.N,Net-(P39-Pad1)*%
X157556200Y-76454000D03*
%TD*%
D19*
%TO.P,Q3,1,C*%
%TO.N,Net-(Q3-C)*%
X246761000Y-117957600D03*
D20*
%TO.P,Q3,2,B*%
%TO.N,Net-(Q3-B)*%
X245491000Y-116687600D03*
%TO.P,Q3,3,E*%
%TO.N,Net-(D10-A)*%
X246761000Y-115417600D03*
%TD*%
D13*
%TO.P,D9,1,K*%
%TO.N,Net-(D9-K)*%
X260223000Y-43434000D03*
D14*
%TO.P,D9,2,A*%
%TO.N,Net-(D9-A)*%
X260223000Y-56134000D03*
%TD*%
D12*
%TO.P,C13,1*%
%TO.N,GND*%
X164541200Y-121310400D03*
%TO.P,C13,2*%
%TO.N,/VCC*%
X164541200Y-113690400D03*
%TD*%
%TO.P,P43,1,1*%
%TO.N,Net-(P43-Pad1)*%
X189484000Y-81788000D03*
%TD*%
%TO.P,P113,1,1*%
%TO.N,/S1_8*%
X221623600Y-37236400D03*
%TD*%
%TO.P,P28,1,1*%
%TO.N,Net-(U18A-1A)*%
X157556200Y-71374000D03*
%TD*%
D13*
%TO.P,U14,1,VSS*%
%TO.N,GND*%
X126365000Y-33401000D03*
D14*
%TO.P,U14,2,Rx_Data*%
%TO.N,/D_3*%
X126365000Y-35941000D03*
%TO.P,U14,3,Rx_CLK*%
%TO.N,/CK0*%
X126365000Y-38481000D03*
%TO.P,U14,4,Tx_CLK*%
X126365000Y-41021000D03*
%TO.P,U14,5,~{RTS}*%
%TO.N,/D_4*%
X126365000Y-43561000D03*
%TO.P,U14,6,Tx_Data*%
%TO.N,/D_5*%
X126365000Y-46101000D03*
%TO.P,U14,7,~{IRQ}*%
%TO.N,/~{DI}*%
X126365000Y-48641000D03*
%TO.P,U14,8,CS0*%
%TO.N,/VCC*%
X126365000Y-51181000D03*
%TO.P,U14,9,CS2*%
%TO.N,/~{CS2}*%
X126365000Y-53721000D03*
%TO.P,U14,10,CS1*%
%TO.N,/D_CS1*%
X126365000Y-56261000D03*
%TO.P,U14,11,RS*%
%TO.N,/RS*%
X126365000Y-58801000D03*
%TO.P,U14,12,VCC*%
%TO.N,/VCC*%
X126365000Y-61341000D03*
%TO.P,U14,13,R/~{W}*%
%TO.N,/R{slash}~{W}*%
X141605000Y-61341000D03*
%TO.P,U14,14,E*%
%TO.N,/E*%
X141605000Y-58801000D03*
%TO.P,U14,15,D7*%
%TO.N,/D7*%
X141605000Y-56261000D03*
%TO.P,U14,16,D6*%
%TO.N,/D6*%
X141605000Y-53721000D03*
%TO.P,U14,17,D5*%
%TO.N,/D5*%
X141605000Y-51181000D03*
%TO.P,U14,18,D4*%
%TO.N,/D4*%
X141605000Y-48641000D03*
%TO.P,U14,19,D3*%
%TO.N,/D3*%
X141605000Y-46101000D03*
%TO.P,U14,20,D2*%
%TO.N,/D2*%
X141605000Y-43561000D03*
%TO.P,U14,21,D1*%
%TO.N,/D1*%
X141605000Y-41021000D03*
%TO.P,U14,22,D0*%
%TO.N,/D0*%
X141605000Y-38481000D03*
%TO.P,U14,23,~{DCD}*%
%TO.N,/D_1*%
X141605000Y-35941000D03*
%TO.P,U14,24,~{CTS}*%
%TO.N,/D_2*%
X141605000Y-33401000D03*
%TD*%
D12*
%TO.P,R5,1*%
%TO.N,Net-(P75-Pad1)*%
X222631000Y-43434000D03*
D14*
%TO.P,R5,2*%
%TO.N,/-16_V*%
X222631000Y-56134000D03*
%TD*%
D12*
%TO.P,P56,1,1*%
%TO.N,Net-(P56-Pad1)*%
X157505400Y-73914000D03*
%TD*%
%TO.P,P66,1,1*%
%TO.N,Net-(P66-Pad1)*%
X157480000Y-48260000D03*
%TD*%
%TO.P,P72,1,1*%
%TO.N,Net-(P72-Pad1)*%
X157480000Y-50800000D03*
%TD*%
D13*
%TO.P,D8,1,K*%
%TO.N,GND*%
X262890000Y-107950000D03*
D14*
%TO.P,D8,2,A*%
%TO.N,Net-(D7-K)*%
X262890000Y-95250000D03*
%TD*%
D19*
%TO.P,Q2,1,C*%
%TO.N,Net-(Q2-C)*%
X268020800Y-99009200D03*
D20*
%TO.P,Q2,2,B*%
%TO.N,Net-(Q2-B)*%
X266750800Y-97739200D03*
%TO.P,Q2,3,E*%
%TO.N,Net-(D7-A)*%
X268020800Y-96469200D03*
%TD*%
D13*
%TO.P,D7,1,K*%
%TO.N,Net-(D7-K)*%
X259029200Y-107950000D03*
D14*
%TO.P,D7,2,A*%
%TO.N,Net-(D7-A)*%
X259029200Y-95250000D03*
%TD*%
D12*
%TO.P,P108,1,1*%
%TO.N,/S1_3*%
X201823600Y-37236400D03*
%TD*%
%TO.P,P13,1,1*%
%TO.N,Net-(P13-Pad1)*%
X101600000Y-134112000D03*
%TD*%
D13*
%TO.P,U1,1*%
%TO.N,/A0*%
X80162400Y-121412000D03*
D14*
%TO.P,U1,2*%
%TO.N,Net-(U1-Pad2)*%
X80162400Y-123952000D03*
%TO.P,U1,3*%
%TO.N,/A1*%
X80162400Y-126492000D03*
%TO.P,U1,4*%
%TO.N,/D_CS1*%
X80162400Y-129032000D03*
%TO.P,U1,5*%
%TO.N,/A2*%
X80162400Y-131572000D03*
%TO.P,U1,6*%
%TO.N,Net-(P2-Pad1)*%
X80162400Y-134112000D03*
%TO.P,U1,7,GND*%
%TO.N,GND*%
X80162400Y-136652000D03*
%TO.P,U1,8*%
%TO.N,Net-(P3-Pad1)*%
X87782400Y-136652000D03*
%TO.P,U1,9*%
%TO.N,/A3*%
X87782400Y-134112000D03*
%TO.P,U1,10*%
%TO.N,Net-(P4-Pad1)*%
X87782400Y-131572000D03*
%TO.P,U1,11*%
%TO.N,/A4*%
X87782400Y-129032000D03*
%TO.P,U1,12*%
%TO.N,Net-(P5-Pad1)*%
X87782400Y-126492000D03*
%TO.P,U1,13*%
%TO.N,/A5*%
X87782400Y-123952000D03*
%TO.P,U1,14,VCC*%
%TO.N,/VCC*%
X87782400Y-121412000D03*
%TD*%
D13*
%TO.P,U11,1,C*%
%TO.N,/~{DI_ENA}*%
X97180400Y-68199000D03*
D14*
%TO.P,U11,2,~{R}*%
%TO.N,Net-(U11B-~{R})*%
X97180400Y-70739000D03*
%TO.P,U11,3,K*%
%TO.N,GND*%
X97180400Y-73279000D03*
%TO.P,U11,4,VCC*%
%TO.N,/VCC*%
X97180400Y-75819000D03*
%TO.P,U11,5,C*%
%TO.N,unconnected-(U11A-C-Pad5)*%
X97180400Y-78359000D03*
%TO.P,U11,6,~{R}*%
%TO.N,unconnected-(U11A-~{R}-Pad6)*%
X97180400Y-80899000D03*
%TO.P,U11,7,J*%
%TO.N,GND*%
X97180400Y-83439000D03*
%TO.P,U11,8,~{Q}*%
%TO.N,unconnected-(U11A-~{Q}-Pad8)*%
X104800400Y-83439000D03*
%TO.P,U11,9,Q*%
%TO.N,unconnected-(U11A-Q-Pad9)*%
X104800400Y-80899000D03*
%TO.P,U11,10,K*%
%TO.N,unconnected-(U11A-K-Pad10)*%
X104800400Y-78359000D03*
%TO.P,U11,11,GND*%
%TO.N,GND*%
X104800400Y-75819000D03*
%TO.P,U11,12,Q*%
%TO.N,unconnected-(U11B-Q-Pad12)*%
X104800400Y-73279000D03*
%TO.P,U11,13,~{Q}*%
%TO.N,Net-(U11B-~{Q})*%
X104800400Y-70739000D03*
%TO.P,U11,14,J*%
%TO.N,/VCC*%
X104800400Y-68199000D03*
%TD*%
D13*
%TO.P,U23,1*%
%TO.N,Net-(P27-Pad1)*%
X217424000Y-95148400D03*
D14*
%TO.P,U23,2*%
%TO.N,Net-(Q1-B)*%
X217424000Y-97688400D03*
%TO.P,U23,3*%
%TO.N,Net-(P29-Pad1)*%
X217424000Y-100228400D03*
%TO.P,U23,4*%
%TO.N,Net-(Q2-B)*%
X217424000Y-102768400D03*
%TO.P,U23,5*%
%TO.N,Net-(P38-Pad1)*%
X217424000Y-105308400D03*
%TO.P,U23,6*%
%TO.N,Net-(Q3-B)*%
X217424000Y-107848400D03*
%TO.P,U23,7,GND*%
%TO.N,GND*%
X217424000Y-110388400D03*
%TO.P,U23,8*%
%TO.N,Net-(Q4-B)*%
X225044000Y-110388400D03*
%TO.P,U23,9*%
%TO.N,Net-(P40-Pad1)*%
X225044000Y-107848400D03*
%TO.P,U23,10*%
%TO.N,unconnected-(U23-Pad10)*%
X225044000Y-105308400D03*
%TO.P,U23,11*%
%TO.N,unconnected-(U23-Pad11)*%
X225044000Y-102768400D03*
%TO.P,U23,12*%
%TO.N,unconnected-(U23-Pad12)*%
X225044000Y-100228400D03*
%TO.P,U23,13*%
%TO.N,unconnected-(U23-Pad13)*%
X225044000Y-97688400D03*
%TO.P,U23,14,VCC*%
%TO.N,/VCC*%
X225044000Y-95148400D03*
%TD*%
D12*
%TO.P,P81,1,1*%
%TO.N,Net-(P81-Pad1)*%
X215265000Y-88773000D03*
%TD*%
%TO.P,P2,1,1*%
%TO.N,Net-(P2-Pad1)*%
X54229000Y-131572000D03*
%TD*%
%TO.P,P77,1,1*%
%TO.N,Net-(P77-Pad1)*%
X240919000Y-60706000D03*
%TD*%
%TO.P,P57,1,1*%
%TO.N,Net-(P57-Pad1)*%
X157556200Y-78994000D03*
%TD*%
%TO.P,W9,1,Pin_1*%
%TO.N,/~{VI7}*%
X95450400Y-150990000D03*
%TD*%
D13*
%TO.P,D18,1,K*%
%TO.N,Net-(D18-K)*%
X260223000Y-65151000D03*
D14*
%TO.P,D18,2,A*%
%TO.N,Net-(D18-A)*%
X260223000Y-77851000D03*
%TD*%
D12*
%TO.P,W10,1,Pin_1*%
%TO.N,/~{DI}*%
X77876400Y-147320000D03*
%TD*%
%TO.P,P78,1,1*%
%TO.N,Net-(D9-A)*%
X260223000Y-60706000D03*
%TD*%
D15*
%TO.P,C7,1*%
%TO.N,Net-(D15-K)*%
X227584000Y-65151000D03*
D16*
%TO.P,C7,2*%
%TO.N,GND*%
X227584000Y-83151000D03*
%TD*%
D13*
%TO.P,U13,1*%
%TO.N,Net-(P43-Pad1)*%
X191643000Y-85217000D03*
D14*
%TO.P,U13,2*%
%TO.N,unconnected-(U13-Pad2)*%
X191643000Y-87757000D03*
%TO.P,U13,3*%
%TO.N,Net-(P21-Pad1)*%
X191643000Y-90297000D03*
%TO.P,U13,4*%
%TO.N,Net-(P45-Pad1)*%
X191643000Y-92837000D03*
%TO.P,U13,5*%
%TO.N,unconnected-(U13-Pad5)*%
X191643000Y-95377000D03*
%TO.P,U13,6*%
%TO.N,Net-(P23-Pad1)*%
X191643000Y-97917000D03*
%TO.P,U13,7,GND*%
%TO.N,GND*%
X191643000Y-100457000D03*
%TO.P,U13,8*%
%TO.N,Net-(P25-Pad1)*%
X199263000Y-100457000D03*
%TO.P,U13,9*%
%TO.N,unconnected-(U13-Pad9)*%
X199263000Y-97917000D03*
%TO.P,U13,10*%
%TO.N,Net-(P47-Pad1)*%
X199263000Y-95377000D03*
%TO.P,U13,11*%
%TO.N,Net-(P32-Pad1)*%
X199263000Y-92837000D03*
%TO.P,U13,12*%
%TO.N,unconnected-(U13-Pad12)*%
X199263000Y-90297000D03*
%TO.P,U13,13*%
%TO.N,Net-(P51-Pad1)*%
X199263000Y-87757000D03*
%TO.P,U13,14,VCC*%
%TO.N,/VCC*%
X199263000Y-85217000D03*
%TD*%
D12*
%TO.P,P34,1,1*%
%TO.N,Net-(P34-Pad1)*%
X173024800Y-79248000D03*
%TD*%
%TO.P,P47,1,1*%
%TO.N,Net-(P47-Pad1)*%
X189484000Y-69088000D03*
%TD*%
D21*
%TO.P,D2,1,K*%
%TO.N,GND*%
X38989000Y-120904000D03*
D22*
%TO.P,D2,2,A*%
%TO.N,/-12_V*%
X38989000Y-133604000D03*
%TD*%
D12*
%TO.P,P33,1,1*%
%TO.N,Net-(P33-Pad1)*%
X176530000Y-50800000D03*
%TD*%
%TO.P,P44,1,1*%
%TO.N,Net-(P44-Pad1)*%
X179171600Y-69215000D03*
%TD*%
%TO.P,C14,1*%
%TO.N,/VCC*%
X108839000Y-68326000D03*
%TO.P,C14,2*%
%TO.N,GND*%
X108839000Y-75946000D03*
%TD*%
D13*
%TO.P,D4,1,K*%
%TO.N,Net-(D4-K)*%
X237032800Y-107950000D03*
D14*
%TO.P,D4,2,A*%
%TO.N,Net-(D4-A)*%
X237032800Y-95250000D03*
%TD*%
D12*
%TO.P,C10,1*%
%TO.N,GND*%
X73761600Y-79883000D03*
%TO.P,C10,2*%
%TO.N,Net-(U20-OX)*%
X73761600Y-69883000D03*
%TD*%
D13*
%TO.P,U16,1*%
%TO.N,Net-(P53-Pad1)*%
X172974000Y-85217000D03*
D14*
%TO.P,U16,2*%
%TO.N,unconnected-(U16-Pad2)*%
X172974000Y-87757000D03*
%TO.P,U16,3*%
%TO.N,Net-(P34-Pad1)*%
X172974000Y-90297000D03*
%TO.P,U16,4*%
%TO.N,Net-(P55-Pad1)*%
X172974000Y-92837000D03*
%TO.P,U16,5*%
%TO.N,unconnected-(U16-Pad5)*%
X172974000Y-95377000D03*
%TO.P,U16,6*%
%TO.N,Net-(P36-Pad1)*%
X172974000Y-97917000D03*
%TO.P,U16,7,GND*%
%TO.N,GND*%
X172974000Y-100457000D03*
%TO.P,U16,8*%
%TO.N,unconnected-(U16-Pad8)*%
X180594000Y-100457000D03*
%TO.P,U16,9*%
%TO.N,unconnected-(U16-Pad9)*%
X180594000Y-97917000D03*
%TO.P,U16,10*%
%TO.N,unconnected-(U16-Pad10)*%
X180594000Y-95377000D03*
%TO.P,U16,11*%
%TO.N,unconnected-(U16-Pad11)*%
X180594000Y-92837000D03*
%TO.P,U16,12*%
%TO.N,unconnected-(U16-Pad12)*%
X180594000Y-90297000D03*
%TO.P,U16,13*%
%TO.N,unconnected-(U16-Pad13)*%
X180594000Y-87757000D03*
%TO.P,U16,14,VCC*%
%TO.N,/VCC*%
X180594000Y-85217000D03*
%TD*%
D12*
%TO.P,P93,1,1*%
%TO.N,/E_3*%
X177165000Y-33528000D03*
%TD*%
D13*
%TO.P,U8,1*%
%TO.N,Net-(P14-Pad1)*%
X58826400Y-96012000D03*
D14*
%TO.P,U8,2*%
%TO.N,Net-(P15-Pad1)*%
X58826400Y-98552000D03*
%TO.P,U8,3*%
%TO.N,Net-(P16-Pad1)*%
X58826400Y-101092000D03*
%TO.P,U8,4*%
%TO.N,Net-(P17-Pad1)*%
X58826400Y-103632000D03*
%TO.P,U8,5*%
%TO.N,Net-(P18-Pad1)*%
X58826400Y-106172000D03*
%TO.P,U8,6*%
%TO.N,Net-(P19-Pad1)*%
X58826400Y-108712000D03*
%TO.P,U8,7,GND*%
%TO.N,GND*%
X58826400Y-111252000D03*
%TO.P,U8,8*%
%TO.N,Net-(U2-Pad9)*%
X66446400Y-111252000D03*
%TO.P,U8,9*%
%TO.N,N/C*%
X66446400Y-108712000D03*
%TO.P,U8,10*%
X66446400Y-106172000D03*
%TO.P,U8,11*%
%TO.N,/VCC*%
X66446400Y-103632000D03*
%TO.P,U8,12*%
X66446400Y-101092000D03*
%TO.P,U8,13*%
%TO.N,N/C*%
X66446400Y-98552000D03*
%TO.P,U8,14,VCC*%
%TO.N,/VCC*%
X66446400Y-96012000D03*
%TD*%
D12*
%TO.P,P85,1,1*%
%TO.N,Net-(P85-Pad1)*%
X261620000Y-88798400D03*
%TD*%
%TO.P,P10,1,1*%
%TO.N,Net-(P10-Pad1)*%
X72517000Y-131572000D03*
%TD*%
%TO.P,R28,1*%
%TO.N,Net-(U20-OX)*%
X66802000Y-80264000D03*
D14*
%TO.P,R28,2*%
%TO.N,Net-(U20-IX)*%
X66802000Y-67564000D03*
%TD*%
D15*
%TO.P,C3,1*%
%TO.N,Net-(D3-K)*%
X204851000Y-43434000D03*
D16*
%TO.P,C3,2*%
%TO.N,GND*%
X204851000Y-61434000D03*
%TD*%
D13*
%TO.P,U7,1*%
%TO.N,Net-(U2-Pad8)*%
X81153000Y-68199000D03*
D14*
%TO.P,U7,2*%
%TO.N,Net-(U7-Pad11)*%
X81153000Y-70739000D03*
%TO.P,U7,3*%
%TO.N,/~{CS2}*%
X81153000Y-73279000D03*
%TO.P,U7,4*%
%TO.N,Net-(U2-Pad8)*%
X81153000Y-75819000D03*
%TO.P,U7,5*%
%TO.N,Net-(U3-Pad8)*%
X81153000Y-78359000D03*
%TO.P,U7,6*%
%TO.N,/~{DO_ENA}*%
X81153000Y-80899000D03*
%TO.P,U7,7,GND*%
%TO.N,GND*%
X81153000Y-83439000D03*
%TO.P,U7,8*%
%TO.N,/~{DI_ENA}*%
X88773000Y-83439000D03*
%TO.P,U7,9*%
%TO.N,Net-(U2-Pad8)*%
X88773000Y-80899000D03*
%TO.P,U7,10*%
%TO.N,/SINP*%
X88773000Y-78359000D03*
%TO.P,U7,11*%
%TO.N,Net-(U7-Pad11)*%
X88773000Y-75819000D03*
%TO.P,U7,12*%
%TO.N,Net-(U2-Pad10)*%
X88773000Y-73279000D03*
%TO.P,U7,13*%
%TO.N,/R{slash}~{W}*%
X88773000Y-70739000D03*
%TO.P,U7,14,VCC*%
%TO.N,/VCC*%
X88773000Y-68199000D03*
%TD*%
D12*
%TO.P,P29,1,1*%
%TO.N,Net-(P29-Pad1)*%
X209753200Y-97688400D03*
%TD*%
D23*
%TO.P,U24,1,IN*%
%TO.N,/+8_V*%
X37592000Y-61214000D03*
D24*
%TO.P,U24,2,GND*%
%TO.N,GND*%
X40132000Y-65151000D03*
%TO.P,U24,3,OUT*%
%TO.N,/VCC*%
X42672000Y-61214000D03*
%TD*%
D12*
%TO.P,R10,1*%
%TO.N,Net-(P77-Pad1)*%
X245745000Y-43434000D03*
D14*
%TO.P,R10,2*%
%TO.N,/-16_V*%
X245745000Y-56134000D03*
%TD*%
D12*
%TO.P,P45,1,1*%
%TO.N,Net-(P45-Pad1)*%
X189484000Y-76835000D03*
%TD*%
%TO.P,R4,1*%
%TO.N,Net-(D3-A)*%
X218313000Y-43434000D03*
D14*
%TO.P,R4,2*%
%TO.N,/+16_V*%
X218313000Y-56134000D03*
%TD*%
D12*
%TO.P,C18,1*%
%TO.N,/VCC*%
X62738000Y-117729000D03*
%TO.P,C18,2*%
%TO.N,GND*%
X55118000Y-117729000D03*
%TD*%
D13*
%TO.P,D13,1,K*%
%TO.N,Net-(D13-K)*%
X259461000Y-127000000D03*
D14*
%TO.P,D13,2,A*%
%TO.N,Net-(D13-A)*%
X259461000Y-114300000D03*
%TD*%
D12*
%TO.P,P73,1,1*%
%TO.N,Net-(P73-Pad1)*%
X157480000Y-60960000D03*
%TD*%
D25*
%TO.P,P1,1,+8_V*%
%TO.N,/+8_V*%
X63700000Y-158486000D03*
%TO.P,P1,2,+16_V*%
%TO.N,/+16_V*%
X66875000Y-158486000D03*
%TO.P,P1,3,XRDY*%
%TO.N,unconnected-(P1-XRDY-Pad3)*%
X70050000Y-158486000D03*
%TO.P,P1,4,VIO\u002A*%
%TO.N,/~{VI0}*%
X73225000Y-158486000D03*
%TO.P,P1,5,VI1\u002A*%
%TO.N,/~{VI1}*%
X76400000Y-158486000D03*
%TO.P,P1,6,VI2\u002A*%
%TO.N,/~{VI2}*%
X79575000Y-158486000D03*
%TO.P,P1,7,VI3\u002A*%
%TO.N,/~{VI3}*%
X82750000Y-158486000D03*
%TO.P,P1,8,VI4\u002A*%
%TO.N,/~{VI4}*%
X85925000Y-158486000D03*
%TO.P,P1,9,VI5\u002A*%
%TO.N,/~{VI5}*%
X89100000Y-158486000D03*
%TO.P,P1,10,VI6\u002A*%
%TO.N,/~{VI6}*%
X92275000Y-158486000D03*
%TO.P,P1,11,VI7\u002A*%
%TO.N,/~{VI7}*%
X95450000Y-158486000D03*
%TO.P,P1,12,NMI\u002A*%
%TO.N,unconnected-(P1-NMI\u002A-Pad12)*%
X98625000Y-158486000D03*
%TO.P,P1,13*%
%TO.N,unconnected-(P1-Pad13)*%
X101800000Y-158486000D03*
%TO.P,P1,14*%
%TO.N,unconnected-(P1-Pad14)*%
X104975000Y-158486000D03*
%TO.P,P1,15*%
%TO.N,unconnected-(P1-Pad15)*%
X108150000Y-158486000D03*
%TO.P,P1,16*%
%TO.N,unconnected-(P1-Pad16)*%
X111325000Y-158486000D03*
%TO.P,P1,17*%
%TO.N,unconnected-(P1-Pad17)*%
X114500000Y-158486000D03*
%TO.P,P1,18,~{STA_DSB}*%
%TO.N,unconnected-(P1-~{STA_DSB}-Pad18)*%
X117675000Y-158486000D03*
%TO.P,P1,19,~{CC_DSB}*%
%TO.N,unconnected-(P1-~{CC_DSB}-Pad19)*%
X120850000Y-158486000D03*
%TO.P,P1,20,UNPROT*%
%TO.N,unconnected-(P1-UNPROT-Pad20)*%
X124025000Y-158486000D03*
%TO.P,P1,21,SS*%
%TO.N,unconnected-(P1-SS-Pad21)*%
X127200000Y-158486000D03*
%TO.P,P1,22,~{ADD_DSB}*%
%TO.N,unconnected-(P1-~{ADD_DSB}-Pad22)*%
X130375000Y-158486000D03*
%TO.P,P1,23,~{DO_DSB}*%
%TO.N,unconnected-(P1-~{DO_DSB}-Pad23)*%
X133550000Y-158486000D03*
%TO.P,P1,24,PHI*%
%TO.N,unconnected-(P1-PHI-Pad24)*%
X136725000Y-158486000D03*
%TO.P,P1,25,pSTVAL\u002A*%
%TO.N,unconnected-(P1-pSTVAL\u002A-Pad25)*%
X139900000Y-158486000D03*
%TO.P,P1,26,pHDLA*%
%TO.N,unconnected-(P1-pHDLA-Pad26)*%
X143075000Y-158486000D03*
%TO.P,P1,27,pWAIT*%
%TO.N,/PWAIT*%
X146250000Y-158486000D03*
%TO.P,P1,28,pINTE*%
%TO.N,unconnected-(P1-pINTE-Pad28)*%
X149425000Y-158486000D03*
%TO.P,P1,29,A5*%
%TO.N,/A5*%
X152600000Y-158486000D03*
%TO.P,P1,30,A4*%
%TO.N,/A4*%
X155775000Y-158486000D03*
%TO.P,P1,31,A3*%
%TO.N,/A3*%
X158950000Y-158486000D03*
%TO.P,P1,32,A15*%
%TO.N,/A15*%
X162125000Y-158486000D03*
%TO.P,P1,33,A12*%
%TO.N,/A12*%
X165300000Y-158486000D03*
%TO.P,P1,34,A9*%
%TO.N,/A9*%
X168475000Y-158486000D03*
%TO.P,P1,35,DO1*%
%TO.N,/DO1*%
X171650000Y-158486000D03*
%TO.P,P1,36,DO0*%
%TO.N,/DO0*%
X174825000Y-158486000D03*
%TO.P,P1,37,A10*%
%TO.N,/A10*%
X178000000Y-158486000D03*
%TO.P,P1,38,DO4*%
%TO.N,/DO4*%
X181175000Y-158486000D03*
%TO.P,P1,39,DO5*%
%TO.N,/DO5*%
X184350000Y-158486000D03*
%TO.P,P1,40,DO6*%
%TO.N,/DO6*%
X187525000Y-158486000D03*
%TO.P,P1,41,DI2*%
%TO.N,/DI2*%
X190700000Y-158486000D03*
%TO.P,P1,42,DI3*%
%TO.N,/DI3*%
X193875000Y-158486000D03*
%TO.P,P1,43,DI7*%
%TO.N,/DI7*%
X197050000Y-158486000D03*
%TO.P,P1,44,sM1*%
%TO.N,unconnected-(P1-sM1-Pad44)*%
X200225000Y-158486000D03*
%TO.P,P1,45,sOUT*%
%TO.N,/SOUT*%
X203400000Y-158486000D03*
%TO.P,P1,46,sINP*%
%TO.N,/SINP*%
X206575000Y-158486000D03*
%TO.P,P1,47,sMEMR*%
%TO.N,unconnected-(P1-sMEMR-Pad47)*%
X209750000Y-158486000D03*
%TO.P,P1,48,sHLTA*%
%TO.N,unconnected-(P1-sHLTA-Pad48)*%
X212925000Y-158486000D03*
%TO.P,P1,49,CLOCK*%
%TO.N,unconnected-(P1-CLOCK-Pad49)*%
X216100000Y-158486000D03*
%TO.P,P1,50,0_V2*%
%TO.N,unconnected-(P1-0_V2-Pad50)*%
X219275000Y-158486000D03*
%TD*%
D12*
%TO.P,P26,1,1*%
%TO.N,Net-(P26-Pad1)*%
X157480000Y-43180000D03*
%TD*%
%TO.P,P11,1,1*%
%TO.N,Net-(P11-Pad1)*%
X70866000Y-126492000D03*
%TD*%
%TO.P,C22,1*%
%TO.N,/VCC*%
X214376000Y-113665000D03*
%TO.P,C22,2*%
%TO.N,GND*%
X214376000Y-121285000D03*
%TD*%
%TO.P,C15,1*%
%TO.N,/VCC*%
X94615000Y-102108000D03*
%TO.P,C15,2*%
%TO.N,GND*%
X99513042Y-107945259D03*
%TD*%
%TO.P,P19,1,1*%
%TO.N,Net-(P19-Pad1)*%
X97536000Y-109855000D03*
%TD*%
%TO.P,R27,1*%
%TO.N,Net-(D18-A)*%
X264033000Y-65151000D03*
D14*
%TO.P,R27,2*%
%TO.N,/+16_V*%
X264033000Y-77851000D03*
%TD*%
D12*
%TO.P,R24,1*%
%TO.N,Net-(D15-A)*%
X240919000Y-65151000D03*
D14*
%TO.P,R24,2*%
%TO.N,/+16_V*%
X240919000Y-77851000D03*
%TD*%
D12*
%TO.P,C23,1*%
%TO.N,/VCC*%
X183896000Y-92608400D03*
%TO.P,C23,2*%
%TO.N,GND*%
X183896000Y-100228400D03*
%TD*%
%TO.P,P65,1,1*%
%TO.N,Net-(P65-Pad1)*%
X157480000Y-55880000D03*
%TD*%
%TO.P,P61,1,1*%
%TO.N,Net-(D12-K)*%
X207670400Y-88747600D03*
%TD*%
%TO.P,P52,1,1*%
%TO.N,Net-(P52-Pad1)*%
X176530000Y-48260000D03*
%TD*%
%TO.P,P86,1,1*%
%TO.N,/D_1*%
X150495000Y-33528000D03*
%TD*%
%TO.P,P24,1,1*%
%TO.N,Net-(P24-Pad1)*%
X179273200Y-76835000D03*
%TD*%
%TO.P,R8,1*%
%TO.N,Net-(D6-K)*%
X233045000Y-43434000D03*
D14*
%TO.P,R8,2*%
%TO.N,GND*%
X233045000Y-56134000D03*
%TD*%
D12*
%TO.P,R12,1*%
%TO.N,/VCC*%
X255422400Y-107950000D03*
D14*
%TO.P,R12,2*%
%TO.N,Net-(D7-A)*%
X255422400Y-95250000D03*
%TD*%
D12*
%TO.P,P5,1,1*%
%TO.N,Net-(P5-Pad1)*%
X70866000Y-123952000D03*
%TD*%
D13*
%TO.P,D12,1,K*%
%TO.N,Net-(D12-K)*%
X213995000Y-65278000D03*
D14*
%TO.P,D12,2,A*%
%TO.N,Net-(D12-A)*%
X213995000Y-77978000D03*
%TD*%
D12*
%TO.P,P23,1,1*%
%TO.N,Net-(P23-Pad1)*%
X189484000Y-74295000D03*
%TD*%
%TO.P,P35,1,1*%
%TO.N,Net-(P35-Pad1)*%
X176530000Y-45720000D03*
%TD*%
%TO.P,P90,1,1*%
%TO.N,/D_5*%
X165735000Y-33528000D03*
%TD*%
D13*
%TO.P,D3,1,K*%
%TO.N,Net-(D3-K)*%
X213995000Y-43434000D03*
D14*
%TO.P,D3,2,A*%
%TO.N,Net-(D3-A)*%
X213995000Y-56134000D03*
%TD*%
D12*
%TO.P,W4,1,Pin_1*%
%TO.N,/~{VI2}*%
X79578200Y-150990000D03*
%TD*%
%TO.P,R30,1*%
%TO.N,Net-(P85-Pad1)*%
X268351000Y-65151000D03*
D14*
%TO.P,R30,2*%
%TO.N,/-16_V*%
X268351000Y-77851000D03*
%TD*%
D13*
%TO.P,U9,1*%
%TO.N,/~{DO_ENA}*%
X167030400Y-121259600D03*
D14*
%TO.P,U9,2*%
%TO.N,/DO7*%
X169570400Y-121259600D03*
%TO.P,U9,3*%
%TO.N,/D7*%
X172110400Y-121259600D03*
%TO.P,U9,4*%
%TO.N,/DO6*%
X174650400Y-121259600D03*
%TO.P,U9,5*%
%TO.N,/D6*%
X177190400Y-121259600D03*
%TO.P,U9,6*%
%TO.N,/DO5*%
X179730400Y-121259600D03*
%TO.P,U9,7*%
%TO.N,/D5*%
X182270400Y-121259600D03*
%TO.P,U9,8,GND*%
%TO.N,GND*%
X184810400Y-121259600D03*
%TO.P,U9,9*%
%TO.N,/D4*%
X184810400Y-113639600D03*
%TO.P,U9,10*%
%TO.N,/DO4*%
X182270400Y-113639600D03*
%TO.P,U9,11*%
%TO.N,/DI0*%
X179730400Y-113639600D03*
%TO.P,U9,12*%
%TO.N,/D0*%
X177190400Y-113639600D03*
%TO.P,U9,13*%
%TO.N,/DI1*%
X174650400Y-113639600D03*
%TO.P,U9,14*%
%TO.N,/D1*%
X172110400Y-113639600D03*
%TO.P,U9,15*%
%TO.N,/~{DI_ENA}*%
X169570400Y-113639600D03*
%TO.P,U9,16,VCC*%
%TO.N,/VCC*%
X167030400Y-113639600D03*
%TD*%
D12*
%TO.P,P70,1,1*%
%TO.N,Net-(Q3-C)*%
X233680000Y-135382000D03*
%TD*%
%TO.P,W2,1,Pin_1*%
%TO.N,/~{VI0}*%
X73228200Y-150990000D03*
%TD*%
%TO.P,P107,1,1*%
%TO.N,/S1_2*%
X197860400Y-37236400D03*
%TD*%
%TO.P,R25,1*%
%TO.N,Net-(P83-Pad1)*%
X245745000Y-65278000D03*
D14*
%TO.P,R25,2*%
%TO.N,/-16_V*%
X245745000Y-77978000D03*
%TD*%
D12*
%TO.P,P48,1,1*%
%TO.N,Net-(U18A-1B)*%
X157505400Y-68834000D03*
%TD*%
%TO.P,P67,1,1*%
%TO.N,Net-(P67-Pad1)*%
X157480000Y-58420000D03*
%TD*%
%TO.P,P16,1,1*%
%TO.N,Net-(P16-Pad1)*%
X71755000Y-99822000D03*
%TD*%
%TO.P,C20,1*%
%TO.N,/VCC*%
X168808400Y-95250000D03*
%TO.P,C20,2*%
%TO.N,GND*%
X168808400Y-102870000D03*
%TD*%
%TO.P,P103,1,1*%
%TO.N,/S2_8*%
X261731600Y-37178400D03*
%TD*%
%TO.P,P74,1,1*%
%TO.N,Net-(D3-A)*%
X213995000Y-60706000D03*
%TD*%
%TO.P,C21,1*%
%TO.N,/VCC*%
X78867002Y-35813996D03*
%TO.P,C21,2*%
%TO.N,GND*%
X78867002Y-43433996D03*
%TD*%
D13*
%TO.P,U21,1*%
%TO.N,Net-(P54-Pad1)*%
X180086000Y-43180000D03*
D14*
%TO.P,U21,2*%
%TO.N,Net-(P35-Pad1)*%
X180086000Y-45720000D03*
%TO.P,U21,3*%
%TO.N,Net-(P52-Pad1)*%
X180086000Y-48260000D03*
%TO.P,U21,4*%
%TO.N,Net-(P33-Pad1)*%
X180086000Y-50800000D03*
%TO.P,U21,5*%
%TO.N,Net-(P50-Pad1)*%
X180086000Y-53340000D03*
%TO.P,U21,6*%
%TO.N,Net-(P31-Pad1)*%
X180086000Y-55880000D03*
%TO.P,U21,7,GND*%
%TO.N,GND*%
X180086000Y-58420000D03*
%TO.P,U21,8*%
%TO.N,Net-(P24-Pad1)*%
X187706000Y-58420000D03*
%TO.P,U21,9*%
%TO.N,Net-(P46-Pad1)*%
X187706000Y-55880000D03*
%TO.P,U21,10*%
%TO.N,Net-(P22-Pad1)*%
X187706000Y-53340000D03*
%TO.P,U21,11*%
%TO.N,Net-(P44-Pad1)*%
X187706000Y-50800000D03*
%TO.P,U21,12*%
%TO.N,Net-(P20-Pad1)*%
X187706000Y-48260000D03*
%TO.P,U21,13*%
%TO.N,Net-(P42-Pad1)*%
X187706000Y-45720000D03*
%TO.P,U21,14,VCC*%
%TO.N,/VCC*%
X187706000Y-43180000D03*
%TD*%
D12*
%TO.P,P38,1,1*%
%TO.N,Net-(P38-Pad1)*%
X209753200Y-100228400D03*
%TD*%
%TO.P,P98,1,1*%
%TO.N,/S2_3*%
X241931600Y-37174400D03*
%TD*%
%TO.P,R9,1*%
%TO.N,Net-(D6-A)*%
X240919000Y-43434000D03*
D14*
%TO.P,R9,2*%
%TO.N,/+16_V*%
X240919000Y-56134000D03*
%TD*%
D12*
%TO.P,P51,1,1*%
%TO.N,Net-(P51-Pad1)*%
X189484000Y-64262000D03*
%TD*%
%TO.P,P53,1,1*%
%TO.N,Net-(P53-Pad1)*%
X173024800Y-81661000D03*
%TD*%
D17*
%TO.P,J2,1,Pin_1*%
%TO.N,/S1_1*%
X193907400Y-32227000D03*
%TO.P,J2,2,Pin_2*%
%TO.N,/S1_2*%
X197867400Y-32227000D03*
%TO.P,J2,3,Pin_3*%
%TO.N,/S1_3*%
X201827400Y-32227000D03*
%TO.P,J2,4,Pin_4*%
%TO.N,/S1_4*%
X205787400Y-32227000D03*
%TO.P,J2,5,Pin_5*%
%TO.N,/S1_5*%
X209747400Y-32227000D03*
%TO.P,J2,6,Pin_6*%
%TO.N,/S1_6*%
X213707400Y-32227000D03*
%TO.P,J2,7,Pin_7*%
%TO.N,/S1_7*%
X217667400Y-32227000D03*
%TO.P,J2,8,Pin_8*%
%TO.N,/S1_8*%
X221627400Y-32227000D03*
%TO.P,J2,9,Pin_9*%
%TO.N,/S1_9*%
X225587400Y-32227000D03*
%TO.P,J2,10,Pin_10*%
%TO.N,GND*%
X229547400Y-32227000D03*
%TD*%
D12*
%TO.P,P36,1,1*%
%TO.N,Net-(P36-Pad1)*%
X173024800Y-74218800D03*
%TD*%
%TO.P,R17,1*%
%TO.N,/VCC*%
X233172000Y-127000000D03*
D14*
%TO.P,R17,2*%
%TO.N,Net-(D10-A)*%
X233172000Y-114300000D03*
%TD*%
D12*
%TO.P,W8,1,Pin_1*%
%TO.N,/~{VI6}*%
X92278200Y-150990000D03*
%TD*%
%TO.P,P22,1,1*%
%TO.N,Net-(P22-Pad1)*%
X179222400Y-71755000D03*
%TD*%
%TO.P,P6,1,1*%
%TO.N,Net-(P6-Pad1)*%
X55626000Y-126492000D03*
%TD*%
%TO.P,P106,1,1*%
%TO.N,/S1_1*%
X193903600Y-37236400D03*
%TD*%
%TO.P,W11,1,Pin_1*%
%TO.N,/~{EI}*%
X90932000Y-147320000D03*
%TD*%
D15*
%TO.P,C4,1*%
%TO.N,Net-(D6-K)*%
X227584000Y-43434000D03*
D16*
%TO.P,C4,2*%
%TO.N,GND*%
X227584000Y-61434000D03*
%TD*%
D12*
%TO.P,P64,1,1*%
%TO.N,Net-(P64-Pad1)*%
X157480000Y-45720000D03*
%TD*%
%TO.P,P102,1,1*%
%TO.N,/S2_7*%
X257753600Y-37178400D03*
%TD*%
%TO.P,P9,1,1*%
%TO.N,Net-(P9-Pad1)*%
X74549000Y-136652000D03*
%TD*%
D13*
%TO.P,U3,1*%
%TO.N,/~{PWR}*%
X81915000Y-96012000D03*
D14*
%TO.P,U3,2*%
%TO.N,Net-(U3-Pad2)*%
X81915000Y-98552000D03*
%TO.P,U3,3*%
%TO.N,/~{POC}*%
X81915000Y-101092000D03*
%TO.P,U3,4*%
%TO.N,Net-(U3-Pad4)*%
X81915000Y-103632000D03*
%TO.P,U3,5*%
%TO.N,Net-(U3-Pad5)*%
X81915000Y-106172000D03*
%TO.P,U3,6*%
%TO.N,/E*%
X81915000Y-108712000D03*
%TO.P,U3,7,GND*%
%TO.N,GND*%
X81915000Y-111252000D03*
%TO.P,U3,8*%
%TO.N,Net-(U3-Pad8)*%
X89535000Y-111252000D03*
%TO.P,U3,9*%
%TO.N,/R{slash}~{W}*%
X89535000Y-108712000D03*
%TO.P,U3,10*%
%TO.N,/RS*%
X89535000Y-106172000D03*
%TO.P,U3,11*%
%TO.N,Net-(U1-Pad2)*%
X89535000Y-103632000D03*
%TO.P,U3,12*%
%TO.N,unconnected-(U3-Pad12)*%
X89535000Y-101092000D03*
%TO.P,U3,13*%
%TO.N,unconnected-(U3-Pad13)*%
X89535000Y-98552000D03*
%TO.P,U3,14,VCC*%
%TO.N,/VCC*%
X89535000Y-96012000D03*
%TD*%
D12*
%TO.P,P31,1,1*%
%TO.N,Net-(P31-Pad1)*%
X176530000Y-55880000D03*
%TD*%
D13*
%TO.P,D10,1,K*%
%TO.N,Net-(D10-K)*%
X236855000Y-127000000D03*
D14*
%TO.P,D10,2,A*%
%TO.N,Net-(D10-A)*%
X236855000Y-114300000D03*
%TD*%
D12*
%TO.P,P50,1,1*%
%TO.N,Net-(P50-Pad1)*%
X176530000Y-53340000D03*
%TD*%
%TO.P,P63,1,1*%
%TO.N,Net-(D18-K)*%
X253238000Y-88798400D03*
%TD*%
D19*
%TO.P,Q4,1,C*%
%TO.N,Net-(Q4-C)*%
X268071600Y-118008400D03*
D20*
%TO.P,Q4,2,B*%
%TO.N,Net-(Q4-B)*%
X266801600Y-116738400D03*
%TO.P,Q4,3,E*%
%TO.N,Net-(D13-A)*%
X268071600Y-115468400D03*
%TD*%
D12*
%TO.P,P46,1,1*%
%TO.N,Net-(P46-Pad1)*%
X179197000Y-74295000D03*
%TD*%
D13*
%TO.P,D14,1,K*%
%TO.N,GND*%
X262940800Y-127050800D03*
D14*
%TO.P,D14,2,A*%
%TO.N,Net-(D13-K)*%
X262940800Y-114350800D03*
%TD*%
D15*
%TO.P,C8,1*%
%TO.N,Net-(D18-K)*%
X251206000Y-65151000D03*
D16*
%TO.P,C8,2*%
%TO.N,GND*%
X251206000Y-83151000D03*
%TD*%
D12*
%TO.P,P76,1,1*%
%TO.N,Net-(D6-A)*%
X236855000Y-60706000D03*
%TD*%
%TO.P,R14,1*%
%TO.N,Net-(D9-A)*%
X264033000Y-43434000D03*
D14*
%TO.P,R14,2*%
%TO.N,/+16_V*%
X264033000Y-56134000D03*
%TD*%
D12*
%TO.P,P59,1,1*%
%TO.N,Net-(D6-K)*%
X233045000Y-60706000D03*
%TD*%
%TO.P,P80,1,1*%
%TO.N,Net-(D12-A)*%
X211429600Y-88747600D03*
%TD*%
D13*
%TO.P,U6,1*%
%TO.N,/D_CS1*%
X58978800Y-121412000D03*
D14*
%TO.P,U6,2*%
%TO.N,/E_CS1*%
X58978800Y-123952000D03*
%TO.P,U6,3*%
%TO.N,Net-(P6-Pad1)*%
X58978800Y-126492000D03*
%TO.P,U6,4*%
%TO.N,Net-(P12-Pad1)*%
X58978800Y-129032000D03*
%TO.P,U6,5*%
%TO.N,Net-(P2-Pad1)*%
X58978800Y-131572000D03*
%TO.P,U6,6*%
%TO.N,Net-(P8-Pad1)*%
X58978800Y-134112000D03*
%TO.P,U6,7,GND*%
%TO.N,GND*%
X58978800Y-136652000D03*
%TO.P,U6,8*%
%TO.N,Net-(P9-Pad1)*%
X66598800Y-136652000D03*
%TO.P,U6,9*%
%TO.N,Net-(P3-Pad1)*%
X66598800Y-134112000D03*
%TO.P,U6,10*%
%TO.N,Net-(P10-Pad1)*%
X66598800Y-131572000D03*
%TO.P,U6,11*%
%TO.N,Net-(P4-Pad1)*%
X66598800Y-129032000D03*
%TO.P,U6,12*%
%TO.N,Net-(P11-Pad1)*%
X66598800Y-126492000D03*
%TO.P,U6,13*%
%TO.N,Net-(P5-Pad1)*%
X66598800Y-123952000D03*
%TO.P,U6,14,VCC*%
%TO.N,/VCC*%
X66598800Y-121412000D03*
%TD*%
D12*
%TO.P,P115,1,1*%
%TO.N,GND*%
X229543600Y-37236400D03*
%TD*%
%TO.P,P4,1,1*%
%TO.N,Net-(P4-Pad1)*%
X72517000Y-129032000D03*
%TD*%
%TO.P,R13,1*%
%TO.N,Net-(D9-K)*%
X256540000Y-43434000D03*
D14*
%TO.P,R13,2*%
%TO.N,GND*%
X256540000Y-56134000D03*
%TD*%
D13*
%TO.P,J1,1,Pin_1*%
%TO.N,/110*%
X105003600Y-35763200D03*
D14*
%TO.P,J1,2,Pin_2*%
%TO.N,/9600*%
X105003600Y-38303200D03*
%TO.P,J1,3,Pin_3*%
%TO.N,/4800*%
X105003600Y-40843200D03*
%TO.P,J1,4,Pin_4*%
%TO.N,/1800*%
X105003600Y-43383200D03*
%TO.P,J1,5,Pin_5*%
%TO.N,/150*%
X105003600Y-45923200D03*
%TO.P,J1,6,Pin_6*%
%TO.N,/300*%
X105003600Y-48463200D03*
%TO.P,J1,7,Pin_7*%
%TO.N,/2400*%
X105003600Y-51003200D03*
%TO.P,J1,8,Pin_8*%
%TO.N,/1200*%
X105003600Y-53543200D03*
%TO.P,J1,9,Pin_9*%
%TO.N,unconnected-(J1-Pin_9-Pad9)*%
X112623600Y-53543200D03*
%TO.P,J1,10,Pin_10*%
%TO.N,unconnected-(J1-Pin_10-Pad10)*%
X112623600Y-51003200D03*
%TO.P,J1,11,Pin_11*%
%TO.N,unconnected-(J1-Pin_11-Pad11)*%
X112623600Y-48463200D03*
%TO.P,J1,12,Pin_12*%
%TO.N,/CK1*%
X112623600Y-45923200D03*
%TO.P,J1,13,Pin_13*%
%TO.N,unconnected-(J1-Pin_13-Pad13)*%
X112623600Y-43383200D03*
%TO.P,J1,14,Pin_14*%
%TO.N,/CK0*%
X112623600Y-40843200D03*
%TO.P,J1,15,Pin_15*%
%TO.N,unconnected-(J1-Pin_15-Pad15)*%
X112623600Y-38303200D03*
%TO.P,J1,16,Pin_16*%
%TO.N,unconnected-(J1-Pin_16-Pad16)*%
X112623600Y-35763200D03*
%TD*%
D12*
%TO.P,R18,1*%
%TO.N,Net-(D12-K)*%
X210185000Y-65278000D03*
D14*
%TO.P,R18,2*%
%TO.N,GND*%
X210185000Y-77978000D03*
%TD*%
D12*
%TO.P,P79,1,1*%
%TO.N,Net-(P79-Pad1)*%
X264033000Y-60706000D03*
%TD*%
%TO.P,P91,1,1*%
%TO.N,/E_1*%
X169545000Y-33528000D03*
%TD*%
%TO.P,C19,1*%
%TO.N,/VCC*%
X123393200Y-32410400D03*
%TO.P,C19,2*%
%TO.N,GND*%
X115773200Y-32410400D03*
%TD*%
%TO.P,C16,1*%
%TO.N,/VCC*%
X91137052Y-119678339D03*
%TO.P,C16,2*%
%TO.N,GND*%
X86766400Y-113436400D03*
%TD*%
%TO.P,P95,1,1*%
%TO.N,/E_5*%
X184785000Y-33528000D03*
%TD*%
%TO.P,P15,1,1*%
%TO.N,Net-(P15-Pad1)*%
X71755000Y-97282000D03*
%TD*%
%TO.P,R16,1*%
%TO.N,Net-(Q3-B)*%
X229235000Y-114300000D03*
D14*
%TO.P,R16,2*%
%TO.N,/VCC*%
X229235000Y-127000000D03*
%TD*%
D12*
%TO.P,P83,1,1*%
%TO.N,Net-(P83-Pad1)*%
X238861600Y-88747600D03*
%TD*%
%TO.P,W7,1,Pin_1*%
%TO.N,/~{VI5}*%
X89103200Y-150977600D03*
%TD*%
%TO.P,P17,1,1*%
%TO.N,Net-(P17-Pad1)*%
X70612000Y-102362000D03*
%TD*%
%TO.P,P8,1,1*%
%TO.N,Net-(P8-Pad1)*%
X54229000Y-134112000D03*
%TD*%
%TO.P,P75,1,1*%
%TO.N,Net-(P75-Pad1)*%
X218338400Y-60706000D03*
%TD*%
D13*
%TO.P,U19,1*%
%TO.N,Net-(P26-Pad1)*%
X161036000Y-43180000D03*
D14*
%TO.P,U19,2*%
%TO.N,Net-(P64-Pad1)*%
X161036000Y-45720000D03*
%TO.P,U19,3*%
%TO.N,Net-(P66-Pad1)*%
X161036000Y-48260000D03*
%TO.P,U19,4*%
%TO.N,Net-(P72-Pad1)*%
X161036000Y-50800000D03*
%TO.P,U19,5*%
%TO.N,Net-(P37-Pad1)*%
X161036000Y-53340000D03*
%TO.P,U19,6*%
%TO.N,Net-(P65-Pad1)*%
X161036000Y-55880000D03*
%TO.P,U19,7,GND*%
%TO.N,GND*%
X161036000Y-58420000D03*
%TO.P,U19,8*%
%TO.N,Net-(P73-Pad1)*%
X168656000Y-58420000D03*
%TO.P,U19,9*%
%TO.N,Net-(P67-Pad1)*%
X168656000Y-55880000D03*
%TO.P,U19,10*%
%TO.N,unconnected-(U19-Pad10)*%
X168656000Y-53340000D03*
%TO.P,U19,11*%
%TO.N,unconnected-(U19-Pad11)*%
X168656000Y-50800000D03*
%TO.P,U19,12*%
%TO.N,unconnected-(U19-Pad12)*%
X168656000Y-48260000D03*
%TO.P,U19,13*%
%TO.N,unconnected-(U19-Pad13)*%
X168656000Y-45720000D03*
%TO.P,U19,14,VCC*%
%TO.N,/VCC*%
X168656000Y-43180000D03*
%TD*%
D12*
%TO.P,P41,1,1*%
%TO.N,Net-(P41-Pad1)*%
X157607000Y-81534000D03*
%TD*%
%TO.P,P32,1,1*%
%TO.N,Net-(P32-Pad1)*%
X189484000Y-66675000D03*
%TD*%
%TO.P,R7,1*%
%TO.N,/VCC*%
X233172000Y-107950000D03*
D14*
%TO.P,R7,2*%
%TO.N,Net-(D4-A)*%
X233172000Y-95250000D03*
%TD*%
D12*
%TO.P,P105,1,1*%
%TO.N,GND*%
X269640800Y-37178400D03*
%TD*%
%TO.P,P112,1,1*%
%TO.N,/S1_7*%
X217663600Y-37236400D03*
%TD*%
D15*
%TO.P,C11,1*%
%TO.N,/+8_V*%
X32512000Y-82499200D03*
D16*
%TO.P,C11,2*%
%TO.N,GND*%
X32512000Y-64499200D03*
%TD*%
D19*
%TO.P,Q1,1,C*%
%TO.N,Net-(Q1-C)*%
X246532400Y-99060000D03*
D20*
%TO.P,Q1,2,B*%
%TO.N,Net-(Q1-B)*%
X245262400Y-97790000D03*
%TO.P,Q1,3,E*%
%TO.N,Net-(D4-A)*%
X246532400Y-96520000D03*
%TD*%
D12*
%TO.P,P97,1,1*%
%TO.N,/S2_2*%
X237971600Y-37178400D03*
%TD*%
%TO.P,R11,1*%
%TO.N,Net-(Q2-B)*%
X251333000Y-95250000D03*
D14*
%TO.P,R11,2*%
%TO.N,/VCC*%
X251333000Y-107950000D03*
%TD*%
D13*
%TO.P,D15,1,K*%
%TO.N,Net-(D15-K)*%
X236728000Y-65176400D03*
D14*
%TO.P,D15,2,A*%
%TO.N,Net-(D15-A)*%
X236728000Y-77876400D03*
%TD*%
D12*
%TO.P,P84,1,1*%
%TO.N,Net-(D18-A)*%
X257606800Y-88798400D03*
%TD*%
%TO.P,P62,1,1*%
%TO.N,Net-(D15-K)*%
X230479600Y-88747600D03*
%TD*%
%TO.P,P92,1,1*%
%TO.N,/E_2*%
X173355000Y-33528000D03*
%TD*%
%TO.P,P27,1,1*%
%TO.N,Net-(P27-Pad1)*%
X209753200Y-95148400D03*
%TD*%
D21*
%TO.P,D1,1,K*%
%TO.N,/+12_V*%
X39497000Y-102997000D03*
D22*
%TO.P,D1,2,A*%
%TO.N,GND*%
X39497000Y-90297000D03*
%TD*%
D12*
%TO.P,P111,1,1*%
%TO.N,/S1_6*%
X213703600Y-37236400D03*
%TD*%
D26*
%TO.P,CR1,1,1*%
%TO.N,Net-(U20-IX)*%
X61362000Y-81483200D03*
%TO.P,CR1,2,2*%
%TO.N,Net-(U20-OX)*%
X49022000Y-81483200D03*
%TD*%
D12*
%TO.P,R26,1*%
%TO.N,Net-(D18-K)*%
X256540000Y-65151000D03*
D14*
%TO.P,R26,2*%
%TO.N,GND*%
X256540000Y-77851000D03*
%TD*%
D12*
%TO.P,P101,1,1*%
%TO.N,/S2_6*%
X253811600Y-37178400D03*
%TD*%
%TO.P,P55,1,1*%
%TO.N,Net-(P55-Pad1)*%
X173024800Y-76657200D03*
%TD*%
D13*
%TO.P,U18,1,VCC-*%
%TO.N,/-12_V*%
X150241000Y-85217000D03*
D14*
%TO.P,U18,2,1A*%
%TO.N,Net-(U18A-1A)*%
X150241000Y-87757000D03*
%TO.P,U18,3,1B*%
%TO.N,Net-(U18A-1B)*%
X150241000Y-90297000D03*
%TO.P,U18,4*%
%TO.N,Net-(P30-Pad1)*%
X150241000Y-92837000D03*
%TO.P,U18,5*%
X150241000Y-95377000D03*
%TO.P,U18,6*%
%TO.N,Net-(P49-Pad1)*%
X150241000Y-97917000D03*
%TO.P,U18,7,GND*%
%TO.N,GND*%
X150241000Y-100457000D03*
%TO.P,U18,8*%
%TO.N,Net-(P56-Pad1)*%
X157861000Y-100457000D03*
%TO.P,U18,9*%
%TO.N,Net-(P39-Pad1)*%
X157861000Y-97917000D03*
%TO.P,U18,10*%
X157861000Y-95377000D03*
%TO.P,U18,11*%
%TO.N,Net-(P57-Pad1)*%
X157861000Y-92837000D03*
%TO.P,U18,12*%
%TO.N,Net-(P41-Pad1)*%
X157861000Y-90297000D03*
%TO.P,U18,13*%
X157861000Y-87757000D03*
%TO.P,U18,14,VCC+*%
%TO.N,/+12_V*%
X157861000Y-85217000D03*
%TD*%
D12*
%TO.P,P104,1,1*%
%TO.N,/S2_9*%
X265678400Y-37178400D03*
%TD*%
%TO.P,P82,1,1*%
%TO.N,Net-(D15-A)*%
X234543600Y-88747600D03*
%TD*%
%TO.P,R6,1*%
%TO.N,Net-(Q1-B)*%
X229260400Y-95250000D03*
D14*
%TO.P,R6,2*%
%TO.N,/VCC*%
X229260400Y-107950000D03*
%TD*%
D12*
%TO.P,P12,1,1*%
%TO.N,Net-(P12-Pad1)*%
X55626000Y-129032000D03*
%TD*%
%TO.P,C9,1*%
%TO.N,GND*%
X70358000Y-79883000D03*
%TO.P,C9,2*%
%TO.N,Net-(U20-IX)*%
X70358000Y-69883000D03*
%TD*%
D27*
%TO.N,/PWAIT*%
X118999000Y-111506000D03*
X144018000Y-110617000D03*
%TO.N,/A5*%
X147066000Y-133477000D03*
X134493000Y-125984000D03*
X134493000Y-133477000D03*
%TO.N,/A4*%
X155700000Y-149000000D03*
X91948000Y-144526000D03*
%TO.N,/A3*%
X148717000Y-132080000D03*
X90932000Y-130251200D03*
%TO.N,/SOUT*%
X127254000Y-123952000D03*
X127381000Y-144907000D03*
X203708000Y-151638000D03*
%TO.N,/SINP*%
X207213200Y-151638000D03*
X131318000Y-144653000D03*
X131318000Y-129032000D03*
%TO.N,/PRDY*%
X129032000Y-105537000D03*
X130302000Y-154305000D03*
X199517000Y-105537000D03*
%TO.N,/~{PWR}*%
X98298000Y-147701000D03*
%TO.N,/PDBIN*%
X117602000Y-148590000D03*
%TO.N,/A0*%
X95377000Y-146304000D03*
%TO.N,/A1*%
X93726000Y-145542000D03*
%TO.N,/A2*%
X160274000Y-151765000D03*
X155575000Y-137668000D03*
%TO.N,/A7*%
X123647200Y-134467600D03*
X165862000Y-151765000D03*
X123571000Y-127762000D03*
X157276800Y-134492943D03*
%TO.N,/DO2*%
X181229000Y-151765000D03*
X181229000Y-138557000D03*
X152019000Y-133350000D03*
%TO.N,/DO3*%
X184404000Y-137033000D03*
X150622000Y-132080000D03*
X184404000Y-151765000D03*
%TO.N,/DO7*%
X169545000Y-131826000D03*
X187325000Y-135890000D03*
X187452000Y-151765000D03*
%TO.N,/DI4*%
X192532000Y-151638000D03*
%TO.N,/DI5*%
X195580000Y-151638000D03*
%TO.N,/DI6*%
X197485000Y-151638000D03*
%TO.N,/DI1*%
X173355000Y-131826000D03*
X212979000Y-131826000D03*
X201930000Y-151638000D03*
%TO.N,/DI0*%
X203835000Y-142113000D03*
X180949600Y-133604000D03*
X203835000Y-133604000D03*
%TO.N,/~{POC}*%
X168275000Y-136652000D03*
X173355000Y-145034000D03*
X96647000Y-132842000D03*
%TO.N,/D_CS1*%
X114300000Y-87579200D03*
X69088000Y-87630000D03*
X119888000Y-56388000D03*
%TO.N,/-16_V*%
X268351000Y-85598000D03*
D28*
X216027000Y-138303000D03*
D27*
X68326000Y-146939000D03*
D28*
X69088000Y-142748000D03*
D27*
X222631000Y-85598000D03*
X245740000Y-85600000D03*
%TO.N,/D7*%
X140040000Y-109430000D03*
X207137000Y-109423200D03*
%TO.N,/D6*%
X138938000Y-86664800D03*
X138938000Y-126085600D03*
X177165000Y-126111000D03*
%TO.N,/D5*%
X182245000Y-128778000D03*
X137668000Y-84124800D03*
X137668000Y-128905000D03*
%TO.N,/D4*%
X194437000Y-126365000D03*
X186182000Y-126390400D03*
X136398000Y-127635000D03*
X136398000Y-81534000D03*
%TO.N,/D3*%
X135001000Y-115316000D03*
X135001000Y-78994000D03*
%TO.N,/D1*%
X130683000Y-124206000D03*
X145034000Y-104140000D03*
X127635000Y-104140000D03*
%TO.N,/D0*%
X147066000Y-71374000D03*
X142240000Y-118364000D03*
%TO.N,/D2*%
X133350000Y-116713000D03*
X133350000Y-76504800D03*
D28*
%TO.N,/+8_V*%
X63700000Y-152800000D03*
%TO.N,GND*%
X196850000Y-60706000D03*
D27*
X256540000Y-50673000D03*
X171958000Y-138811000D03*
X67056000Y-85852000D03*
X233045000Y-50673000D03*
X219290000Y-154540000D03*
D28*
%TO.N,/VCC*%
X224155000Y-91313000D03*
D27*
X94625160Y-96012000D03*
X114300000Y-106553000D03*
X270611600Y-91338400D03*
%TO.N,/E_CS1*%
X121793000Y-114554000D03*
X121793000Y-88265000D03*
%TO.N,/A6*%
X140843000Y-146812000D03*
X140843000Y-122682000D03*
%TO.N,/~{CS2}*%
X112903000Y-65151000D03*
X112903000Y-84836000D03*
%TO.N,/R{slash}~{W}*%
X120142000Y-64643000D03*
X120142000Y-92456000D03*
X98653600Y-104394000D03*
X120142000Y-126492000D03*
%TO.N,/CK1*%
X121666000Y-66421000D03*
%TO.N,/RS*%
X116586000Y-88011000D03*
X120015000Y-58928000D03*
X86487000Y-88519000D03*
%TO.N,/E*%
X118110000Y-63627000D03*
X78232000Y-89789000D03*
X118110000Y-89789000D03*
X78232000Y-108712000D03*
%TO.N,/~{DI}*%
X73914000Y-83947000D03*
X50495200Y-139827000D03*
%TO.N,/~{EI}*%
X107746800Y-66548000D03*
X63754000Y-141732000D03*
D28*
%TO.N,/+16_V*%
X66675000Y-140716000D03*
X214503000Y-135509000D03*
D27*
%TO.N,Net-(U1-Pad2)*%
X75438000Y-104902000D03*
%TO.N,Net-(U2-Pad8)*%
X73533000Y-117475000D03*
X99441000Y-117602000D03*
%TO.N,Net-(U2-Pad9)*%
X102616000Y-126441200D03*
%TO.N,Net-(U2-Pad10)*%
X86233000Y-75819000D03*
%TO.N,Net-(U11B-~{Q})*%
X125603000Y-103124000D03*
X118618000Y-98552000D03*
X125603000Y-130556000D03*
X193167000Y-127889000D03*
%TO.N,Net-(U20-CO)*%
X84709000Y-56261000D03*
%TO.N,Net-(U20-Z)*%
X86995000Y-59309000D03*
%TO.N,/~{DI_ENA}*%
X190119000Y-107696000D03*
X146939000Y-107315000D03*
X169545000Y-107823000D03*
X117094000Y-99949000D03*
%TO.N,/~{DO_ENA}*%
X76708000Y-115951000D03*
%TD*%
D29*
%TO.N,/+12_V*%
X32385000Y-115316000D02*
X34036000Y-113665000D01*
X44069000Y-110617000D02*
X44069000Y-102997000D01*
X41021000Y-113665000D02*
X44069000Y-110617000D01*
X34036000Y-113665000D02*
X41021000Y-113665000D01*
X44069000Y-102997000D02*
X39497000Y-102997000D01*
D30*
%TO.N,/~{VI0}*%
X73228200Y-150990000D02*
X73225000Y-156200000D01*
%TO.N,/~{VI1}*%
X76403200Y-150990000D02*
X76400000Y-156200000D01*
%TO.N,/~{VI2}*%
X79578200Y-150990000D02*
X79575000Y-156200000D01*
%TO.N,/~{VI3}*%
X82753200Y-150990000D02*
X82750000Y-156200000D01*
%TO.N,/~{VI4}*%
X85928200Y-150990000D02*
X85925000Y-156200000D01*
%TO.N,/~{VI5}*%
X89103200Y-150977600D02*
X89100000Y-156200000D01*
%TO.N,/~{VI6}*%
X92278200Y-150990000D02*
X92275000Y-156200000D01*
%TO.N,/~{VI7}*%
X95450400Y-150990000D02*
X95450000Y-156200000D01*
D31*
%TO.N,/PWAIT*%
X145643600Y-155676600D02*
X145643600Y-110617000D01*
X145643600Y-110617000D02*
X144018000Y-110617000D01*
X146250000Y-156200000D02*
X145643600Y-155676600D01*
X118999000Y-102235000D02*
X105029000Y-102235000D01*
X105029000Y-102235000D02*
X103124000Y-100965000D01*
X118999000Y-111506000D02*
X118999000Y-102235000D01*
%TO.N,/A5*%
X134493000Y-125984000D02*
X134493000Y-133477000D01*
X147066000Y-133477000D02*
X152400000Y-156083000D01*
%TO.N,/A4*%
X155700000Y-149000000D02*
X155775000Y-156200000D01*
X91948000Y-144526000D02*
X91948000Y-129032000D01*
X91948000Y-129032000D02*
X87630000Y-129032000D01*
%TO.N,/A3*%
X90932000Y-130251200D02*
X90932000Y-134112000D01*
X158950000Y-151950000D02*
X148717000Y-132080000D01*
X158950000Y-156200000D02*
X158950000Y-151950000D01*
X90932000Y-134112000D02*
X87782400Y-134112000D01*
%TO.N,/DO1*%
X157099000Y-121285000D02*
X157099000Y-126365000D01*
X171450000Y-151765000D02*
X171450000Y-156083000D01*
X157099000Y-126365000D02*
X171450000Y-151765000D01*
%TO.N,/DO0*%
X158369000Y-114808000D02*
X159639000Y-113665000D01*
X158369000Y-123571000D02*
X158369000Y-114808000D01*
X158369000Y-123571000D02*
X174625000Y-152781000D01*
X174625000Y-152781000D02*
X174625000Y-156083000D01*
%TO.N,/DO4*%
X180975000Y-156083000D02*
X182626000Y-153797000D01*
X182626000Y-153797000D02*
X182499000Y-134366000D01*
X183388000Y-114808000D02*
X182245000Y-113665000D01*
X182499000Y-134366000D02*
X183515000Y-134366000D01*
X183515000Y-134366000D02*
X183388000Y-114808000D01*
%TO.N,/DO5*%
X178435000Y-110998000D02*
X178435000Y-120142000D01*
X178435000Y-120142000D02*
X179705000Y-121285000D01*
X185801000Y-153797000D02*
X185801000Y-134239000D01*
X187833000Y-110998000D02*
X178435000Y-110998000D01*
X185801000Y-134239000D02*
X187833000Y-134239000D01*
X187833000Y-134239000D02*
X187833000Y-110998000D01*
X184150000Y-156083000D02*
X185801000Y-153797000D01*
%TO.N,/DO6*%
X175895000Y-120142000D02*
X174625000Y-121285000D01*
X175895000Y-109347000D02*
X175895000Y-120142000D01*
X187325000Y-156083000D02*
X189103000Y-153797000D01*
X189103000Y-153797000D02*
X189103000Y-109347000D01*
X189103000Y-109347000D02*
X175895000Y-109347000D01*
%TO.N,/DI2*%
X195707000Y-126365000D02*
X190500000Y-152019000D01*
X157099000Y-106426000D02*
X157099000Y-113665000D01*
X195707000Y-126365000D02*
X195707000Y-106426000D01*
X195707000Y-106426000D02*
X157099000Y-106426000D01*
X190500000Y-152019000D02*
X190500000Y-156083000D01*
%TO.N,/DI3*%
X152019000Y-105156000D02*
X152019000Y-113665000D01*
X198250000Y-133175000D02*
X198247000Y-127889000D01*
X198120000Y-105156000D02*
X152019000Y-105156000D01*
X193875000Y-150975000D02*
X198250000Y-133175000D01*
X193875000Y-156200000D02*
X193875000Y-150975000D01*
X198247000Y-127889000D02*
X198120000Y-105156000D01*
%TO.N,/SOUT*%
X203400000Y-156200000D02*
X203708000Y-151638000D01*
X127254000Y-123952000D02*
X127381000Y-144907000D01*
%TO.N,/SINP*%
X112522000Y-128016000D02*
X114300000Y-129032000D01*
X92837000Y-78359000D02*
X92837000Y-114554000D01*
X131318000Y-129032000D02*
X131318000Y-144653000D01*
X206575000Y-156200000D02*
X207213200Y-151638000D01*
X92837000Y-114554000D02*
X112522000Y-114554000D01*
X88773000Y-78359000D02*
X92837000Y-78359000D01*
X112522000Y-114554000D02*
X112522000Y-128016000D01*
D29*
%TO.N,/-12_V*%
X41656000Y-143637000D02*
X34652000Y-143637000D01*
X44069000Y-141224000D02*
X44069000Y-133604000D01*
X34652000Y-143637000D02*
X32385000Y-145904000D01*
X44069000Y-141224000D02*
X41656000Y-143637000D01*
X44069000Y-133604000D02*
X38989000Y-133604000D01*
D31*
%TO.N,/PRDY*%
X130302000Y-154305000D02*
X133248400Y-152247600D01*
X133299200Y-123494800D02*
X129082800Y-120904000D01*
X199517000Y-105537000D02*
X199517000Y-113665000D01*
X129082800Y-120904000D02*
X129032000Y-105537000D01*
X133248400Y-152247600D02*
X133299200Y-123494800D01*
%TO.N,/~{PWR}*%
X83693000Y-116713000D02*
X83693000Y-97409000D01*
X83693000Y-116713000D02*
X98298000Y-116713000D01*
X83693000Y-97409000D02*
X81915000Y-96012000D01*
X98298000Y-116713000D02*
X98298000Y-147701000D01*
%TO.N,/PDBIN*%
X106934000Y-104775000D02*
X103124000Y-108585000D01*
X117602000Y-104775000D02*
X106934000Y-104775000D01*
X117602000Y-148590000D02*
X117602000Y-104775000D01*
%TO.N,/A0*%
X95377000Y-146304000D02*
X95377000Y-118364000D01*
X80137000Y-118364000D02*
X80162400Y-121412000D01*
X95377000Y-118364000D02*
X80137000Y-118364000D01*
%TO.N,/A1*%
X93726000Y-145542000D02*
X93726000Y-125222000D01*
X82550000Y-125222000D02*
X80162400Y-126492000D01*
X93726000Y-125222000D02*
X82550000Y-125222000D01*
%TO.N,/A2*%
X160274000Y-151765000D02*
X155575000Y-137668000D01*
%TO.N,/A7*%
X123571000Y-127762000D02*
X123647200Y-134467600D01*
X165862000Y-151765000D02*
X157276800Y-134492943D01*
%TO.N,/DO2*%
X152019000Y-133350000D02*
X152019000Y-121285000D01*
X181229000Y-151765000D02*
X181229000Y-138557000D01*
%TO.N,/DO3*%
X150622000Y-132080000D02*
X146939000Y-121285000D01*
X184404000Y-151765000D02*
X184404000Y-137033000D01*
%TO.N,/DO7*%
X187452000Y-151765000D02*
X187325000Y-135890000D01*
X169545000Y-131826000D02*
X169545000Y-121285000D01*
%TO.N,/DI4*%
X192532000Y-151638000D02*
X196951600Y-126441200D01*
X196951600Y-126441200D02*
X196977000Y-121285000D01*
%TO.N,/DI5*%
X195580000Y-151638000D02*
X202057000Y-121285000D01*
%TO.N,/DI6*%
X197485000Y-151638000D02*
X207137000Y-140462000D01*
X207137000Y-140462000D02*
X207137000Y-121285000D01*
%TO.N,/DI1*%
X173380400Y-115620800D02*
X174625000Y-113665000D01*
X173355000Y-131826000D02*
X173380400Y-115620800D01*
X201930000Y-151638000D02*
X212979000Y-137414000D01*
X212979000Y-137414000D02*
X212979000Y-131826000D01*
%TO.N,/DI0*%
X203835000Y-142113000D02*
X203835000Y-133604000D01*
X180949600Y-133604000D02*
X180898800Y-115519200D01*
X180898800Y-115519200D02*
X179705000Y-113665000D01*
%TO.N,/~{POC}*%
X79629000Y-117856000D02*
X79629000Y-101092000D01*
X173355000Y-145034000D02*
X168275000Y-136652000D01*
X96647000Y-132842000D02*
X96647000Y-117856000D01*
X96647000Y-117856000D02*
X79629000Y-117856000D01*
X79629000Y-101092000D02*
X81915000Y-101092000D01*
D29*
%TO.N,Net-(P2-Pad1)*%
X54229000Y-131572000D02*
X58978800Y-131572000D01*
%TO.N,Net-(P3-Pad1)*%
X74549000Y-134112000D02*
X66598800Y-134112000D01*
%TO.N,Net-(P4-Pad1)*%
X72517000Y-129032000D02*
X66598800Y-129032000D01*
%TO.N,Net-(P5-Pad1)*%
X70866000Y-123952000D02*
X66598800Y-123952000D01*
%TO.N,Net-(P6-Pad1)*%
X55626000Y-126492000D02*
X58978800Y-126492000D01*
D32*
%TO.N,Net-(P7-Pad1)*%
X106680000Y-131572000D02*
X106680000Y-129032000D01*
D29*
X101600000Y-129032000D02*
X106680000Y-129032000D01*
%TO.N,Net-(P8-Pad1)*%
X54229000Y-134112000D02*
X58978800Y-134112000D01*
D31*
%TO.N,/D_CS1*%
X63119000Y-125222000D02*
X76454000Y-125222000D01*
X76454000Y-129032000D02*
X80162400Y-129032000D01*
X61087000Y-121412000D02*
X63119000Y-125222000D01*
X76454000Y-125222000D02*
X76454000Y-129032000D01*
X61087000Y-92075000D02*
X61087000Y-121412000D01*
X69088000Y-87630000D02*
X69088000Y-91948000D01*
X114300000Y-56388000D02*
X119888000Y-56388000D01*
X114300000Y-87579200D02*
X114300000Y-56388000D01*
X61087000Y-121412000D02*
X58978800Y-121412000D01*
X69088000Y-91948000D02*
X61087000Y-92075000D01*
D29*
%TO.N,Net-(P9-Pad1)*%
X74549000Y-136652000D02*
X66598800Y-136652000D01*
%TO.N,/-16_V*%
X69088000Y-142748000D02*
X68326000Y-146939000D01*
X216027000Y-138303000D02*
X222631000Y-138303000D01*
X245808500Y-78041500D02*
X247713500Y-76136500D01*
X222631000Y-77978000D02*
X224536000Y-76073000D01*
X245745000Y-85595000D02*
X245745000Y-77851000D01*
X247713500Y-58102500D02*
X245808500Y-56197500D01*
X268351000Y-77851000D02*
X270891000Y-77851000D01*
X222631000Y-138303000D02*
X222631000Y-77978000D01*
X245740000Y-85600000D02*
X245745000Y-85595000D01*
X247713500Y-76136500D02*
X247713500Y-58102500D01*
X270891000Y-77851000D02*
X270891000Y-56134000D01*
X268351000Y-85598000D02*
X268351000Y-77851000D01*
X224536000Y-58039000D02*
X222631000Y-56134000D01*
X224536000Y-76073000D02*
X224536000Y-58039000D01*
X270891000Y-56134000D02*
X268351000Y-56134000D01*
D31*
%TO.N,/D7*%
X141630400Y-89154000D02*
X140055622Y-89160000D01*
X207137000Y-109423200D02*
X207137000Y-113665000D01*
X140055622Y-89160000D02*
X140080000Y-57530000D01*
X140040000Y-109430000D02*
X140055622Y-89160000D01*
X140080000Y-57530000D02*
X141605000Y-56261000D01*
%TO.N,/D6*%
X138938000Y-56388000D02*
X141605000Y-53721000D01*
X138938000Y-86664800D02*
X138938000Y-56388000D01*
X138938000Y-126085600D02*
X138938000Y-86664800D01*
X177165000Y-126111000D02*
X177165000Y-121285000D01*
%TO.N,/D5*%
X137668000Y-84124800D02*
X137668000Y-87376000D01*
X182245000Y-128778000D02*
X182245000Y-121285000D01*
X137668000Y-87376000D02*
X137668000Y-128905000D01*
X137668000Y-84124800D02*
X137668000Y-55118000D01*
X137668000Y-55118000D02*
X141605000Y-51181000D01*
%TO.N,/D4*%
X136398000Y-81534000D02*
X136398000Y-54102000D01*
X136398000Y-54102000D02*
X141605000Y-48641000D01*
X194437000Y-126365000D02*
X194437000Y-121285000D01*
X186182000Y-114858800D02*
X184785000Y-113665000D01*
X186182000Y-126390400D02*
X186182000Y-114858800D01*
X136398000Y-81534000D02*
X136398000Y-127635000D01*
%TO.N,/D3*%
X135001000Y-53213000D02*
X141605000Y-46101000D01*
X135001000Y-78994000D02*
X135001000Y-115316000D01*
X135001000Y-78994000D02*
X135001000Y-53213000D01*
X149453601Y-121259601D02*
X149453601Y-113639601D01*
%TO.N,/D1*%
X127635000Y-104140000D02*
X127609600Y-121818400D01*
X145135600Y-73914000D02*
X141732000Y-73914000D01*
X145135600Y-73914000D02*
X145135600Y-41035600D01*
X145135600Y-104038400D02*
X145135600Y-73914000D01*
X145034000Y-104140000D02*
X145135600Y-104038400D01*
X145121000Y-41021000D02*
X141605000Y-41021000D01*
X145135600Y-41035600D02*
X145121000Y-41021000D01*
X127609600Y-121818400D02*
X130683000Y-124206000D01*
X159613601Y-121259601D02*
X172110400Y-113639600D01*
%TO.N,/D0*%
X147066000Y-38481000D02*
X141605000Y-38481000D01*
X147066000Y-71374000D02*
X147066000Y-106070400D01*
X147066000Y-106070400D02*
X142290800Y-106070400D01*
X147066000Y-71374000D02*
X147066000Y-38481000D01*
X142290800Y-106070400D02*
X142240000Y-118364000D01*
D29*
%TO.N,Net-(P10-Pad1)*%
X72517000Y-131572000D02*
X66598800Y-131572000D01*
%TO.N,Net-(P11-Pad1)*%
X70866000Y-126492000D02*
X66598800Y-126492000D01*
%TO.N,Net-(P12-Pad1)*%
X55626000Y-129032000D02*
X58978800Y-129032000D01*
%TO.N,Net-(P13-Pad1)*%
X101600000Y-134112000D02*
X106680000Y-134112000D01*
%TO.N,Net-(P14-Pad1)*%
X55118000Y-96012000D02*
X58826400Y-96012000D01*
D31*
%TO.N,/D2*%
X133350000Y-76504800D02*
X133350000Y-52197000D01*
X133350000Y-76504800D02*
X133350000Y-116713000D01*
X133350000Y-52197000D02*
X141605000Y-43561000D01*
X154533601Y-121259601D02*
X154533601Y-113639601D01*
D33*
%TO.N,/+8_V*%
X23876000Y-82519339D02*
X23876000Y-61214000D01*
X63700000Y-152800000D02*
X63700000Y-156200000D01*
X24003000Y-152781000D02*
X23906661Y-82550000D01*
X63700000Y-152800000D02*
X63681000Y-152781000D01*
X23876000Y-61214000D02*
X37592000Y-61214000D01*
X23906661Y-82550000D02*
X23876000Y-82519339D01*
X24003000Y-152781000D02*
X63700000Y-152800000D01*
X23906661Y-82550000D02*
X32512000Y-82499200D01*
D29*
%TO.N,GND*%
X52070000Y-111125000D02*
X58699400Y-111125000D01*
X161290000Y-58420000D02*
X161036000Y-58420000D01*
X81915000Y-53594000D02*
X81915000Y-57912000D01*
X52070000Y-111125000D02*
X52070000Y-136652000D01*
X191389000Y-60706000D02*
X196850000Y-60706000D01*
X67056000Y-90043000D02*
X52070000Y-90043000D01*
X71628000Y-53594000D02*
X71620000Y-45980000D01*
X52070000Y-90043000D02*
X52070000Y-111125000D01*
D33*
X32385000Y-120904000D02*
X38989000Y-120904000D01*
D29*
X71628000Y-57912000D02*
X71628000Y-53594000D01*
D33*
X126365000Y-33401000D02*
X128270000Y-33401000D01*
D29*
X71628000Y-53594000D02*
X68326000Y-53594000D01*
X163576000Y-60706000D02*
X161290000Y-58420000D01*
D32*
X171958000Y-138811000D02*
X162153601Y-121259601D01*
D31*
X233045000Y-50673000D02*
X233045000Y-56134000D01*
D29*
X81915000Y-53594000D02*
X78867000Y-53594000D01*
X78867000Y-53594000D02*
X78867002Y-43433996D01*
X180086000Y-60706000D02*
X163576000Y-60706000D01*
D33*
X128397000Y-66294000D02*
X126390400Y-66294000D01*
D29*
X67056000Y-85852000D02*
X67056000Y-90043000D01*
X180086000Y-60706000D02*
X180086000Y-58420000D01*
X191389000Y-60706000D02*
X180086000Y-60706000D01*
D31*
X256540000Y-50673000D02*
X256540000Y-56134000D01*
D29*
X32385000Y-90316000D02*
X39497000Y-90297000D01*
X71620000Y-45980000D02*
X68326000Y-45974000D01*
D33*
X128270000Y-33401000D02*
X128397000Y-66294000D01*
D29*
X52070000Y-136652000D02*
X58978800Y-136652000D01*
X58699400Y-111125000D02*
X58826400Y-111252000D01*
X81915000Y-57912000D02*
X71628000Y-57912000D01*
%TO.N,/VCC*%
X70612000Y-105791000D02*
X68453000Y-103632000D01*
X251333000Y-127000000D02*
X255397000Y-127000000D01*
X75946000Y-35814000D02*
X75946000Y-29464000D01*
X66421000Y-95986600D02*
X66446400Y-96012000D01*
X187706000Y-38481000D02*
X187706000Y-29464000D01*
X226949000Y-95123000D02*
X226949000Y-91313000D01*
X177800000Y-83566000D02*
X178943000Y-83566000D01*
X233172000Y-127000000D02*
X229235000Y-127000000D01*
X195834000Y-87376000D02*
X199263000Y-85217000D01*
D33*
X187706000Y-29464000D02*
X274193000Y-29464000D01*
D29*
X123393200Y-32410400D02*
X123444000Y-51181000D01*
X123444000Y-51181000D02*
X123444000Y-61341000D01*
X183896000Y-85217000D02*
X183896000Y-92608400D01*
X187706000Y-38481000D02*
X168656000Y-38481000D01*
X226949000Y-107950000D02*
X229260400Y-107950000D01*
X123444000Y-29464000D02*
X123393200Y-32410400D01*
X168783000Y-83566000D02*
X177800000Y-83566000D01*
X187833000Y-43307000D02*
X187706000Y-43180000D01*
X64938400Y-97520000D02*
X64938400Y-101020000D01*
X191389000Y-43307000D02*
X187833000Y-43307000D01*
D31*
X65010400Y-101092000D02*
X64938400Y-101020000D01*
D29*
X66421000Y-93218000D02*
X71628000Y-93218000D01*
X66421000Y-93218000D02*
X66421000Y-95986600D01*
X178943000Y-83566000D02*
X180594000Y-85217000D01*
X64938400Y-101020000D02*
X64938400Y-102124000D01*
X229260400Y-107950000D02*
X233172000Y-107950000D01*
X177800000Y-83566000D02*
X177800000Y-102870000D01*
X191389000Y-53086000D02*
X191389000Y-43307000D01*
X123444000Y-84074000D02*
X123444000Y-94234000D01*
X62738000Y-117729000D02*
X62738000Y-93218000D01*
X195834000Y-102870000D02*
X195834000Y-87376000D01*
X226949000Y-127000000D02*
X226949000Y-107950000D01*
D33*
X270611600Y-91338400D02*
X274193000Y-91313000D01*
D29*
X62738000Y-121412000D02*
X66598800Y-121412000D01*
X123444000Y-51181000D02*
X126365000Y-51181000D01*
D32*
X94625160Y-96012000D02*
X94615000Y-102108000D01*
D29*
X187706000Y-43180000D02*
X187706000Y-38481000D01*
D32*
X114300000Y-113157000D02*
X114300000Y-106553000D01*
D29*
X62738000Y-93218000D02*
X66421000Y-93218000D01*
X104775000Y-66040000D02*
X104800400Y-68199000D01*
X180594000Y-85217000D02*
X183896000Y-85217000D01*
D31*
X66446400Y-101092000D02*
X65010400Y-101092000D01*
D29*
X77089000Y-66040000D02*
X88773000Y-66040000D01*
D32*
X114300000Y-113157000D02*
X94615000Y-113157000D01*
D33*
X274193000Y-29464000D02*
X274193000Y-91313000D01*
D29*
X226949000Y-91313000D02*
X224155000Y-91313000D01*
X195834000Y-102870000D02*
X177800000Y-102870000D01*
X68453000Y-103632000D02*
X66446400Y-103632000D01*
X71628000Y-85852000D02*
X77089000Y-85852000D01*
X64938400Y-102124000D02*
X66446400Y-103632000D01*
X71628000Y-93218000D02*
X71628000Y-85852000D01*
D34*
X251333000Y-107950000D02*
X255422400Y-107950000D01*
D29*
X226949000Y-107950000D02*
X226949000Y-95123000D01*
X123444000Y-94234000D02*
X126390400Y-94234000D01*
X123444000Y-61341000D02*
X123444000Y-84074000D01*
X88773000Y-66040000D02*
X88773000Y-68199000D01*
X168656000Y-38481000D02*
X168656000Y-43180000D01*
X66446400Y-96012000D02*
X64938400Y-97520000D01*
D32*
X94615000Y-113157000D02*
X94615000Y-102108000D01*
D29*
X168783000Y-83566000D02*
X168808400Y-95250000D01*
X229235000Y-127000000D02*
X226949000Y-127000000D01*
X123444000Y-61341000D02*
X126365000Y-61341000D01*
X88773000Y-66040000D02*
X104775000Y-66040000D01*
X123444000Y-84074000D02*
X126390400Y-84074000D01*
D33*
X123444000Y-29464000D02*
X187706000Y-29464000D01*
X123444000Y-29464000D02*
X75946000Y-29464000D01*
D29*
X89535000Y-29464000D02*
X89535000Y-35814000D01*
X226949000Y-95123000D02*
X225044000Y-95148400D01*
X62738000Y-121412000D02*
X62738000Y-117729000D01*
D32*
X114300000Y-113157000D02*
X114300000Y-121412000D01*
D29*
X77089000Y-85852000D02*
X77089000Y-66040000D01*
D31*
%TO.N,/E_CS1*%
X121793000Y-114554000D02*
X121793000Y-88265000D01*
D29*
%TO.N,Net-(P18-Pad1)*%
X55118000Y-106045000D02*
X58699400Y-106045000D01*
X58699400Y-106045000D02*
X58826400Y-106172000D01*
D31*
%TO.N,/A6*%
X140843000Y-122682000D02*
X140843000Y-146812000D01*
%TO.N,/~{CS2}*%
X112903000Y-65151000D02*
X112903000Y-84836000D01*
%TO.N,/R{slash}~{W}*%
X120142000Y-92456000D02*
X120142000Y-64643000D01*
X113030000Y-99695000D02*
X98679000Y-99695000D01*
X120142000Y-126492000D02*
X120142000Y-101219000D01*
X98679000Y-85725000D02*
X94107000Y-85725000D01*
X94107000Y-70739000D02*
X89027000Y-70739000D01*
X120142000Y-101219000D02*
X114935000Y-101219000D01*
X98679000Y-99568000D02*
X98679000Y-85725000D01*
X120142000Y-101219000D02*
X120142000Y-92456000D01*
X98679000Y-99695000D02*
X98679000Y-99568000D01*
X114935000Y-101219000D02*
X113030000Y-99695000D01*
X98679000Y-99568000D02*
X98679000Y-104368600D01*
X98679000Y-104368600D02*
X98653600Y-104394000D01*
X94107000Y-85725000D02*
X94107000Y-70739000D01*
%TO.N,/DI7*%
X211378800Y-115062000D02*
X209677000Y-113665000D01*
X196850000Y-156083000D02*
X211378800Y-137058400D01*
X211378800Y-137058400D02*
X211378800Y-115062000D01*
%TO.N,/CK1*%
X121666000Y-66395600D02*
X121666000Y-45923200D01*
X121666000Y-45923200D02*
X112623600Y-45923200D01*
X126390400Y-73914000D02*
X126390400Y-71374000D01*
%TO.N,/CK0*%
X126365000Y-41021000D02*
X126365000Y-38481000D01*
%TO.N,/RS*%
X116586000Y-58928000D02*
X116586000Y-88011000D01*
X86487000Y-104013000D02*
X89535000Y-106172000D01*
X120015000Y-58928000D02*
X116586000Y-58928000D01*
X86487000Y-88519000D02*
X86487000Y-104013000D01*
%TO.N,/E*%
X78232000Y-89789000D02*
X78232000Y-108712000D01*
X118110000Y-89789000D02*
X118110000Y-63627000D01*
%TO.N,Net-(D3-K)*%
X209423000Y-60706000D02*
X204851000Y-55245000D01*
D29*
X210185000Y-43434000D02*
X213995000Y-43434000D01*
X204851000Y-43434000D02*
X210185000Y-43434000D01*
D31*
X204851000Y-55245000D02*
X204851000Y-43434000D01*
%TO.N,Net-(D3-A)*%
X218313000Y-46863000D02*
X218313000Y-43434000D01*
X213995000Y-60706000D02*
X213995000Y-56134000D01*
X213995000Y-56134000D02*
X213995000Y-46863000D01*
X213995000Y-46863000D02*
X218313000Y-46863000D01*
%TO.N,Net-(D4-K)*%
X237032800Y-107950000D02*
X240690400Y-95250000D01*
%TO.N,Net-(D4-A)*%
X236982000Y-93218000D02*
X237032800Y-95250000D01*
X246532400Y-96520000D02*
X246507000Y-93218000D01*
X246507000Y-93218000D02*
X236982000Y-93218000D01*
D34*
X237032800Y-95250000D02*
X233172000Y-95250000D01*
D31*
%TO.N,Net-(D6-K)*%
X227584000Y-55245000D02*
X233045000Y-60706000D01*
D29*
X227584000Y-43434000D02*
X233045000Y-43434000D01*
X233045000Y-43434000D02*
X236855000Y-43434000D01*
D31*
X227584000Y-55245000D02*
X227584000Y-43434000D01*
%TO.N,Net-(D6-A)*%
X240919000Y-46990000D02*
X240919000Y-43434000D01*
X236855000Y-56134000D02*
X236855000Y-46990000D01*
X236855000Y-56134000D02*
X236855000Y-60706000D01*
X236855000Y-46990000D02*
X240919000Y-46990000D01*
%TO.N,Net-(D7-K)*%
X259029200Y-107950000D02*
X262890000Y-95250000D01*
%TO.N,Net-(D7-A)*%
X268097000Y-93218000D02*
X268020800Y-96469200D01*
X259080000Y-93218000D02*
X268097000Y-93218000D01*
X259029200Y-95250000D02*
X259080000Y-93218000D01*
D34*
X259029200Y-95250000D02*
X255422400Y-95250000D01*
D31*
%TO.N,Net-(D9-A)*%
X260223000Y-56134000D02*
X260223000Y-46990000D01*
X260223000Y-46990000D02*
X264033000Y-46990000D01*
X264033000Y-46990000D02*
X264033000Y-43434000D01*
X260223000Y-56134000D02*
X260223000Y-60706000D01*
D32*
%TO.N,Net-(D10-K)*%
X236855000Y-127050800D02*
X241046000Y-114350800D01*
D34*
%TO.N,Net-(D10-A)*%
X236855000Y-114300000D02*
X233172000Y-114300000D01*
D31*
X236855000Y-114350800D02*
X236829600Y-111963200D01*
X246684800Y-115341400D02*
X246761000Y-115417600D01*
X246684800Y-111963200D02*
X246684800Y-115341400D01*
X236829600Y-111963200D02*
X246684800Y-111963200D01*
%TO.N,Net-(D12-K)*%
X207670400Y-88747600D02*
X207645000Y-75311000D01*
D29*
X210185000Y-65278000D02*
X213995000Y-65278000D01*
D31*
X204851000Y-72136000D02*
X204851000Y-65278000D01*
D29*
X204851000Y-65278000D02*
X210185000Y-65278000D01*
D31*
X207645000Y-75311000D02*
X204851000Y-72136000D01*
%TO.N,Net-(D12-A)*%
X213995000Y-68707000D02*
X213995000Y-77978000D01*
X213741000Y-77724000D02*
X213995000Y-77978000D01*
X218313000Y-68707000D02*
X218313000Y-65278000D01*
X218313000Y-68707000D02*
X213995000Y-68707000D01*
X211429600Y-88747600D02*
X211429600Y-80289400D01*
X213741000Y-77978000D02*
X213995000Y-77978000D01*
X211429600Y-80289400D02*
X213995000Y-77978000D01*
D29*
%TO.N,Net-(D13-A)*%
X255397000Y-114300000D02*
X259461000Y-114300000D01*
D31*
X259461000Y-111760000D02*
X259461000Y-114300000D01*
X268097000Y-111760000D02*
X268071600Y-115468400D01*
X259461000Y-111760000D02*
X268097000Y-111760000D01*
%TO.N,Net-(P41-Pad1)*%
X157861000Y-87757000D02*
X157861000Y-90297000D01*
%TO.N,Net-(P50-Pad1)*%
X176530000Y-53340000D02*
X180086000Y-53340000D01*
%TO.N,Net-(P54-Pad1)*%
X176530000Y-43180000D02*
X180086000Y-43180000D01*
%TO.N,Net-(P64-Pad1)*%
X160934400Y-45821600D02*
X161036000Y-45720000D01*
X157480000Y-45720000D02*
X157581600Y-45821600D01*
X157581600Y-45821600D02*
X160934400Y-45821600D01*
%TO.N,Net-(Q1-C)*%
X249224800Y-125425200D02*
X249224800Y-100380800D01*
X249224800Y-125425200D02*
X241300000Y-135382000D01*
X249224800Y-100380800D02*
X246532400Y-99060000D01*
%TO.N,Net-(P66-Pad1)*%
X157581600Y-48361600D02*
X160934400Y-48361600D01*
X160934400Y-48361600D02*
X161036000Y-48260000D01*
X157480000Y-48260000D02*
X157581600Y-48361600D01*
%TO.N,Net-(Q2-C)*%
X258330700Y-131673600D02*
X270967200Y-131673600D01*
X270967200Y-131673600D02*
X270967200Y-99060000D01*
X258330700Y-131673600D02*
X256540000Y-135382000D01*
X270967200Y-99060000D02*
X268020800Y-99009200D01*
%TO.N,Net-(Q3-C)*%
X246761000Y-125349000D02*
X233680000Y-135382000D01*
X246761000Y-117957600D02*
X246761000Y-125349000D01*
%TO.N,Net-(Q4-C)*%
X268097000Y-130683000D02*
X248920000Y-130683000D01*
X248920000Y-130683000D02*
X248920000Y-135382000D01*
X268071600Y-118008400D02*
X268097000Y-130683000D01*
%TO.N,Net-(P72-Pad1)*%
X157581600Y-50901600D02*
X160934400Y-50901600D01*
X157480000Y-50800000D02*
X157581600Y-50901600D01*
X160934400Y-50901600D02*
X161036000Y-50800000D01*
%TO.N,Net-(P75-Pad1)*%
X222631000Y-46863000D02*
X222631000Y-43434000D01*
X218338400Y-60706000D02*
X219964000Y-60706000D01*
X219964000Y-46863000D02*
X222631000Y-46863000D01*
X219964000Y-60706000D02*
X219964000Y-46863000D01*
%TO.N,Net-(P77-Pad1)*%
X242951000Y-60706000D02*
X240919000Y-60706000D01*
X242951000Y-46990000D02*
X245745000Y-46990000D01*
X245745000Y-46990000D02*
X245745000Y-43434000D01*
X242951000Y-46990000D02*
X242951000Y-60706000D01*
%TO.N,Net-(P79-Pad1)*%
X265938000Y-46990000D02*
X265938000Y-60706000D01*
X265938000Y-60706000D02*
X264033000Y-60706000D01*
X265938000Y-46990000D02*
X268351000Y-46990000D01*
X268351000Y-46990000D02*
X268351000Y-43434000D01*
%TO.N,Net-(P81-Pad1)*%
X222631000Y-69596000D02*
X222631000Y-65278000D01*
X215265000Y-88773000D02*
X215265000Y-69596000D01*
X215265000Y-69596000D02*
X222631000Y-69596000D01*
%TO.N,Net-(P83-Pad1)*%
X238887000Y-69596000D02*
X245745000Y-69596000D01*
X238861600Y-88747600D02*
X238887000Y-69596000D01*
X245745000Y-69596000D02*
X245745000Y-65151000D01*
%TO.N,Net-(P85-Pad1)*%
X261620000Y-69596000D02*
X268351000Y-69596000D01*
X268351000Y-69596000D02*
X268351000Y-65151000D01*
X261620000Y-88798400D02*
X261620000Y-69596000D01*
%TO.N,/~{DI}*%
X50495200Y-139827000D02*
X50495200Y-88442800D01*
X65481200Y-88442800D02*
X65481200Y-83921600D01*
X50495200Y-88442800D02*
X65481200Y-88442800D01*
X65481200Y-83921600D02*
X73914000Y-83947000D01*
%TO.N,/~{EI}*%
X75844400Y-82397600D02*
X64363600Y-82397600D01*
X49276000Y-87325200D02*
X49225200Y-141732000D01*
X107746800Y-64363600D02*
X75844400Y-64363600D01*
X107746800Y-66548000D02*
X107746800Y-64363600D01*
X64363600Y-82397600D02*
X64363600Y-87325200D01*
X75844400Y-64363600D02*
X75844400Y-82397600D01*
X49225200Y-141732000D02*
X63754000Y-141732000D01*
X64363600Y-87325200D02*
X49276000Y-87325200D01*
%TO.N,Net-(P26-Pad1)*%
X160934400Y-43281600D02*
X161036000Y-43180000D01*
X157581600Y-43281600D02*
X160934400Y-43281600D01*
X157480000Y-43180000D02*
X157581600Y-43281600D01*
%TO.N,Net-(U18A-1A)*%
X150241000Y-87757000D02*
X151638000Y-87757000D01*
X160909000Y-86360000D02*
X160909000Y-71374000D01*
X160909000Y-71374000D02*
X157556200Y-71374000D01*
X153035000Y-86360000D02*
X160909000Y-86360000D01*
X151638000Y-87757000D02*
X153035000Y-86360000D01*
%TO.N,Net-(P30-Pad1)*%
X163322000Y-66294000D02*
X157480000Y-66294000D01*
X151892000Y-92837000D02*
X153035000Y-93980000D01*
X150241000Y-92837000D02*
X150241000Y-95377000D01*
X150241000Y-92837000D02*
X151892000Y-92837000D01*
X153035000Y-93980000D02*
X163322000Y-93980000D01*
X163322000Y-93980000D02*
X163322000Y-66294000D01*
%TO.N,Net-(P31-Pad1)*%
X176530000Y-55880000D02*
X180086000Y-55880000D01*
%TO.N,Net-(P33-Pad1)*%
X176530000Y-50800000D02*
X180086000Y-50800000D01*
%TO.N,Net-(P35-Pad1)*%
X176530000Y-45720000D02*
X180086000Y-45720000D01*
%TO.N,Net-(P37-Pad1)*%
X157480000Y-53340000D02*
X157581600Y-53441600D01*
X157581600Y-53441600D02*
X160934400Y-53441600D01*
X160934400Y-53441600D02*
X161036000Y-53340000D01*
%TO.N,Net-(P39-Pad1)*%
X157861000Y-95377000D02*
X157861000Y-97917000D01*
%TO.N,Net-(U18A-1B)*%
X153035000Y-91440000D02*
X162179000Y-91440000D01*
X151892000Y-90297000D02*
X153035000Y-91440000D01*
X150241000Y-90297000D02*
X151892000Y-90297000D01*
X162179000Y-91440000D02*
X162179000Y-68834000D01*
X162179000Y-68834000D02*
X157505400Y-68834000D01*
%TO.N,Net-(P49-Pad1)*%
X164973000Y-102362000D02*
X164973000Y-63754000D01*
X164973000Y-63754000D02*
X157480000Y-63754000D01*
X152273000Y-97917000D02*
X156718000Y-102362000D01*
X156718000Y-102362000D02*
X164973000Y-102362000D01*
X150241000Y-97917000D02*
X152273000Y-97917000D01*
%TO.N,Net-(P52-Pad1)*%
X176530000Y-48260000D02*
X180086000Y-48260000D01*
%TO.N,Net-(P65-Pad1)*%
X157480000Y-55880000D02*
X157581600Y-55981600D01*
X157581600Y-55981600D02*
X160934400Y-55981600D01*
X160934400Y-55981600D02*
X161036000Y-55880000D01*
D29*
%TO.N,/+16_V*%
X219700000Y-81143000D02*
X218313000Y-79756000D01*
X66675000Y-140716000D02*
X66675000Y-149987000D01*
X26543000Y-149860000D02*
X26543000Y-104267000D01*
X26543000Y-104267000D02*
X44069000Y-90297000D01*
X26543000Y-149860000D02*
X66675000Y-149987000D01*
X66675000Y-149987000D02*
X66675000Y-156083000D01*
X214503000Y-135509000D02*
X219700000Y-135509000D01*
X219700000Y-135509000D02*
X219700000Y-81143000D01*
X218313000Y-79756000D02*
X218313000Y-77978000D01*
D31*
%TO.N,Net-(U1-Pad2)*%
X75438000Y-104902000D02*
X75438000Y-123952000D01*
X75438000Y-123952000D02*
X80162400Y-123952000D01*
%TO.N,Net-(U2-Pad8)*%
X73533000Y-86995000D02*
X78867000Y-86995000D01*
X114300000Y-136652000D02*
X114300000Y-138938000D01*
X78867000Y-86995000D02*
X78867000Y-68199000D01*
X114300000Y-138938000D02*
X99441000Y-138938000D01*
X73533000Y-117475000D02*
X73533000Y-86995000D01*
X99441000Y-138938000D02*
X99441000Y-117602000D01*
X78867000Y-68199000D02*
X81153000Y-68199000D01*
%TO.N,Net-(U2-Pad9)*%
X109855000Y-127762000D02*
X109855000Y-131191000D01*
X102616000Y-126441200D02*
X105029000Y-127762000D01*
X105029000Y-127762000D02*
X109855000Y-127762000D01*
X109855000Y-131191000D02*
X114300000Y-134112000D01*
%TO.N,Net-(U2-Pad10)*%
X111252000Y-129667000D02*
X114300000Y-131572000D01*
X92202000Y-85852000D02*
X92329000Y-115697000D01*
X86233000Y-85852000D02*
X92202000Y-85852000D01*
X86233000Y-75819000D02*
X86233000Y-85852000D01*
X111252000Y-115697000D02*
X111252000Y-129667000D01*
X92329000Y-115697000D02*
X111252000Y-115697000D01*
%TO.N,Net-(U3-Pad8)*%
X81153000Y-78359000D02*
X84709000Y-81407000D01*
X84709000Y-81407000D02*
X84709000Y-108204000D01*
X84709000Y-108204000D02*
X89535000Y-111252000D01*
%TO.N,Net-(U11B-~{Q})*%
X111125000Y-70739000D02*
X104775000Y-70739000D01*
X193167000Y-114808000D02*
X194437000Y-113665000D01*
X118618000Y-98552000D02*
X118618000Y-92964000D01*
X111125000Y-86233000D02*
X111125000Y-70739000D01*
X193167000Y-127889000D02*
X193167000Y-114808000D01*
X118618000Y-92964000D02*
X111125000Y-86233000D01*
X125603000Y-103124000D02*
X125603000Y-130556000D01*
%TO.N,Net-(U11B-~{R})*%
X99949000Y-72136000D02*
X97155000Y-70739000D01*
X99949000Y-89154000D02*
X99949000Y-72136000D01*
X103124000Y-95885000D02*
X102235000Y-95885000D01*
X102108000Y-89154000D02*
X99949000Y-89154000D01*
X102235000Y-95885000D02*
X102108000Y-89154000D01*
%TO.N,Net-(U7-Pad11)*%
X88773000Y-75819000D02*
X81153000Y-70739000D01*
%TO.N,Net-(U20-Q0)*%
X75946000Y-40894000D02*
X68326000Y-35814000D01*
%TO.N,Net-(U20-Q1)*%
X75946000Y-43434000D02*
X68326000Y-38354000D01*
%TO.N,Net-(U20-Q2)*%
X75946000Y-45974000D02*
X68326000Y-40894000D01*
%TO.N,Net-(U20-CO)*%
X84709000Y-44577000D02*
X89535000Y-40894000D01*
X84709000Y-56261000D02*
X84709000Y-44577000D01*
%TO.N,Net-(U20-Z)*%
X86995000Y-45339000D02*
X89535000Y-43434000D01*
X86995000Y-59309000D02*
X86995000Y-45339000D01*
%TO.N,Net-(D9-K)*%
X251206000Y-55118000D02*
X251206000Y-43434000D01*
X251206000Y-55118000D02*
X256540000Y-60706000D01*
D29*
X251206000Y-43434000D02*
X256540000Y-43434000D01*
X256540000Y-43434000D02*
X260223000Y-43434000D01*
D31*
%TO.N,Net-(D15-K)*%
X227584000Y-65151000D02*
X227584000Y-71374000D01*
X227457000Y-65278000D02*
X227584000Y-65151000D01*
X227584000Y-71374000D02*
X230505000Y-75311000D01*
X230479600Y-88747600D02*
X230505000Y-75311000D01*
D29*
X227584000Y-65151000D02*
X233045000Y-65151000D01*
X233045000Y-65151000D02*
X236728000Y-65176400D01*
D31*
%TO.N,Net-(D18-K)*%
X253238000Y-88798400D02*
X253238000Y-75311000D01*
D29*
X256540000Y-65151000D02*
X260223000Y-65151000D01*
D31*
X251206000Y-72136000D02*
X251206000Y-65151000D01*
X253238000Y-75311000D02*
X251206000Y-72136000D01*
D29*
X251206000Y-65151000D02*
X256540000Y-65151000D01*
D32*
%TO.N,Net-(D13-K)*%
X259461000Y-127000000D02*
X262940800Y-114350800D01*
D31*
%TO.N,Net-(D15-A)*%
X240919000Y-68707000D02*
X240919000Y-65151000D01*
X236728000Y-77876400D02*
X236728000Y-68707000D01*
X236728000Y-68707000D02*
X240919000Y-68707000D01*
X234543600Y-88747600D02*
X236728000Y-77876400D01*
%TO.N,Net-(D18-A)*%
X264033000Y-68707000D02*
X264033000Y-65151000D01*
X260223000Y-77851000D02*
X260223000Y-68707000D01*
X260223000Y-68707000D02*
X264033000Y-68707000D01*
X257606800Y-88798400D02*
X260223000Y-77851000D01*
%TO.N,/~{DI_ENA}*%
X190119000Y-120523000D02*
X191897000Y-121285000D01*
X117094000Y-99949000D02*
X117094000Y-93091000D01*
X190119000Y-107696000D02*
X190119000Y-120523000D01*
X169545000Y-113665000D02*
X169545000Y-107823000D01*
X102108000Y-70612000D02*
X97155000Y-68199000D01*
X146939000Y-107315000D02*
X146939000Y-113665000D01*
X102108000Y-86614000D02*
X102108000Y-70612000D01*
X109601000Y-86614000D02*
X102108000Y-86614000D01*
X117094000Y-93091000D02*
X109601000Y-86614000D01*
%TO.N,/~{DO_ENA}*%
X76708000Y-88290400D02*
X83616800Y-88290400D01*
X83616800Y-88290400D02*
X83616800Y-82702400D01*
X76708000Y-88290400D02*
X76708000Y-115951000D01*
X83616800Y-82702400D02*
X81407000Y-80899000D01*
%TD*%
%TA.AperFunction,NonConductor*%
G36*
X53994803Y-29356685D02*
G01*
X54040558Y-29409489D01*
X54051762Y-29460433D01*
X54096672Y-39313572D01*
X54177632Y-57076338D01*
X54158253Y-57143466D01*
X54105658Y-57189461D01*
X54053736Y-57200903D01*
X23721155Y-57226096D01*
X23654099Y-57206467D01*
X23608300Y-57153701D01*
X23597053Y-57101647D01*
X23642764Y-44554000D01*
X37876671Y-44554000D01*
X37878635Y-44583969D01*
X37878831Y-44596218D01*
X37877723Y-44629367D01*
X37877723Y-44629377D01*
X37888664Y-44738136D01*
X37889021Y-44742436D01*
X37895965Y-44848376D01*
X37895967Y-44848389D01*
X37902469Y-44881084D01*
X37904228Y-44892853D01*
X37907882Y-44929164D01*
X37932457Y-45032287D01*
X37933452Y-45036841D01*
X37953515Y-45137711D01*
X37953518Y-45137719D01*
X37965301Y-45172434D01*
X37968501Y-45183539D01*
X37977729Y-45222255D01*
X37977730Y-45222258D01*
X37977731Y-45222261D01*
X37988712Y-45250773D01*
X38014644Y-45318106D01*
X38016346Y-45322806D01*
X38048348Y-45417077D01*
X38065091Y-45451029D01*
X38066022Y-45452916D01*
X38070523Y-45463192D01*
X38086019Y-45503427D01*
X38086023Y-45503436D01*
X38133787Y-45590593D01*
X38136257Y-45595341D01*
X38178822Y-45681655D01*
X38178833Y-45681674D01*
X38202869Y-45717647D01*
X38208506Y-45726941D01*
X38230822Y-45767660D01*
X38230829Y-45767671D01*
X38287826Y-45845028D01*
X38291099Y-45849691D01*
X38331366Y-45909955D01*
X38342727Y-45926957D01*
X38368104Y-45955895D01*
X38373446Y-45961986D01*
X38380044Y-45970188D01*
X38409551Y-46010235D01*
X38474064Y-46076942D01*
X38478156Y-46081385D01*
X38537236Y-46148752D01*
X38537242Y-46148758D01*
X38574756Y-46181657D01*
X38582128Y-46188679D01*
X38619018Y-46226823D01*
X38689241Y-46282277D01*
X38694151Y-46286364D01*
X38736912Y-46323864D01*
X38759043Y-46343273D01*
X38803308Y-46372850D01*
X38811228Y-46378609D01*
X38855485Y-46413558D01*
X38922194Y-46453070D01*
X38929610Y-46457462D01*
X38935309Y-46461050D01*
X39004338Y-46507174D01*
X39025927Y-46517820D01*
X39055049Y-46532181D01*
X39063386Y-46536698D01*
X39114717Y-46567102D01*
X39114722Y-46567104D01*
X39114730Y-46567109D01*
X39191030Y-46599463D01*
X39197411Y-46602386D01*
X39268923Y-46637652D01*
X39325602Y-46656892D01*
X39334134Y-46660144D01*
X39392128Y-46684736D01*
X39392132Y-46684737D01*
X39468832Y-46705747D01*
X39475916Y-46707916D01*
X39548278Y-46732481D01*
X39610232Y-46744804D01*
X39618786Y-46746824D01*
X39682729Y-46764340D01*
X39758297Y-46774502D01*
X39765939Y-46775775D01*
X39837620Y-46790034D01*
X39903972Y-46794382D01*
X39912342Y-46795219D01*
X39981347Y-46804500D01*
X40054273Y-46804500D01*
X40062382Y-46804765D01*
X40069619Y-46805240D01*
X40131994Y-46809329D01*
X40132000Y-46809329D01*
X40132004Y-46809329D01*
X40148347Y-46808257D01*
X40202099Y-46804734D01*
X40206028Y-46804540D01*
X40207216Y-46804500D01*
X40207244Y-46804500D01*
X40280670Y-46799584D01*
X40280845Y-46799623D01*
X40280842Y-46799574D01*
X40402348Y-46791609D01*
X40426380Y-46790034D01*
X40426381Y-46790033D01*
X40427155Y-46789983D01*
X40431843Y-46789518D01*
X40432618Y-46789413D01*
X40432634Y-46789412D01*
X40575658Y-46760341D01*
X40715722Y-46732481D01*
X40715734Y-46732476D01*
X40719653Y-46731427D01*
X40719703Y-46731617D01*
X40727215Y-46729584D01*
X40727893Y-46729397D01*
X40727903Y-46729396D01*
X40862629Y-46682613D01*
X40862996Y-46682487D01*
X40995077Y-46637652D01*
X40995215Y-46637583D01*
X41009411Y-46631645D01*
X41012537Y-46630560D01*
X41136742Y-46567795D01*
X41137651Y-46567341D01*
X41259665Y-46507172D01*
X41262565Y-46505233D01*
X41275531Y-46497662D01*
X41281459Y-46494668D01*
X41393531Y-46417734D01*
X41394650Y-46416977D01*
X41504957Y-46343273D01*
X41510067Y-46338790D01*
X41521664Y-46329775D01*
X41529869Y-46324144D01*
X41628143Y-46235258D01*
X41629526Y-46234027D01*
X41726758Y-46148758D01*
X41733434Y-46141144D01*
X41743494Y-46130930D01*
X41753333Y-46122032D01*
X41836802Y-46023302D01*
X41838082Y-46021816D01*
X41921273Y-45926957D01*
X41928750Y-45915765D01*
X41937156Y-45904605D01*
X41947863Y-45891941D01*
X41947865Y-45891939D01*
X42015611Y-45785815D01*
X42016972Y-45783732D01*
X42085172Y-45681665D01*
X42092592Y-45666617D01*
X42099279Y-45654751D01*
X42109993Y-45637970D01*
X42161610Y-45526735D01*
X42162852Y-45524143D01*
X42215649Y-45417084D01*
X42215652Y-45417076D01*
X42222104Y-45398068D01*
X42227048Y-45385721D01*
X42236817Y-45364670D01*
X42236823Y-45364658D01*
X42272170Y-45250706D01*
X42273120Y-45247780D01*
X42310481Y-45137722D01*
X42315045Y-45114775D01*
X42318231Y-45102221D01*
X42326093Y-45076879D01*
X42345385Y-44962504D01*
X42346023Y-44959033D01*
X42368034Y-44848380D01*
X42369781Y-44821708D01*
X42371240Y-44809225D01*
X42376209Y-44779770D01*
X42379973Y-44667173D01*
X42380169Y-44663227D01*
X42387329Y-44554005D01*
X42387329Y-44554001D01*
X42387329Y-44554000D01*
X42385363Y-44524022D01*
X42385167Y-44511803D01*
X42386277Y-44478631D01*
X42375336Y-44369880D01*
X42374980Y-44365584D01*
X42368035Y-44259632D01*
X42368033Y-44259615D01*
X42361530Y-44226924D01*
X42359770Y-44215143D01*
X42356118Y-44178841D01*
X42356118Y-44178838D01*
X42331532Y-44075675D01*
X42330556Y-44071210D01*
X42310481Y-43970278D01*
X42298695Y-43935559D01*
X42295496Y-43924457D01*
X42286272Y-43885750D01*
X42286270Y-43885746D01*
X42286269Y-43885739D01*
X42249351Y-43789884D01*
X42247655Y-43785200D01*
X42233447Y-43743345D01*
X42215652Y-43690923D01*
X42197973Y-43655073D01*
X42193479Y-43644816D01*
X42177977Y-43604566D01*
X42130196Y-43517378D01*
X42127737Y-43512652D01*
X42105722Y-43468008D01*
X42085175Y-43426341D01*
X42085172Y-43426336D01*
X42061122Y-43390344D01*
X42055500Y-43381074D01*
X42033175Y-43340335D01*
X41976154Y-43262946D01*
X41972918Y-43258336D01*
X41921273Y-43181043D01*
X41921269Y-43181038D01*
X41890553Y-43146012D01*
X41883954Y-43137810D01*
X41854450Y-43097768D01*
X41854446Y-43097762D01*
X41789934Y-43031056D01*
X41785842Y-43026613D01*
X41726760Y-42959244D01*
X41689236Y-42926335D01*
X41681865Y-42919314D01*
X41644980Y-42881176D01*
X41574768Y-42825730D01*
X41569858Y-42821643D01*
X41504960Y-42764730D01*
X41504957Y-42764727D01*
X41476683Y-42745834D01*
X41460701Y-42735155D01*
X41452746Y-42729370D01*
X41408517Y-42694443D01*
X41388847Y-42682793D01*
X41334374Y-42650528D01*
X41328703Y-42646958D01*
X41278379Y-42613332D01*
X41259666Y-42600828D01*
X41208950Y-42575817D01*
X41200626Y-42571308D01*
X41149270Y-42540891D01*
X41149266Y-42540889D01*
X41149262Y-42540887D01*
X41093324Y-42517167D01*
X41072997Y-42508548D01*
X41066577Y-42505607D01*
X40995077Y-42470348D01*
X40994244Y-42470065D01*
X40938409Y-42451110D01*
X40929864Y-42447854D01*
X40905100Y-42437353D01*
X40871872Y-42423264D01*
X40871868Y-42423263D01*
X40871866Y-42423262D01*
X40795155Y-42402248D01*
X40788058Y-42400073D01*
X40715734Y-42375522D01*
X40715723Y-42375519D01*
X40715722Y-42375519D01*
X40715717Y-42375518D01*
X40653778Y-42363197D01*
X40645210Y-42361174D01*
X40581282Y-42343662D01*
X40581265Y-42343658D01*
X40505716Y-42333497D01*
X40498058Y-42332222D01*
X40446865Y-42322040D01*
X40426380Y-42317966D01*
X40426377Y-42317965D01*
X40426374Y-42317965D01*
X40360069Y-42313619D01*
X40351654Y-42312779D01*
X40314973Y-42307846D01*
X40282653Y-42303500D01*
X40282650Y-42303500D01*
X40209727Y-42303500D01*
X40201617Y-42303234D01*
X40194380Y-42302759D01*
X40132006Y-42298671D01*
X40132002Y-42298671D01*
X40132000Y-42298671D01*
X40061953Y-42303262D01*
X40058009Y-42303457D01*
X40056766Y-42303498D01*
X39986682Y-42308190D01*
X39983157Y-42308426D01*
X39983116Y-42308428D01*
X39982986Y-42308437D01*
X39836888Y-42318013D01*
X39832125Y-42318485D01*
X39831378Y-42318586D01*
X39831369Y-42318587D01*
X39831366Y-42318588D01*
X39688594Y-42347606D01*
X39688146Y-42347696D01*
X39548277Y-42375518D01*
X39544365Y-42376567D01*
X39544316Y-42376384D01*
X39536103Y-42378602D01*
X39536098Y-42378602D01*
X39401650Y-42425287D01*
X39400837Y-42425567D01*
X39268924Y-42470347D01*
X39268851Y-42470383D01*
X39268753Y-42470431D01*
X39254616Y-42476345D01*
X39251461Y-42477440D01*
X39251457Y-42477442D01*
X39127241Y-42540210D01*
X39126162Y-42540749D01*
X39004337Y-42600827D01*
X39004329Y-42600831D01*
X39001417Y-42602777D01*
X38988483Y-42610328D01*
X38982543Y-42613329D01*
X38870584Y-42690185D01*
X38869299Y-42691056D01*
X38811959Y-42729370D01*
X38759039Y-42764730D01*
X38753921Y-42769219D01*
X38742350Y-42778213D01*
X38734133Y-42783854D01*
X38635881Y-42872716D01*
X38634465Y-42873977D01*
X38537240Y-42959243D01*
X38530555Y-42966865D01*
X38520522Y-42977053D01*
X38510667Y-42985967D01*
X38510660Y-42985974D01*
X38427299Y-43084574D01*
X38425836Y-43086274D01*
X38342726Y-43181042D01*
X38335249Y-43192232D01*
X38326851Y-43203383D01*
X38316141Y-43216051D01*
X38316140Y-43216053D01*
X38248420Y-43322132D01*
X38247006Y-43324297D01*
X38178828Y-43426336D01*
X38171412Y-43441372D01*
X38164728Y-43453234D01*
X38154007Y-43470029D01*
X38102412Y-43581212D01*
X38101146Y-43583858D01*
X38048347Y-43690924D01*
X38048345Y-43690929D01*
X38041890Y-43709944D01*
X38036957Y-43722264D01*
X38027177Y-43743342D01*
X37991841Y-43857250D01*
X37990839Y-43860334D01*
X37953522Y-43970265D01*
X37953516Y-43970289D01*
X37948951Y-43993236D01*
X37945769Y-44005774D01*
X37937905Y-44031125D01*
X37918622Y-44145434D01*
X37917968Y-44148995D01*
X37895965Y-44259623D01*
X37895964Y-44259628D01*
X37894218Y-44286273D01*
X37892758Y-44298779D01*
X37887791Y-44328231D01*
X37884027Y-44440779D01*
X37883831Y-44444742D01*
X37876671Y-44554000D01*
X23642764Y-44554000D01*
X23697750Y-29460548D01*
X23717678Y-29393581D01*
X23770649Y-29348019D01*
X23821749Y-29337000D01*
X53927764Y-29337000D01*
X53994803Y-29356685D01*
G37*
%TD.AperFunction*%
M02*
